%TF.GenerationSoftware,KiCad,Pcbnew,7.0.10*%
%TF.CreationDate,2024-03-14T18:53:23+05:30*%
%TF.ProjectId,STM32_4LAYER,53544d33-325f-4344-9c41-5945522e6b69,rev?*%
%TF.SameCoordinates,Original*%
%TF.FileFunction,Copper,L3,Inr*%
%TF.FilePolarity,Positive*%
%FSLAX46Y46*%
G04 Gerber Fmt 4.6, Leading zero omitted, Abs format (unit mm)*
G04 Created by KiCad (PCBNEW 7.0.10) date 2024-03-14 18:53:23*
%MOMM*%
%LPD*%
G01*
G04 APERTURE LIST*
G04 Aperture macros list*
%AMRoundRect*
0 Rectangle with rounded corners*
0 $1 Rounding radius*
0 $2 $3 $4 $5 $6 $7 $8 $9 X,Y pos of 4 corners*
0 Add a 4 corners polygon primitive as box body*
4,1,4,$2,$3,$4,$5,$6,$7,$8,$9,$2,$3,0*
0 Add four circle primitives for the rounded corners*
1,1,$1+$1,$2,$3*
1,1,$1+$1,$4,$5*
1,1,$1+$1,$6,$7*
1,1,$1+$1,$8,$9*
0 Add four rect primitives between the rounded corners*
20,1,$1+$1,$2,$3,$4,$5,0*
20,1,$1+$1,$4,$5,$6,$7,0*
20,1,$1+$1,$6,$7,$8,$9,0*
20,1,$1+$1,$8,$9,$2,$3,0*%
G04 Aperture macros list end*
%TA.AperFunction,ComponentPad*%
%ADD10RoundRect,0.200000X-0.450000X0.200000X-0.450000X-0.200000X0.450000X-0.200000X0.450000X0.200000X0*%
%TD*%
%TA.AperFunction,ComponentPad*%
%ADD11O,1.300000X0.800000*%
%TD*%
%TA.AperFunction,ComponentPad*%
%ADD12RoundRect,0.200000X0.200000X0.450000X-0.200000X0.450000X-0.200000X-0.450000X0.200000X-0.450000X0*%
%TD*%
%TA.AperFunction,ComponentPad*%
%ADD13O,0.800000X1.300000*%
%TD*%
%TA.AperFunction,ComponentPad*%
%ADD14C,0.900000*%
%TD*%
%TA.AperFunction,ComponentPad*%
%ADD15C,8.600000*%
%TD*%
%TA.AperFunction,ComponentPad*%
%ADD16R,2.400000X2.400000*%
%TD*%
%TA.AperFunction,ComponentPad*%
%ADD17C,2.400000*%
%TD*%
%TA.AperFunction,ViaPad*%
%ADD18C,0.800000*%
%TD*%
G04 APERTURE END LIST*
D10*
%TO.N,+3.3V*%
%TO.C,J5*%
X154430200Y-98582000D03*
D11*
%TO.N,TX*%
X154430200Y-99832000D03*
%TO.N,RX*%
X154430200Y-101082000D03*
%TO.N,GND*%
X154430200Y-102332000D03*
%TD*%
D12*
%TO.N,+3.3V*%
%TO.C,J4*%
X177490600Y-78230200D03*
D13*
%TO.N,SCL*%
X176240600Y-78230200D03*
%TO.N,SDA*%
X174990600Y-78230200D03*
%TO.N,GND*%
X173740600Y-78230200D03*
%TD*%
D14*
%TO.N,GND*%
%TO.C,H2*%
X192355000Y-78740000D03*
X193299581Y-76459581D03*
X193299581Y-81020419D03*
X195580000Y-75515000D03*
D15*
X195580000Y-78740000D03*
D14*
X195580000Y-81965000D03*
X197860419Y-76459581D03*
X197860419Y-81020419D03*
X198805000Y-78740000D03*
%TD*%
%TO.N,GND*%
%TO.C,H4*%
X192355000Y-111760000D03*
X193299581Y-109479581D03*
X193299581Y-114040419D03*
X195580000Y-108535000D03*
D15*
X195580000Y-111760000D03*
D14*
X195580000Y-114985000D03*
X197860419Y-109479581D03*
X197860419Y-114040419D03*
X198805000Y-111760000D03*
%TD*%
D10*
%TO.N,+3.3V*%
%TO.C,J6*%
X154432000Y-86155200D03*
D11*
%TO.N,MOSI*%
X154432000Y-87405200D03*
%TO.N,MISO*%
X154432000Y-88655200D03*
%TO.N,SCK*%
X154432000Y-89905200D03*
%TO.N,NSS*%
X154432000Y-91155200D03*
%TO.N,GND*%
X154432000Y-92405200D03*
%TD*%
D14*
%TO.N,GND*%
%TO.C,H3*%
X151715000Y-111760000D03*
X152659581Y-109479581D03*
X152659581Y-114040419D03*
X154940000Y-108535000D03*
D15*
X154940000Y-111760000D03*
D14*
X154940000Y-114985000D03*
X157220419Y-109479581D03*
X157220419Y-114040419D03*
X158165000Y-111760000D03*
%TD*%
D16*
%TO.N,VCC*%
%TO.C,J2*%
X168684000Y-111314000D03*
D17*
%TO.N,GND*%
X172184000Y-111314000D03*
%TD*%
D14*
%TO.N,GND*%
%TO.C,H1*%
X151715000Y-78740000D03*
X152659581Y-76459581D03*
X152659581Y-81020419D03*
X154940000Y-75515000D03*
D15*
X154940000Y-78740000D03*
D14*
X154940000Y-81965000D03*
X157220419Y-76459581D03*
X157220419Y-81020419D03*
X158165000Y-78740000D03*
%TD*%
D18*
%TO.N,GND*%
X191643000Y-90424000D03*
X192659000Y-90424000D03*
X190011000Y-77705000D03*
X181610000Y-76073000D03*
X193675000Y-90424000D03*
X179832000Y-90750000D03*
X175768000Y-100076000D03*
X161163000Y-93091000D03*
X165481000Y-93980000D03*
X165735000Y-90932000D03*
X165100000Y-84201000D03*
X170307000Y-84582000D03*
%TO.N,+3.3V*%
X168402000Y-87249000D03*
X188849000Y-101981000D03*
X189992000Y-76155000D03*
X163852331Y-96497669D03*
%TO.N,SCK*%
X170180000Y-95377000D03*
%TO.N,MISO*%
X170926751Y-94263413D03*
%TO.N,MOSI*%
X171958000Y-94250000D03*
%TO.N,+3.3V*%
X178816000Y-88646000D03*
X178054000Y-98552000D03*
X167386000Y-79248000D03*
%TO.N,GND*%
X162814000Y-79248000D03*
%TO.N,+3.3V*%
X171958000Y-83820000D03*
X167386000Y-85852000D03*
X175514000Y-83820000D03*
%TO.N,NRST*%
X178104800Y-82499200D03*
X174320200Y-93497400D03*
%TO.N,GND*%
X181864000Y-99314000D03*
X181864000Y-100584000D03*
X194056000Y-105029000D03*
X192913000Y-105029000D03*
X191770000Y-105029000D03*
%TO.N,+3.3V*%
X189103000Y-110490000D03*
X189103000Y-112141000D03*
X189103000Y-113538000D03*
X189103000Y-114935000D03*
%TO.N,GND*%
X178435000Y-109474000D03*
X177165000Y-109474000D03*
X175895000Y-109474000D03*
X175895000Y-108077000D03*
X177165000Y-108077000D03*
X178562000Y-108077000D03*
X179832000Y-108077000D03*
X181864000Y-101727000D03*
X180594000Y-101727000D03*
X187960000Y-106299000D03*
X187960000Y-105156000D03*
%TO.N,USB_D-*%
X182245000Y-92598400D03*
X179832000Y-92329000D03*
%TD*%
%TA.AperFunction,Conductor*%
%TO.N,+3.3V*%
G36*
X195582562Y-73660605D02*
G01*
X195797373Y-73669490D01*
X196000249Y-73678348D01*
X196010120Y-73679177D01*
X196225510Y-73706026D01*
X196225963Y-73706084D01*
X196428504Y-73732749D01*
X196437718Y-73734319D01*
X196649797Y-73778787D01*
X196650827Y-73779009D01*
X196850566Y-73823290D01*
X196859092Y-73825502D01*
X196996957Y-73866546D01*
X197066503Y-73887251D01*
X197068407Y-73887835D01*
X197119925Y-73904078D01*
X197263404Y-73949316D01*
X197271119Y-73952034D01*
X197472754Y-74030712D01*
X197475027Y-74031626D01*
X197663987Y-74109896D01*
X197670965Y-74113043D01*
X197865405Y-74208098D01*
X197868080Y-74209449D01*
X197958300Y-74256415D01*
X198049482Y-74303882D01*
X198055698Y-74307348D01*
X198241533Y-74418081D01*
X198244671Y-74420015D01*
X198383465Y-74508437D01*
X198417116Y-74529875D01*
X198422545Y-74533538D01*
X198598570Y-74659218D01*
X198602002Y-74661759D01*
X198764219Y-74786232D01*
X198768874Y-74789985D01*
X198933920Y-74929771D01*
X198937552Y-74932972D01*
X199088327Y-75071132D01*
X199092235Y-75074873D01*
X199245125Y-75227763D01*
X199248866Y-75231671D01*
X199387026Y-75382446D01*
X199390227Y-75386078D01*
X199530013Y-75551124D01*
X199533766Y-75555779D01*
X199658239Y-75717996D01*
X199660780Y-75721428D01*
X199786460Y-75897453D01*
X199790123Y-75902882D01*
X199899974Y-76075313D01*
X199901917Y-76078465D01*
X200012650Y-76264300D01*
X200016116Y-76270516D01*
X200110534Y-76451889D01*
X200111946Y-76454686D01*
X200206942Y-76649004D01*
X200210102Y-76656011D01*
X200288351Y-76844920D01*
X200289307Y-76847298D01*
X200367949Y-77048838D01*
X200370693Y-77056627D01*
X200432163Y-77251591D01*
X200432747Y-77253495D01*
X200494494Y-77460898D01*
X200496710Y-77469441D01*
X200540949Y-77668987D01*
X200541249Y-77670380D01*
X200585675Y-77882260D01*
X200587253Y-77891521D01*
X200613887Y-78093829D01*
X200613996Y-78094676D01*
X200640818Y-78309849D01*
X200641652Y-78319778D01*
X200650512Y-78522701D01*
X200650524Y-78522986D01*
X200659394Y-78737438D01*
X200659500Y-78742562D01*
X200659500Y-111757437D01*
X200659394Y-111762561D01*
X200650524Y-111977013D01*
X200650512Y-111977298D01*
X200641652Y-112180220D01*
X200640818Y-112190149D01*
X200613996Y-112405322D01*
X200613887Y-112406169D01*
X200587253Y-112608477D01*
X200585675Y-112617738D01*
X200541249Y-112829618D01*
X200540949Y-112831011D01*
X200496710Y-113030557D01*
X200494494Y-113039100D01*
X200432747Y-113246503D01*
X200432163Y-113248407D01*
X200370693Y-113443371D01*
X200367949Y-113451160D01*
X200289307Y-113652700D01*
X200288351Y-113655078D01*
X200210102Y-113843987D01*
X200206942Y-113850994D01*
X200111946Y-114045312D01*
X200110534Y-114048109D01*
X200016116Y-114229482D01*
X200012650Y-114235698D01*
X199901917Y-114421533D01*
X199899974Y-114424685D01*
X199790123Y-114597116D01*
X199786460Y-114602545D01*
X199660780Y-114778570D01*
X199658239Y-114782002D01*
X199533766Y-114944219D01*
X199530013Y-114948874D01*
X199390227Y-115113920D01*
X199387026Y-115117552D01*
X199248866Y-115268327D01*
X199245125Y-115272235D01*
X199092235Y-115425125D01*
X199088327Y-115428866D01*
X198937552Y-115567026D01*
X198933920Y-115570227D01*
X198768874Y-115710013D01*
X198764219Y-115713766D01*
X198602002Y-115838239D01*
X198598570Y-115840780D01*
X198422545Y-115966460D01*
X198417116Y-115970123D01*
X198244685Y-116079974D01*
X198241533Y-116081917D01*
X198055698Y-116192650D01*
X198049482Y-116196116D01*
X197868109Y-116290534D01*
X197865312Y-116291946D01*
X197670994Y-116386942D01*
X197663987Y-116390102D01*
X197475078Y-116468351D01*
X197472700Y-116469307D01*
X197271160Y-116547949D01*
X197263371Y-116550693D01*
X197068407Y-116612163D01*
X197066503Y-116612747D01*
X196859100Y-116674494D01*
X196850557Y-116676710D01*
X196651011Y-116720949D01*
X196649618Y-116721249D01*
X196437738Y-116765675D01*
X196428477Y-116767253D01*
X196226169Y-116793887D01*
X196225322Y-116793996D01*
X196010149Y-116820818D01*
X196000220Y-116821652D01*
X195797408Y-116830507D01*
X195797124Y-116830519D01*
X195582563Y-116839394D01*
X195577438Y-116839500D01*
X154942562Y-116839500D01*
X154937437Y-116839394D01*
X154722874Y-116830519D01*
X154722590Y-116830507D01*
X154519778Y-116821652D01*
X154509849Y-116820818D01*
X154294676Y-116793996D01*
X154293829Y-116793887D01*
X154091521Y-116767253D01*
X154082260Y-116765675D01*
X153870380Y-116721249D01*
X153868987Y-116720949D01*
X153669441Y-116676710D01*
X153660898Y-116674494D01*
X153453495Y-116612747D01*
X153451591Y-116612163D01*
X153256627Y-116550693D01*
X153248845Y-116547951D01*
X153118255Y-116496995D01*
X153047298Y-116469307D01*
X153044920Y-116468351D01*
X152856011Y-116390102D01*
X152849004Y-116386942D01*
X152732832Y-116330149D01*
X152654657Y-116291931D01*
X152651889Y-116290534D01*
X152470516Y-116196116D01*
X152464300Y-116192650D01*
X152278465Y-116081917D01*
X152275313Y-116079974D01*
X152102882Y-115970123D01*
X152097453Y-115966460D01*
X151921428Y-115840780D01*
X151917996Y-115838239D01*
X151755779Y-115713766D01*
X151751124Y-115710013D01*
X151586078Y-115570227D01*
X151582446Y-115567026D01*
X151431671Y-115428866D01*
X151427763Y-115425125D01*
X151274873Y-115272235D01*
X151271132Y-115268327D01*
X151132972Y-115117552D01*
X151129771Y-115113920D01*
X150989985Y-114948874D01*
X150986232Y-114944219D01*
X150861759Y-114782002D01*
X150859218Y-114778570D01*
X150733538Y-114602545D01*
X150729875Y-114597116D01*
X150721847Y-114584514D01*
X150620015Y-114424671D01*
X150618081Y-114421533D01*
X150507348Y-114235698D01*
X150503882Y-114229482D01*
X150409464Y-114048109D01*
X150408098Y-114045404D01*
X150313043Y-113850965D01*
X150309896Y-113843987D01*
X150231626Y-113655027D01*
X150230712Y-113652754D01*
X150152034Y-113451119D01*
X150149316Y-113443404D01*
X150087835Y-113248407D01*
X150087251Y-113246503D01*
X150025504Y-113039100D01*
X150023288Y-113030557D01*
X149979009Y-112830827D01*
X149978787Y-112829797D01*
X149934319Y-112617718D01*
X149932749Y-112608504D01*
X149906084Y-112405963D01*
X149906026Y-112405510D01*
X149879177Y-112190120D01*
X149878348Y-112180249D01*
X149869487Y-111977298D01*
X149860606Y-111762561D01*
X149860553Y-111760003D01*
X150134661Y-111760003D01*
X150154005Y-112190737D01*
X150154006Y-112190746D01*
X150211885Y-112618027D01*
X150307830Y-113038391D01*
X150441073Y-113448472D01*
X150441076Y-113448480D01*
X150610533Y-113844947D01*
X150610537Y-113844955D01*
X150610539Y-113844958D01*
X150814863Y-114224655D01*
X150814867Y-114224661D01*
X150814867Y-114224662D01*
X151052394Y-114584501D01*
X151052404Y-114584514D01*
X151321225Y-114921607D01*
X151321237Y-114921620D01*
X151587637Y-115200252D01*
X151619210Y-115233274D01*
X151943920Y-115516965D01*
X151943930Y-115516972D01*
X151943931Y-115516973D01*
X152113487Y-115640163D01*
X152292753Y-115770407D01*
X152662900Y-115991560D01*
X152662903Y-115991561D01*
X152662904Y-115991562D01*
X152662906Y-115991563D01*
X153051372Y-116178639D01*
X153051386Y-116178645D01*
X153455055Y-116330144D01*
X153455059Y-116330145D01*
X153455069Y-116330149D01*
X153870711Y-116444859D01*
X154294964Y-116521850D01*
X154724409Y-116560500D01*
X154724416Y-116560500D01*
X155155584Y-116560500D01*
X155155591Y-116560500D01*
X155585036Y-116521850D01*
X156009289Y-116444859D01*
X156424931Y-116330149D01*
X156828619Y-116178643D01*
X157217100Y-115991560D01*
X157587247Y-115770407D01*
X157936080Y-115516965D01*
X158260790Y-115233274D01*
X158558764Y-114921619D01*
X158592040Y-114879893D01*
X158813216Y-114602545D01*
X158827601Y-114584507D01*
X159065137Y-114224655D01*
X159269461Y-113844958D01*
X159438926Y-113448475D01*
X159572168Y-113038397D01*
X159668115Y-112618026D01*
X159675722Y-112561870D01*
X166983500Y-112561870D01*
X166983501Y-112561876D01*
X166989908Y-112621483D01*
X167040202Y-112756328D01*
X167040206Y-112756335D01*
X167126452Y-112871544D01*
X167126455Y-112871547D01*
X167241664Y-112957793D01*
X167241671Y-112957797D01*
X167376517Y-113008091D01*
X167376516Y-113008091D01*
X167383444Y-113008835D01*
X167436127Y-113014500D01*
X169931872Y-113014499D01*
X169991483Y-113008091D01*
X170126331Y-112957796D01*
X170241546Y-112871546D01*
X170327796Y-112756331D01*
X170378091Y-112621483D01*
X170384500Y-112561873D01*
X170384499Y-112038854D01*
X170404183Y-111971818D01*
X170456987Y-111926063D01*
X170526146Y-111916119D01*
X170589702Y-111945144D01*
X170623927Y-111993553D01*
X170647607Y-112053888D01*
X170775041Y-112274612D01*
X170933950Y-112473877D01*
X171120783Y-112647232D01*
X171331366Y-112790805D01*
X171331371Y-112790807D01*
X171331372Y-112790808D01*
X171331373Y-112790809D01*
X171453328Y-112849538D01*
X171560992Y-112901387D01*
X171560993Y-112901387D01*
X171560996Y-112901389D01*
X171804542Y-112976513D01*
X172056565Y-113014500D01*
X172311435Y-113014500D01*
X172563458Y-112976513D01*
X172807004Y-112901389D01*
X172988458Y-112814005D01*
X173036626Y-112790809D01*
X173036626Y-112790808D01*
X173036634Y-112790805D01*
X173247217Y-112647232D01*
X173434050Y-112473877D01*
X173592959Y-112274612D01*
X173720393Y-112053888D01*
X173813508Y-111816637D01*
X173826434Y-111760003D01*
X190774661Y-111760003D01*
X190794005Y-112190737D01*
X190794006Y-112190746D01*
X190851885Y-112618027D01*
X190947830Y-113038391D01*
X191081073Y-113448472D01*
X191081076Y-113448480D01*
X191250533Y-113844947D01*
X191250537Y-113844955D01*
X191250539Y-113844958D01*
X191454863Y-114224655D01*
X191454867Y-114224661D01*
X191454867Y-114224662D01*
X191692394Y-114584501D01*
X191692404Y-114584514D01*
X191961225Y-114921607D01*
X191961237Y-114921620D01*
X192227637Y-115200252D01*
X192259210Y-115233274D01*
X192583920Y-115516965D01*
X192583930Y-115516972D01*
X192583931Y-115516973D01*
X192753487Y-115640163D01*
X192932753Y-115770407D01*
X193302900Y-115991560D01*
X193302903Y-115991561D01*
X193302904Y-115991562D01*
X193302906Y-115991563D01*
X193691372Y-116178639D01*
X193691386Y-116178645D01*
X194095055Y-116330144D01*
X194095059Y-116330145D01*
X194095069Y-116330149D01*
X194510711Y-116444859D01*
X194934964Y-116521850D01*
X195364409Y-116560500D01*
X195364416Y-116560500D01*
X195795584Y-116560500D01*
X195795591Y-116560500D01*
X196225036Y-116521850D01*
X196649289Y-116444859D01*
X197064931Y-116330149D01*
X197468619Y-116178643D01*
X197857100Y-115991560D01*
X198227247Y-115770407D01*
X198576080Y-115516965D01*
X198900790Y-115233274D01*
X199198764Y-114921619D01*
X199232040Y-114879893D01*
X199453216Y-114602545D01*
X199467601Y-114584507D01*
X199705137Y-114224655D01*
X199909461Y-113844958D01*
X200078926Y-113448475D01*
X200212168Y-113038397D01*
X200308115Y-112618026D01*
X200365994Y-112190747D01*
X200385339Y-111760000D01*
X200365994Y-111329253D01*
X200308115Y-110901974D01*
X200212168Y-110481603D01*
X200078926Y-110071525D01*
X199993504Y-109871671D01*
X199909466Y-109675052D01*
X199909462Y-109675044D01*
X199906859Y-109670206D01*
X199705137Y-109295345D01*
X199705132Y-109295337D01*
X199467605Y-108935498D01*
X199467595Y-108935485D01*
X199198774Y-108598392D01*
X199198762Y-108598379D01*
X198900794Y-108286730D01*
X198900793Y-108286729D01*
X198900790Y-108286726D01*
X198576080Y-108003035D01*
X198418772Y-107888744D01*
X198227256Y-107749599D01*
X198227251Y-107749596D01*
X198227247Y-107749593D01*
X197857100Y-107528440D01*
X197857095Y-107528437D01*
X197857093Y-107528436D01*
X197468627Y-107341360D01*
X197468613Y-107341354D01*
X197064944Y-107189855D01*
X197064919Y-107189847D01*
X196649295Y-107075142D01*
X196225043Y-106998151D01*
X196225040Y-106998150D01*
X196225036Y-106998150D01*
X195795591Y-106959500D01*
X195364409Y-106959500D01*
X194934964Y-106998150D01*
X194934960Y-106998150D01*
X194934956Y-106998151D01*
X194510704Y-107075142D01*
X194095080Y-107189847D01*
X194095055Y-107189855D01*
X193691386Y-107341354D01*
X193691372Y-107341360D01*
X193302906Y-107528436D01*
X193302904Y-107528437D01*
X192932743Y-107749599D01*
X192583931Y-108003026D01*
X192583914Y-108003039D01*
X192259210Y-108286726D01*
X192259205Y-108286730D01*
X191961237Y-108598379D01*
X191961225Y-108598392D01*
X191692404Y-108935485D01*
X191692394Y-108935498D01*
X191454867Y-109295337D01*
X191454867Y-109295338D01*
X191250537Y-109675044D01*
X191250533Y-109675052D01*
X191081076Y-110071519D01*
X191081073Y-110071527D01*
X190947830Y-110481608D01*
X190851885Y-110901972D01*
X190794006Y-111329253D01*
X190794005Y-111329262D01*
X190774661Y-111759996D01*
X190774661Y-111760003D01*
X173826434Y-111760003D01*
X173870222Y-111568157D01*
X173878384Y-111459232D01*
X173889268Y-111314004D01*
X173889268Y-111313995D01*
X173870222Y-111059845D01*
X173813509Y-110811369D01*
X173813508Y-110811363D01*
X173720393Y-110574112D01*
X173592959Y-110353388D01*
X173434050Y-110154123D01*
X173247217Y-109980768D01*
X173036634Y-109837195D01*
X173036630Y-109837193D01*
X173036627Y-109837191D01*
X173036626Y-109837190D01*
X172807006Y-109726612D01*
X172807008Y-109726612D01*
X172563466Y-109651489D01*
X172563462Y-109651488D01*
X172563458Y-109651487D01*
X172442231Y-109633214D01*
X172311440Y-109613500D01*
X172311435Y-109613500D01*
X172056565Y-109613500D01*
X172056559Y-109613500D01*
X171899609Y-109637157D01*
X171804542Y-109651487D01*
X171804539Y-109651488D01*
X171804533Y-109651489D01*
X171560992Y-109726612D01*
X171331373Y-109837190D01*
X171331372Y-109837191D01*
X171120782Y-109980768D01*
X170933952Y-110154121D01*
X170933950Y-110154123D01*
X170775041Y-110353388D01*
X170647608Y-110574109D01*
X170623927Y-110634447D01*
X170581110Y-110689661D01*
X170515240Y-110712961D01*
X170447230Y-110696950D01*
X170398672Y-110646711D01*
X170384499Y-110589144D01*
X170384499Y-110066129D01*
X170384498Y-110066123D01*
X170384497Y-110066116D01*
X170378091Y-110006517D01*
X170368487Y-109980768D01*
X170327797Y-109871671D01*
X170327793Y-109871664D01*
X170241547Y-109756455D01*
X170241544Y-109756452D01*
X170126335Y-109670206D01*
X170126328Y-109670202D01*
X169991482Y-109619908D01*
X169991483Y-109619908D01*
X169931883Y-109613501D01*
X169931881Y-109613500D01*
X169931873Y-109613500D01*
X169931864Y-109613500D01*
X167436129Y-109613500D01*
X167436123Y-109613501D01*
X167376516Y-109619908D01*
X167241671Y-109670202D01*
X167241664Y-109670206D01*
X167126455Y-109756452D01*
X167126452Y-109756455D01*
X167040206Y-109871664D01*
X167040202Y-109871671D01*
X166989908Y-110006517D01*
X166983501Y-110066116D01*
X166983501Y-110066123D01*
X166983500Y-110066135D01*
X166983500Y-112561870D01*
X159675722Y-112561870D01*
X159725994Y-112190747D01*
X159745339Y-111760000D01*
X159725994Y-111329253D01*
X159668115Y-110901974D01*
X159572168Y-110481603D01*
X159438926Y-110071525D01*
X159353504Y-109871671D01*
X159269466Y-109675052D01*
X159269462Y-109675044D01*
X159266859Y-109670206D01*
X159161276Y-109474000D01*
X174989540Y-109474000D01*
X175009326Y-109662256D01*
X175009327Y-109662259D01*
X175067818Y-109842277D01*
X175067821Y-109842284D01*
X175162467Y-110006216D01*
X175260000Y-110114537D01*
X175289129Y-110146888D01*
X175442265Y-110258148D01*
X175442270Y-110258151D01*
X175615192Y-110335142D01*
X175615197Y-110335144D01*
X175800354Y-110374500D01*
X175800355Y-110374500D01*
X175989644Y-110374500D01*
X175989646Y-110374500D01*
X176174803Y-110335144D01*
X176347730Y-110258151D01*
X176457117Y-110178676D01*
X176522920Y-110155198D01*
X176590974Y-110171023D01*
X176602871Y-110178668D01*
X176712266Y-110258148D01*
X176712270Y-110258151D01*
X176885192Y-110335142D01*
X176885197Y-110335144D01*
X177070354Y-110374500D01*
X177070355Y-110374500D01*
X177259644Y-110374500D01*
X177259646Y-110374500D01*
X177444803Y-110335144D01*
X177617730Y-110258151D01*
X177727117Y-110178676D01*
X177792920Y-110155198D01*
X177860974Y-110171023D01*
X177872871Y-110178668D01*
X177982266Y-110258148D01*
X177982270Y-110258151D01*
X178155192Y-110335142D01*
X178155197Y-110335144D01*
X178340354Y-110374500D01*
X178340355Y-110374500D01*
X178529644Y-110374500D01*
X178529646Y-110374500D01*
X178714803Y-110335144D01*
X178887730Y-110258151D01*
X179040871Y-110146888D01*
X179167533Y-110006216D01*
X179262179Y-109842284D01*
X179320674Y-109662256D01*
X179340460Y-109474000D01*
X179320674Y-109285744D01*
X179262179Y-109105716D01*
X179222428Y-109036866D01*
X179205956Y-108968966D01*
X179228809Y-108902940D01*
X179283730Y-108859749D01*
X179353284Y-108853108D01*
X179380250Y-108861587D01*
X179552197Y-108938144D01*
X179737354Y-108977500D01*
X179737355Y-108977500D01*
X179926644Y-108977500D01*
X179926646Y-108977500D01*
X180111803Y-108938144D01*
X180284730Y-108861151D01*
X180437871Y-108749888D01*
X180564533Y-108609216D01*
X180659179Y-108445284D01*
X180717674Y-108265256D01*
X180737460Y-108077000D01*
X180717674Y-107888744D01*
X180659179Y-107708716D01*
X180564533Y-107544784D01*
X180437871Y-107404112D01*
X180426432Y-107395801D01*
X180284734Y-107292851D01*
X180284729Y-107292848D01*
X180111807Y-107215857D01*
X180111802Y-107215855D01*
X179966001Y-107184865D01*
X179926646Y-107176500D01*
X179737354Y-107176500D01*
X179704897Y-107183398D01*
X179552197Y-107215855D01*
X179552192Y-107215857D01*
X179379270Y-107292848D01*
X179379265Y-107292851D01*
X179269885Y-107372321D01*
X179204079Y-107395801D01*
X179136025Y-107379975D01*
X179124115Y-107372321D01*
X179014734Y-107292851D01*
X179014729Y-107292848D01*
X178841807Y-107215857D01*
X178841802Y-107215855D01*
X178696001Y-107184865D01*
X178656646Y-107176500D01*
X178467354Y-107176500D01*
X178434897Y-107183398D01*
X178282197Y-107215855D01*
X178282192Y-107215857D01*
X178109270Y-107292848D01*
X178109265Y-107292851D01*
X177956135Y-107404106D01*
X177956125Y-107404115D01*
X177955642Y-107404652D01*
X177955285Y-107404871D01*
X177951305Y-107408456D01*
X177950648Y-107407727D01*
X177896152Y-107441295D01*
X177826295Y-107439958D01*
X177776274Y-107407811D01*
X177775695Y-107408456D01*
X177771751Y-107404904D01*
X177771358Y-107404652D01*
X177770874Y-107404115D01*
X177770864Y-107404106D01*
X177617734Y-107292851D01*
X177617729Y-107292848D01*
X177444807Y-107215857D01*
X177444802Y-107215855D01*
X177299001Y-107184865D01*
X177259646Y-107176500D01*
X177070354Y-107176500D01*
X177037897Y-107183398D01*
X176885197Y-107215855D01*
X176885192Y-107215857D01*
X176712270Y-107292848D01*
X176712265Y-107292851D01*
X176602885Y-107372321D01*
X176537079Y-107395801D01*
X176469025Y-107379975D01*
X176457115Y-107372321D01*
X176347734Y-107292851D01*
X176347729Y-107292848D01*
X176174807Y-107215857D01*
X176174802Y-107215855D01*
X176029001Y-107184865D01*
X175989646Y-107176500D01*
X175800354Y-107176500D01*
X175767897Y-107183398D01*
X175615197Y-107215855D01*
X175615192Y-107215857D01*
X175442270Y-107292848D01*
X175442265Y-107292851D01*
X175289129Y-107404111D01*
X175162466Y-107544785D01*
X175067821Y-107708715D01*
X175067818Y-107708722D01*
X175009327Y-107888740D01*
X175009326Y-107888744D01*
X174989540Y-108077000D01*
X175009326Y-108265256D01*
X175009327Y-108265259D01*
X175067818Y-108445277D01*
X175067821Y-108445284D01*
X175162467Y-108609216D01*
X175196500Y-108647013D01*
X175237481Y-108692528D01*
X175267711Y-108755520D01*
X175259085Y-108824855D01*
X175237481Y-108858472D01*
X175162466Y-108941785D01*
X175067821Y-109105715D01*
X175067818Y-109105722D01*
X175009327Y-109285740D01*
X175009326Y-109285744D01*
X174989540Y-109474000D01*
X159161276Y-109474000D01*
X159065137Y-109295345D01*
X159065132Y-109295337D01*
X158827605Y-108935498D01*
X158827595Y-108935485D01*
X158558774Y-108598392D01*
X158558762Y-108598379D01*
X158260794Y-108286730D01*
X158260793Y-108286729D01*
X158260790Y-108286726D01*
X157936080Y-108003035D01*
X157778772Y-107888744D01*
X157587256Y-107749599D01*
X157587251Y-107749596D01*
X157587247Y-107749593D01*
X157217100Y-107528440D01*
X157217095Y-107528437D01*
X157217093Y-107528436D01*
X156828627Y-107341360D01*
X156828613Y-107341354D01*
X156424944Y-107189855D01*
X156424919Y-107189847D01*
X156009295Y-107075142D01*
X155585043Y-106998151D01*
X155585040Y-106998150D01*
X155585036Y-106998150D01*
X155155591Y-106959500D01*
X154724409Y-106959500D01*
X154294964Y-106998150D01*
X154294960Y-106998150D01*
X154294956Y-106998151D01*
X153870704Y-107075142D01*
X153455080Y-107189847D01*
X153455055Y-107189855D01*
X153051386Y-107341354D01*
X153051372Y-107341360D01*
X152662906Y-107528436D01*
X152662904Y-107528437D01*
X152292743Y-107749599D01*
X151943931Y-108003026D01*
X151943914Y-108003039D01*
X151619210Y-108286726D01*
X151619205Y-108286730D01*
X151321237Y-108598379D01*
X151321225Y-108598392D01*
X151052404Y-108935485D01*
X151052394Y-108935498D01*
X150814867Y-109295337D01*
X150814867Y-109295338D01*
X150610537Y-109675044D01*
X150610533Y-109675052D01*
X150441076Y-110071519D01*
X150441073Y-110071527D01*
X150307830Y-110481608D01*
X150211885Y-110901972D01*
X150154006Y-111329253D01*
X150154005Y-111329262D01*
X150134661Y-111759996D01*
X150134661Y-111760003D01*
X149860553Y-111760003D01*
X149860500Y-111757438D01*
X149860500Y-106299000D01*
X187054540Y-106299000D01*
X187074326Y-106487256D01*
X187074327Y-106487259D01*
X187132818Y-106667277D01*
X187132821Y-106667284D01*
X187227467Y-106831216D01*
X187342975Y-106959500D01*
X187354129Y-106971888D01*
X187507265Y-107083148D01*
X187507270Y-107083151D01*
X187680192Y-107160142D01*
X187680197Y-107160144D01*
X187865354Y-107199500D01*
X187865355Y-107199500D01*
X188054644Y-107199500D01*
X188054646Y-107199500D01*
X188239803Y-107160144D01*
X188412730Y-107083151D01*
X188565871Y-106971888D01*
X188692533Y-106831216D01*
X188787179Y-106667284D01*
X188845674Y-106487256D01*
X188865460Y-106299000D01*
X188845674Y-106110744D01*
X188787179Y-105930716D01*
X188705647Y-105789499D01*
X188689175Y-105721600D01*
X188705648Y-105665500D01*
X188765857Y-105561214D01*
X188787179Y-105524284D01*
X188845674Y-105344256D01*
X188865460Y-105156000D01*
X188852112Y-105029000D01*
X190864540Y-105029000D01*
X190884326Y-105217256D01*
X190884327Y-105217259D01*
X190942818Y-105397277D01*
X190942821Y-105397284D01*
X191037467Y-105561216D01*
X191131365Y-105665500D01*
X191164129Y-105701888D01*
X191317265Y-105813148D01*
X191317270Y-105813151D01*
X191490192Y-105890142D01*
X191490197Y-105890144D01*
X191675354Y-105929500D01*
X191675355Y-105929500D01*
X191864644Y-105929500D01*
X191864646Y-105929500D01*
X192049803Y-105890144D01*
X192222730Y-105813151D01*
X192268614Y-105779813D01*
X192334421Y-105756334D01*
X192402475Y-105772159D01*
X192414386Y-105779814D01*
X192460271Y-105813152D01*
X192633192Y-105890142D01*
X192633197Y-105890144D01*
X192818354Y-105929500D01*
X192818355Y-105929500D01*
X193007644Y-105929500D01*
X193007646Y-105929500D01*
X193192803Y-105890144D01*
X193365730Y-105813151D01*
X193411614Y-105779813D01*
X193477421Y-105756334D01*
X193545475Y-105772159D01*
X193557386Y-105779814D01*
X193603271Y-105813152D01*
X193776192Y-105890142D01*
X193776197Y-105890144D01*
X193961354Y-105929500D01*
X193961355Y-105929500D01*
X194150644Y-105929500D01*
X194150646Y-105929500D01*
X194335803Y-105890144D01*
X194508730Y-105813151D01*
X194661871Y-105701888D01*
X194788533Y-105561216D01*
X194883179Y-105397284D01*
X194941674Y-105217256D01*
X194961460Y-105029000D01*
X194941674Y-104840744D01*
X194883179Y-104660716D01*
X194788533Y-104496784D01*
X194661871Y-104356112D01*
X194627500Y-104331140D01*
X194508734Y-104244851D01*
X194508729Y-104244848D01*
X194335807Y-104167857D01*
X194335802Y-104167855D01*
X194190001Y-104136865D01*
X194150646Y-104128500D01*
X193961354Y-104128500D01*
X193928897Y-104135398D01*
X193776197Y-104167855D01*
X193776192Y-104167857D01*
X193603270Y-104244848D01*
X193603266Y-104244851D01*
X193557384Y-104278186D01*
X193491578Y-104301665D01*
X193423524Y-104285839D01*
X193411616Y-104278186D01*
X193365733Y-104244851D01*
X193365729Y-104244848D01*
X193192807Y-104167857D01*
X193192802Y-104167855D01*
X193047001Y-104136865D01*
X193007646Y-104128500D01*
X192818354Y-104128500D01*
X192785897Y-104135398D01*
X192633197Y-104167855D01*
X192633192Y-104167857D01*
X192460270Y-104244848D01*
X192460266Y-104244851D01*
X192414384Y-104278186D01*
X192348578Y-104301665D01*
X192280524Y-104285839D01*
X192268616Y-104278186D01*
X192222733Y-104244851D01*
X192222729Y-104244848D01*
X192049807Y-104167857D01*
X192049802Y-104167855D01*
X191904001Y-104136865D01*
X191864646Y-104128500D01*
X191675354Y-104128500D01*
X191642897Y-104135398D01*
X191490197Y-104167855D01*
X191490192Y-104167857D01*
X191317270Y-104244848D01*
X191317265Y-104244851D01*
X191164129Y-104356111D01*
X191037466Y-104496785D01*
X190942821Y-104660715D01*
X190942818Y-104660722D01*
X190884327Y-104840740D01*
X190884326Y-104840744D01*
X190864540Y-105029000D01*
X188852112Y-105029000D01*
X188845674Y-104967744D01*
X188787179Y-104787716D01*
X188692533Y-104623784D01*
X188565871Y-104483112D01*
X188565870Y-104483111D01*
X188412734Y-104371851D01*
X188412729Y-104371848D01*
X188239807Y-104294857D01*
X188239802Y-104294855D01*
X188094001Y-104263865D01*
X188054646Y-104255500D01*
X187865354Y-104255500D01*
X187832897Y-104262398D01*
X187680197Y-104294855D01*
X187680192Y-104294857D01*
X187507270Y-104371848D01*
X187507265Y-104371851D01*
X187354129Y-104483111D01*
X187227466Y-104623785D01*
X187132821Y-104787715D01*
X187132818Y-104787722D01*
X187074327Y-104967740D01*
X187074326Y-104967744D01*
X187054540Y-105156000D01*
X187074326Y-105344256D01*
X187074327Y-105344259D01*
X187132818Y-105524277D01*
X187132820Y-105524281D01*
X187132821Y-105524284D01*
X187154143Y-105561214D01*
X187214352Y-105665501D01*
X187230824Y-105733401D01*
X187214352Y-105789499D01*
X187132820Y-105930718D01*
X187132818Y-105930722D01*
X187074327Y-106110740D01*
X187074326Y-106110744D01*
X187054540Y-106299000D01*
X149860500Y-106299000D01*
X149860500Y-102426645D01*
X153279700Y-102426645D01*
X153319055Y-102611802D01*
X153319057Y-102611807D01*
X153396048Y-102784729D01*
X153396051Y-102784734D01*
X153507311Y-102937870D01*
X153507312Y-102937871D01*
X153647984Y-103064533D01*
X153811916Y-103159179D01*
X153991944Y-103217674D01*
X154133008Y-103232500D01*
X154133012Y-103232500D01*
X154727388Y-103232500D01*
X154727392Y-103232500D01*
X154868456Y-103217674D01*
X155048484Y-103159179D01*
X155212416Y-103064533D01*
X155353088Y-102937871D01*
X155464351Y-102784730D01*
X155541344Y-102611803D01*
X155580700Y-102426646D01*
X155580700Y-102237354D01*
X155541344Y-102052197D01*
X155464351Y-101879270D01*
X155464348Y-101879265D01*
X155392144Y-101779885D01*
X155373274Y-101727000D01*
X179688540Y-101727000D01*
X179708326Y-101915256D01*
X179708327Y-101915259D01*
X179766818Y-102095277D01*
X179766821Y-102095284D01*
X179861467Y-102259216D01*
X179959000Y-102367537D01*
X179988129Y-102399888D01*
X180141265Y-102511148D01*
X180141270Y-102511151D01*
X180314192Y-102588142D01*
X180314197Y-102588144D01*
X180499354Y-102627500D01*
X180499355Y-102627500D01*
X180688644Y-102627500D01*
X180688646Y-102627500D01*
X180873803Y-102588144D01*
X181046730Y-102511151D01*
X181156117Y-102431676D01*
X181221920Y-102408198D01*
X181289974Y-102424023D01*
X181301871Y-102431668D01*
X181411266Y-102511148D01*
X181411270Y-102511151D01*
X181584192Y-102588142D01*
X181584197Y-102588144D01*
X181769354Y-102627500D01*
X181769355Y-102627500D01*
X181958644Y-102627500D01*
X181958646Y-102627500D01*
X182143803Y-102588144D01*
X182316730Y-102511151D01*
X182469871Y-102399888D01*
X182596533Y-102259216D01*
X182691179Y-102095284D01*
X182749674Y-101915256D01*
X182769460Y-101727000D01*
X182749674Y-101538744D01*
X182691179Y-101358716D01*
X182609647Y-101217499D01*
X182593175Y-101149600D01*
X182609648Y-101093500D01*
X182691179Y-100952284D01*
X182749674Y-100772256D01*
X182769460Y-100584000D01*
X182749674Y-100395744D01*
X182691179Y-100215716D01*
X182596533Y-100051784D01*
X182578693Y-100031971D01*
X182548464Y-99968981D01*
X182557089Y-99899646D01*
X182578694Y-99866028D01*
X182596533Y-99846216D01*
X182691179Y-99682284D01*
X182749674Y-99502256D01*
X182769460Y-99314000D01*
X182749674Y-99125744D01*
X182691179Y-98945716D01*
X182596533Y-98781784D01*
X182469871Y-98641112D01*
X182469870Y-98641111D01*
X182316734Y-98529851D01*
X182316729Y-98529848D01*
X182143807Y-98452857D01*
X182143802Y-98452855D01*
X181998001Y-98421865D01*
X181958646Y-98413500D01*
X181769354Y-98413500D01*
X181736897Y-98420398D01*
X181584197Y-98452855D01*
X181584192Y-98452857D01*
X181411270Y-98529848D01*
X181411265Y-98529851D01*
X181258129Y-98641111D01*
X181131466Y-98781785D01*
X181036821Y-98945715D01*
X181036818Y-98945722D01*
X180995985Y-99071395D01*
X180978326Y-99125744D01*
X180958540Y-99314000D01*
X180978326Y-99502256D01*
X180978327Y-99502259D01*
X181036818Y-99682277D01*
X181036821Y-99682284D01*
X181131467Y-99846216D01*
X181141806Y-99857699D01*
X181149307Y-99866030D01*
X181179535Y-99929022D01*
X181170909Y-99998357D01*
X181149307Y-100031970D01*
X181131466Y-100051785D01*
X181036821Y-100215715D01*
X181036818Y-100215722D01*
X180978327Y-100395740D01*
X180978326Y-100395744D01*
X180964228Y-100529885D01*
X180958540Y-100584000D01*
X180972937Y-100720984D01*
X180960367Y-100789714D01*
X180912635Y-100840737D01*
X180844894Y-100857855D01*
X180823835Y-100855235D01*
X180755626Y-100840737D01*
X180688646Y-100826500D01*
X180499354Y-100826500D01*
X180466897Y-100833398D01*
X180314197Y-100865855D01*
X180314192Y-100865857D01*
X180141270Y-100942848D01*
X180141265Y-100942851D01*
X179988129Y-101054111D01*
X179861466Y-101194785D01*
X179766821Y-101358715D01*
X179766818Y-101358722D01*
X179709630Y-101534730D01*
X179708326Y-101538744D01*
X179688540Y-101727000D01*
X155373274Y-101727000D01*
X155368664Y-101714079D01*
X155384489Y-101646025D01*
X155392144Y-101634115D01*
X155461435Y-101538744D01*
X155464351Y-101534730D01*
X155541344Y-101361803D01*
X155580700Y-101176646D01*
X155580700Y-100987354D01*
X155541344Y-100802197D01*
X155464351Y-100629270D01*
X155464348Y-100629265D01*
X155392144Y-100529885D01*
X155368664Y-100464079D01*
X155384489Y-100396025D01*
X155392144Y-100384115D01*
X155464348Y-100284734D01*
X155464347Y-100284734D01*
X155464351Y-100284730D01*
X155541344Y-100111803D01*
X155548954Y-100076000D01*
X174862540Y-100076000D01*
X174882326Y-100264256D01*
X174882327Y-100264259D01*
X174940818Y-100444277D01*
X174940821Y-100444284D01*
X175035467Y-100608216D01*
X175137004Y-100720984D01*
X175162129Y-100748888D01*
X175315265Y-100860148D01*
X175315270Y-100860151D01*
X175488192Y-100937142D01*
X175488197Y-100937144D01*
X175673354Y-100976500D01*
X175673355Y-100976500D01*
X175862644Y-100976500D01*
X175862646Y-100976500D01*
X176047803Y-100937144D01*
X176220730Y-100860151D01*
X176373871Y-100748888D01*
X176500533Y-100608216D01*
X176595179Y-100444284D01*
X176653674Y-100264256D01*
X176673460Y-100076000D01*
X176653674Y-99887744D01*
X176595179Y-99707716D01*
X176500533Y-99543784D01*
X176373871Y-99403112D01*
X176341058Y-99379272D01*
X176220734Y-99291851D01*
X176220729Y-99291848D01*
X176047807Y-99214857D01*
X176047802Y-99214855D01*
X175902001Y-99183865D01*
X175862646Y-99175500D01*
X175673354Y-99175500D01*
X175640897Y-99182398D01*
X175488197Y-99214855D01*
X175488192Y-99214857D01*
X175315270Y-99291848D01*
X175315265Y-99291851D01*
X175162129Y-99403111D01*
X175035466Y-99543785D01*
X174940821Y-99707715D01*
X174940818Y-99707722D01*
X174895820Y-99846214D01*
X174882326Y-99887744D01*
X174862540Y-100076000D01*
X155548954Y-100076000D01*
X155580700Y-99926646D01*
X155580700Y-99737354D01*
X155541344Y-99552197D01*
X155464351Y-99379270D01*
X155464348Y-99379265D01*
X155443277Y-99350263D01*
X155419797Y-99284456D01*
X155435623Y-99216403D01*
X155437478Y-99213228D01*
X155523219Y-99071395D01*
X155558866Y-98957000D01*
X154920947Y-98957000D01*
X154882629Y-98950931D01*
X154868459Y-98946327D01*
X154868456Y-98946326D01*
X154727392Y-98931500D01*
X154133008Y-98931500D01*
X153991944Y-98946326D01*
X153991941Y-98946326D01*
X153991940Y-98946327D01*
X153977771Y-98950931D01*
X153939453Y-98957000D01*
X153301533Y-98957000D01*
X153337180Y-99071395D01*
X153422921Y-99213228D01*
X153440757Y-99280783D01*
X153419239Y-99347257D01*
X153417125Y-99350260D01*
X153396048Y-99379272D01*
X153319057Y-99552192D01*
X153319055Y-99552197D01*
X153291407Y-99682277D01*
X153279700Y-99737354D01*
X153279700Y-99926646D01*
X153288065Y-99966001D01*
X153319055Y-100111802D01*
X153319057Y-100111807D01*
X153396048Y-100284728D01*
X153468256Y-100384115D01*
X153491735Y-100449922D01*
X153475909Y-100517975D01*
X153468256Y-100529885D01*
X153396048Y-100629271D01*
X153319057Y-100802192D01*
X153319055Y-100802197D01*
X153279700Y-100987354D01*
X153279700Y-101176645D01*
X153319055Y-101361802D01*
X153319057Y-101361807D01*
X153396048Y-101534728D01*
X153396049Y-101534730D01*
X153451437Y-101610966D01*
X153468256Y-101634115D01*
X153491735Y-101699922D01*
X153475909Y-101767975D01*
X153468256Y-101779885D01*
X153396048Y-101879271D01*
X153319057Y-102052192D01*
X153319055Y-102052197D01*
X153279700Y-102237354D01*
X153279700Y-102426645D01*
X149860500Y-102426645D01*
X149860500Y-98582000D01*
X154175302Y-98582000D01*
X154194705Y-98679545D01*
X154249960Y-98762240D01*
X154332655Y-98817495D01*
X154405576Y-98832000D01*
X154454824Y-98832000D01*
X154527745Y-98817495D01*
X154610440Y-98762240D01*
X154665695Y-98679545D01*
X154685098Y-98582000D01*
X154665695Y-98484455D01*
X154610440Y-98401760D01*
X154527745Y-98346505D01*
X154454824Y-98332000D01*
X154405576Y-98332000D01*
X154332655Y-98346505D01*
X154249960Y-98401760D01*
X154194705Y-98484455D01*
X154175302Y-98582000D01*
X149860500Y-98582000D01*
X149860500Y-98206999D01*
X153301533Y-98206999D01*
X153301534Y-98207000D01*
X154055200Y-98207000D01*
X154055200Y-97682000D01*
X154805200Y-97682000D01*
X154805200Y-98207000D01*
X155558866Y-98207000D01*
X155558866Y-98206999D01*
X155523219Y-98092604D01*
X155435272Y-97947122D01*
X155315077Y-97826927D01*
X155169595Y-97738980D01*
X155169596Y-97738980D01*
X155007305Y-97688409D01*
X155007306Y-97688409D01*
X154936772Y-97682000D01*
X154805200Y-97682000D01*
X154055200Y-97682000D01*
X153923617Y-97682000D01*
X153853097Y-97688408D01*
X153853092Y-97688409D01*
X153690803Y-97738981D01*
X153545322Y-97826927D01*
X153425127Y-97947122D01*
X153337180Y-98092604D01*
X153301533Y-98206999D01*
X149860500Y-98206999D01*
X149860500Y-95377000D01*
X169274540Y-95377000D01*
X169294326Y-95565256D01*
X169294327Y-95565259D01*
X169352818Y-95745277D01*
X169352821Y-95745284D01*
X169447467Y-95909216D01*
X169574129Y-96049888D01*
X169727265Y-96161148D01*
X169727270Y-96161151D01*
X169900192Y-96238142D01*
X169900197Y-96238144D01*
X170085354Y-96277500D01*
X170085355Y-96277500D01*
X170274644Y-96277500D01*
X170274646Y-96277500D01*
X170459803Y-96238144D01*
X170632730Y-96161151D01*
X170785871Y-96049888D01*
X170912533Y-95909216D01*
X171007179Y-95745284D01*
X171065674Y-95565256D01*
X171085460Y-95377000D01*
X171073823Y-95266284D01*
X171086392Y-95197558D01*
X171134124Y-95146534D01*
X171171359Y-95132037D01*
X171206554Y-95124557D01*
X171206558Y-95124555D01*
X171206559Y-95124555D01*
X171236684Y-95111142D01*
X171379481Y-95047564D01*
X171380792Y-95046611D01*
X171381680Y-95046294D01*
X171385114Y-95044312D01*
X171385476Y-95044939D01*
X171446593Y-95023123D01*
X171504125Y-95033641D01*
X171505269Y-95034150D01*
X171505270Y-95034151D01*
X171678197Y-95111144D01*
X171863354Y-95150500D01*
X171863355Y-95150500D01*
X172052644Y-95150500D01*
X172052646Y-95150500D01*
X172237803Y-95111144D01*
X172410730Y-95034151D01*
X172563871Y-94922888D01*
X172690533Y-94782216D01*
X172785179Y-94618284D01*
X172843674Y-94438256D01*
X172863460Y-94250000D01*
X172843674Y-94061744D01*
X172785179Y-93881716D01*
X172690533Y-93717784D01*
X172563871Y-93577112D01*
X172563870Y-93577111D01*
X172454157Y-93497400D01*
X173414740Y-93497400D01*
X173434526Y-93685656D01*
X173434527Y-93685659D01*
X173493018Y-93865677D01*
X173493021Y-93865684D01*
X173587667Y-94029616D01*
X173712499Y-94168256D01*
X173714329Y-94170288D01*
X173867465Y-94281548D01*
X173867470Y-94281551D01*
X174040392Y-94358542D01*
X174040397Y-94358544D01*
X174225554Y-94397900D01*
X174225555Y-94397900D01*
X174414844Y-94397900D01*
X174414846Y-94397900D01*
X174600003Y-94358544D01*
X174772930Y-94281551D01*
X174926071Y-94170288D01*
X175052733Y-94029616D01*
X175147379Y-93865684D01*
X175205874Y-93685656D01*
X175225660Y-93497400D01*
X175205874Y-93309144D01*
X175147379Y-93129116D01*
X175052733Y-92965184D01*
X174926071Y-92824512D01*
X174873971Y-92786659D01*
X174772934Y-92713251D01*
X174772929Y-92713248D01*
X174600007Y-92636257D01*
X174600002Y-92636255D01*
X174454201Y-92605265D01*
X174414846Y-92596900D01*
X174225554Y-92596900D01*
X174193097Y-92603798D01*
X174040397Y-92636255D01*
X174040392Y-92636257D01*
X173867470Y-92713248D01*
X173867465Y-92713251D01*
X173714329Y-92824511D01*
X173587666Y-92965185D01*
X173493021Y-93129115D01*
X173493018Y-93129122D01*
X173435186Y-93307112D01*
X173434526Y-93309144D01*
X173414740Y-93497400D01*
X172454157Y-93497400D01*
X172410734Y-93465851D01*
X172410729Y-93465848D01*
X172237807Y-93388857D01*
X172237802Y-93388855D01*
X172092001Y-93357865D01*
X172052646Y-93349500D01*
X171863354Y-93349500D01*
X171830897Y-93356398D01*
X171678197Y-93388855D01*
X171678192Y-93388857D01*
X171505270Y-93465848D01*
X171505260Y-93465854D01*
X171503937Y-93466816D01*
X171503042Y-93467135D01*
X171499635Y-93469102D01*
X171499275Y-93468478D01*
X171438129Y-93490290D01*
X171380624Y-93479771D01*
X171206558Y-93402270D01*
X171206553Y-93402268D01*
X171060752Y-93371278D01*
X171021397Y-93362913D01*
X170832105Y-93362913D01*
X170799648Y-93369811D01*
X170646948Y-93402268D01*
X170646943Y-93402270D01*
X170474021Y-93479261D01*
X170474016Y-93479264D01*
X170320880Y-93590524D01*
X170194217Y-93731198D01*
X170099572Y-93895128D01*
X170099569Y-93895135D01*
X170055874Y-94029616D01*
X170041077Y-94075157D01*
X170021291Y-94263413D01*
X170031289Y-94358544D01*
X170032927Y-94374124D01*
X170020357Y-94442854D01*
X169972625Y-94493877D01*
X169935390Y-94508375D01*
X169908216Y-94514151D01*
X169900197Y-94515856D01*
X169900196Y-94515856D01*
X169900193Y-94515857D01*
X169900192Y-94515857D01*
X169727270Y-94592848D01*
X169727265Y-94592851D01*
X169574129Y-94704111D01*
X169447466Y-94844785D01*
X169352821Y-95008715D01*
X169352818Y-95008722D01*
X169294327Y-95188740D01*
X169294326Y-95188744D01*
X169274540Y-95377000D01*
X149860500Y-95377000D01*
X149860500Y-92499845D01*
X153281500Y-92499845D01*
X153320855Y-92685002D01*
X153320857Y-92685007D01*
X153397848Y-92857929D01*
X153397851Y-92857934D01*
X153475773Y-92965184D01*
X153509112Y-93011071D01*
X153649784Y-93137733D01*
X153813716Y-93232379D01*
X153993744Y-93290874D01*
X154134808Y-93305700D01*
X154134812Y-93305700D01*
X154729188Y-93305700D01*
X154729192Y-93305700D01*
X154870256Y-93290874D01*
X155050284Y-93232379D01*
X155214216Y-93137733D01*
X155266118Y-93091000D01*
X160257540Y-93091000D01*
X160277326Y-93279256D01*
X160277327Y-93279259D01*
X160335818Y-93459277D01*
X160335821Y-93459284D01*
X160430467Y-93623216D01*
X160515617Y-93717784D01*
X160557129Y-93763888D01*
X160710265Y-93875148D01*
X160710270Y-93875151D01*
X160883192Y-93952142D01*
X160883197Y-93952144D01*
X161068354Y-93991500D01*
X161068355Y-93991500D01*
X161257644Y-93991500D01*
X161257646Y-93991500D01*
X161311750Y-93980000D01*
X164575540Y-93980000D01*
X164595326Y-94168256D01*
X164595327Y-94168259D01*
X164653818Y-94348277D01*
X164653821Y-94348284D01*
X164748467Y-94512216D01*
X164875129Y-94652888D01*
X165028265Y-94764148D01*
X165028270Y-94764151D01*
X165201192Y-94841142D01*
X165201197Y-94841144D01*
X165386354Y-94880500D01*
X165386355Y-94880500D01*
X165575644Y-94880500D01*
X165575646Y-94880500D01*
X165760803Y-94841144D01*
X165933730Y-94764151D01*
X166086871Y-94652888D01*
X166213533Y-94512216D01*
X166308179Y-94348284D01*
X166366674Y-94168256D01*
X166386460Y-93980000D01*
X166366674Y-93791744D01*
X166308179Y-93611716D01*
X166213533Y-93447784D01*
X166086871Y-93307112D01*
X166084928Y-93305700D01*
X165933734Y-93195851D01*
X165933729Y-93195848D01*
X165760807Y-93118857D01*
X165760802Y-93118855D01*
X165615001Y-93087865D01*
X165575646Y-93079500D01*
X165386354Y-93079500D01*
X165353897Y-93086398D01*
X165201197Y-93118855D01*
X165201192Y-93118857D01*
X165028270Y-93195848D01*
X165028265Y-93195851D01*
X164875129Y-93307111D01*
X164748466Y-93447785D01*
X164653821Y-93611715D01*
X164653818Y-93611722D01*
X164604377Y-93763888D01*
X164595326Y-93791744D01*
X164575540Y-93980000D01*
X161311750Y-93980000D01*
X161442803Y-93952144D01*
X161615730Y-93875151D01*
X161768871Y-93763888D01*
X161895533Y-93623216D01*
X161990179Y-93459284D01*
X162048674Y-93279256D01*
X162068460Y-93091000D01*
X162048674Y-92902744D01*
X161990179Y-92722716D01*
X161895533Y-92558784D01*
X161768871Y-92418112D01*
X161757904Y-92410144D01*
X161646219Y-92329000D01*
X178926540Y-92329000D01*
X178946326Y-92517256D01*
X178946327Y-92517259D01*
X179004818Y-92697277D01*
X179004821Y-92697284D01*
X179099467Y-92861216D01*
X179194425Y-92966677D01*
X179226129Y-93001888D01*
X179379265Y-93113148D01*
X179379270Y-93113151D01*
X179552192Y-93190142D01*
X179552197Y-93190144D01*
X179737354Y-93229500D01*
X179737355Y-93229500D01*
X179926644Y-93229500D01*
X179926646Y-93229500D01*
X180111803Y-93190144D01*
X180284730Y-93113151D01*
X180437871Y-93001888D01*
X180564533Y-92861216D01*
X180659179Y-92697284D01*
X180691309Y-92598400D01*
X181339540Y-92598400D01*
X181359326Y-92786656D01*
X181359327Y-92786659D01*
X181417818Y-92966677D01*
X181417821Y-92966684D01*
X181512467Y-93130616D01*
X181571205Y-93195851D01*
X181639129Y-93271288D01*
X181792265Y-93382548D01*
X181792270Y-93382551D01*
X181965192Y-93459542D01*
X181965197Y-93459544D01*
X182150354Y-93498900D01*
X182150355Y-93498900D01*
X182339644Y-93498900D01*
X182339646Y-93498900D01*
X182524803Y-93459544D01*
X182697730Y-93382551D01*
X182850871Y-93271288D01*
X182977533Y-93130616D01*
X183072179Y-92966684D01*
X183130674Y-92786656D01*
X183150460Y-92598400D01*
X183130674Y-92410144D01*
X183072179Y-92230116D01*
X182977533Y-92066184D01*
X182850871Y-91925512D01*
X182850870Y-91925511D01*
X182697734Y-91814251D01*
X182697729Y-91814248D01*
X182524807Y-91737257D01*
X182524802Y-91737255D01*
X182379001Y-91706265D01*
X182339646Y-91697900D01*
X182150354Y-91697900D01*
X182117897Y-91704798D01*
X181965197Y-91737255D01*
X181965192Y-91737257D01*
X181792270Y-91814248D01*
X181792265Y-91814251D01*
X181639129Y-91925511D01*
X181512466Y-92066185D01*
X181417821Y-92230115D01*
X181417818Y-92230122D01*
X181385691Y-92329000D01*
X181359326Y-92410144D01*
X181339540Y-92598400D01*
X180691309Y-92598400D01*
X180717674Y-92517256D01*
X180737460Y-92329000D01*
X180717674Y-92140744D01*
X180659179Y-91960716D01*
X180564533Y-91796784D01*
X180437871Y-91656112D01*
X180415442Y-91639816D01*
X180372778Y-91584489D01*
X180366799Y-91514876D01*
X180399404Y-91453080D01*
X180415436Y-91439187D01*
X180437871Y-91422888D01*
X180564533Y-91282216D01*
X180659179Y-91118284D01*
X180717674Y-90938256D01*
X180737460Y-90750000D01*
X180717674Y-90561744D01*
X180672918Y-90424000D01*
X190737540Y-90424000D01*
X190757326Y-90612256D01*
X190757327Y-90612259D01*
X190815818Y-90792277D01*
X190815821Y-90792284D01*
X190910467Y-90956216D01*
X191004414Y-91060554D01*
X191037129Y-91096888D01*
X191190265Y-91208148D01*
X191190270Y-91208151D01*
X191363192Y-91285142D01*
X191363197Y-91285144D01*
X191548354Y-91324500D01*
X191548355Y-91324500D01*
X191737644Y-91324500D01*
X191737646Y-91324500D01*
X191922803Y-91285144D01*
X192095730Y-91208151D01*
X192095734Y-91208148D01*
X192100563Y-91205998D01*
X192169813Y-91196712D01*
X192201437Y-91205998D01*
X192206265Y-91208148D01*
X192206270Y-91208151D01*
X192379197Y-91285144D01*
X192564354Y-91324500D01*
X192564355Y-91324500D01*
X192753644Y-91324500D01*
X192753646Y-91324500D01*
X192938803Y-91285144D01*
X193111730Y-91208151D01*
X193111734Y-91208148D01*
X193116563Y-91205998D01*
X193185813Y-91196712D01*
X193217437Y-91205998D01*
X193222265Y-91208148D01*
X193222270Y-91208151D01*
X193395197Y-91285144D01*
X193580354Y-91324500D01*
X193580355Y-91324500D01*
X193769644Y-91324500D01*
X193769646Y-91324500D01*
X193954803Y-91285144D01*
X194127730Y-91208151D01*
X194280871Y-91096888D01*
X194407533Y-90956216D01*
X194502179Y-90792284D01*
X194560674Y-90612256D01*
X194580460Y-90424000D01*
X194560674Y-90235744D01*
X194502179Y-90055716D01*
X194407533Y-89891784D01*
X194280871Y-89751112D01*
X194280870Y-89751111D01*
X194127734Y-89639851D01*
X194127729Y-89639848D01*
X193954807Y-89562857D01*
X193954802Y-89562855D01*
X193809001Y-89531865D01*
X193769646Y-89523500D01*
X193580354Y-89523500D01*
X193547897Y-89530398D01*
X193395197Y-89562855D01*
X193395192Y-89562857D01*
X193217436Y-89642001D01*
X193148186Y-89651286D01*
X193116564Y-89642001D01*
X192938807Y-89562857D01*
X192938802Y-89562855D01*
X192793001Y-89531865D01*
X192753646Y-89523500D01*
X192564354Y-89523500D01*
X192531897Y-89530398D01*
X192379197Y-89562855D01*
X192379192Y-89562857D01*
X192201436Y-89642001D01*
X192132186Y-89651286D01*
X192100564Y-89642001D01*
X191922807Y-89562857D01*
X191922802Y-89562855D01*
X191777001Y-89531865D01*
X191737646Y-89523500D01*
X191548354Y-89523500D01*
X191515897Y-89530398D01*
X191363197Y-89562855D01*
X191363192Y-89562857D01*
X191190270Y-89639848D01*
X191190265Y-89639851D01*
X191037129Y-89751111D01*
X190910466Y-89891785D01*
X190815821Y-90055715D01*
X190815818Y-90055722D01*
X190763161Y-90217785D01*
X190757326Y-90235744D01*
X190737540Y-90424000D01*
X180672918Y-90424000D01*
X180659179Y-90381716D01*
X180564533Y-90217784D01*
X180437871Y-90077112D01*
X180429262Y-90070857D01*
X180284734Y-89965851D01*
X180284729Y-89965848D01*
X180111807Y-89888857D01*
X180111802Y-89888855D01*
X179966001Y-89857865D01*
X179926646Y-89849500D01*
X179737354Y-89849500D01*
X179704897Y-89856398D01*
X179552197Y-89888855D01*
X179552192Y-89888857D01*
X179379270Y-89965848D01*
X179379265Y-89965851D01*
X179226129Y-90077111D01*
X179099466Y-90217785D01*
X179004821Y-90381715D01*
X179004818Y-90381722D01*
X178958875Y-90523122D01*
X178946326Y-90561744D01*
X178926540Y-90750000D01*
X178946326Y-90938256D01*
X178946327Y-90938259D01*
X179004818Y-91118277D01*
X179004821Y-91118284D01*
X179099467Y-91282216D01*
X179115736Y-91300284D01*
X179226129Y-91422888D01*
X179226131Y-91422890D01*
X179248556Y-91439183D01*
X179291222Y-91494513D01*
X179297200Y-91564126D01*
X179264594Y-91625921D01*
X179248556Y-91639817D01*
X179226131Y-91656109D01*
X179226129Y-91656111D01*
X179099466Y-91796785D01*
X179004821Y-91960715D01*
X179004818Y-91960722D01*
X178946327Y-92140740D01*
X178946326Y-92140744D01*
X178926540Y-92329000D01*
X161646219Y-92329000D01*
X161615734Y-92306851D01*
X161615729Y-92306848D01*
X161442807Y-92229857D01*
X161442802Y-92229855D01*
X161297001Y-92198865D01*
X161257646Y-92190500D01*
X161068354Y-92190500D01*
X161035897Y-92197398D01*
X160883197Y-92229855D01*
X160883192Y-92229857D01*
X160710270Y-92306848D01*
X160710265Y-92306851D01*
X160557129Y-92418111D01*
X160430466Y-92558785D01*
X160335821Y-92722715D01*
X160335818Y-92722722D01*
X160290820Y-92861214D01*
X160277326Y-92902744D01*
X160257540Y-93091000D01*
X155266118Y-93091000D01*
X155354888Y-93011071D01*
X155466151Y-92857930D01*
X155543144Y-92685003D01*
X155582500Y-92499846D01*
X155582500Y-92310554D01*
X155543144Y-92125397D01*
X155516780Y-92066184D01*
X155466151Y-91952470D01*
X155466148Y-91952465D01*
X155393944Y-91853085D01*
X155370464Y-91787279D01*
X155386289Y-91719225D01*
X155393944Y-91707315D01*
X155466148Y-91607934D01*
X155466147Y-91607934D01*
X155466151Y-91607930D01*
X155543144Y-91435003D01*
X155582500Y-91249846D01*
X155582500Y-91060554D01*
X155555175Y-90932000D01*
X164829540Y-90932000D01*
X164849326Y-91120256D01*
X164849327Y-91120259D01*
X164907818Y-91300277D01*
X164907821Y-91300284D01*
X165002467Y-91464216D01*
X165092427Y-91564126D01*
X165129129Y-91604888D01*
X165282265Y-91716148D01*
X165282270Y-91716151D01*
X165455192Y-91793142D01*
X165455197Y-91793144D01*
X165640354Y-91832500D01*
X165640355Y-91832500D01*
X165829644Y-91832500D01*
X165829646Y-91832500D01*
X166014803Y-91793144D01*
X166187730Y-91716151D01*
X166340871Y-91604888D01*
X166467533Y-91464216D01*
X166562179Y-91300284D01*
X166620674Y-91120256D01*
X166640460Y-90932000D01*
X166620674Y-90743744D01*
X166562179Y-90563716D01*
X166467533Y-90399784D01*
X166340871Y-90259112D01*
X166308708Y-90235744D01*
X166187734Y-90147851D01*
X166187729Y-90147848D01*
X166014807Y-90070857D01*
X166014802Y-90070855D01*
X165869001Y-90039865D01*
X165829646Y-90031500D01*
X165640354Y-90031500D01*
X165607897Y-90038398D01*
X165455197Y-90070855D01*
X165455192Y-90070857D01*
X165282270Y-90147848D01*
X165282265Y-90147851D01*
X165129129Y-90259111D01*
X165002466Y-90399785D01*
X164907821Y-90563715D01*
X164907818Y-90563722D01*
X164862736Y-90702471D01*
X164849326Y-90743744D01*
X164829540Y-90932000D01*
X155555175Y-90932000D01*
X155543144Y-90875397D01*
X155466151Y-90702470D01*
X155466148Y-90702465D01*
X155393944Y-90603085D01*
X155370464Y-90537279D01*
X155386289Y-90469225D01*
X155393944Y-90457315D01*
X155448865Y-90381722D01*
X155466151Y-90357930D01*
X155543144Y-90185003D01*
X155582500Y-89999846D01*
X155582500Y-89810554D01*
X155543144Y-89625397D01*
X155466151Y-89452470D01*
X155466148Y-89452465D01*
X155393944Y-89353085D01*
X155370464Y-89287279D01*
X155386289Y-89219225D01*
X155393944Y-89207315D01*
X155466148Y-89107934D01*
X155466147Y-89107934D01*
X155466151Y-89107930D01*
X155543144Y-88935003D01*
X155582500Y-88749846D01*
X155582500Y-88560554D01*
X155543144Y-88375397D01*
X155466151Y-88202470D01*
X155466148Y-88202465D01*
X155393944Y-88103085D01*
X155370464Y-88037279D01*
X155386289Y-87969225D01*
X155393944Y-87957315D01*
X155466148Y-87857934D01*
X155466147Y-87857934D01*
X155466151Y-87857930D01*
X155543144Y-87685003D01*
X155582500Y-87499846D01*
X155582500Y-87310554D01*
X155543144Y-87125397D01*
X155466151Y-86952470D01*
X155466148Y-86952465D01*
X155445077Y-86923463D01*
X155421597Y-86857656D01*
X155437423Y-86789603D01*
X155439278Y-86786428D01*
X155525019Y-86644595D01*
X155560666Y-86530200D01*
X154922747Y-86530200D01*
X154884429Y-86524131D01*
X154870259Y-86519527D01*
X154870256Y-86519526D01*
X154729192Y-86504700D01*
X154134808Y-86504700D01*
X153993744Y-86519526D01*
X153993741Y-86519526D01*
X153993740Y-86519527D01*
X153979571Y-86524131D01*
X153941253Y-86530200D01*
X153303333Y-86530200D01*
X153338980Y-86644595D01*
X153424721Y-86786428D01*
X153442557Y-86853983D01*
X153421039Y-86920457D01*
X153418925Y-86923460D01*
X153397848Y-86952472D01*
X153320857Y-87125392D01*
X153320855Y-87125397D01*
X153281500Y-87310554D01*
X153281500Y-87499845D01*
X153320855Y-87685002D01*
X153320857Y-87685007D01*
X153397848Y-87857928D01*
X153470056Y-87957315D01*
X153493535Y-88023122D01*
X153477709Y-88091175D01*
X153470056Y-88103085D01*
X153397848Y-88202471D01*
X153320857Y-88375392D01*
X153320855Y-88375397D01*
X153281500Y-88560554D01*
X153281500Y-88749845D01*
X153320855Y-88935002D01*
X153320857Y-88935007D01*
X153397848Y-89107928D01*
X153470056Y-89207315D01*
X153493535Y-89273122D01*
X153477709Y-89341175D01*
X153470056Y-89353085D01*
X153397848Y-89452471D01*
X153320857Y-89625392D01*
X153320855Y-89625397D01*
X153281500Y-89810554D01*
X153281500Y-89999845D01*
X153320855Y-90185002D01*
X153320857Y-90185007D01*
X153397848Y-90357928D01*
X153397849Y-90357930D01*
X153453237Y-90434166D01*
X153470056Y-90457315D01*
X153493535Y-90523122D01*
X153477709Y-90591175D01*
X153470056Y-90603085D01*
X153397848Y-90702471D01*
X153320857Y-90875392D01*
X153320855Y-90875397D01*
X153281500Y-91060554D01*
X153281500Y-91249845D01*
X153320855Y-91435002D01*
X153320857Y-91435007D01*
X153397848Y-91607928D01*
X153397849Y-91607930D01*
X153432855Y-91656112D01*
X153470056Y-91707315D01*
X153493535Y-91773122D01*
X153477709Y-91841175D01*
X153470056Y-91853085D01*
X153397848Y-91952471D01*
X153320857Y-92125392D01*
X153320855Y-92125397D01*
X153281500Y-92310554D01*
X153281500Y-92499845D01*
X149860500Y-92499845D01*
X149860500Y-86155200D01*
X154177102Y-86155200D01*
X154196505Y-86252745D01*
X154251760Y-86335440D01*
X154334455Y-86390695D01*
X154407376Y-86405200D01*
X154456624Y-86405200D01*
X154529545Y-86390695D01*
X154612240Y-86335440D01*
X154667495Y-86252745D01*
X154686898Y-86155200D01*
X154667495Y-86057655D01*
X154612240Y-85974960D01*
X154529545Y-85919705D01*
X154456624Y-85905200D01*
X154407376Y-85905200D01*
X154334455Y-85919705D01*
X154251760Y-85974960D01*
X154196505Y-86057655D01*
X154177102Y-86155200D01*
X149860500Y-86155200D01*
X149860500Y-85780199D01*
X153303333Y-85780199D01*
X153303334Y-85780200D01*
X154057000Y-85780200D01*
X154057000Y-85255200D01*
X154807000Y-85255200D01*
X154807000Y-85780200D01*
X155560666Y-85780200D01*
X155560666Y-85780199D01*
X155525019Y-85665804D01*
X155437072Y-85520322D01*
X155316877Y-85400127D01*
X155171395Y-85312180D01*
X155171396Y-85312180D01*
X155009105Y-85261609D01*
X155009106Y-85261609D01*
X154938572Y-85255200D01*
X154807000Y-85255200D01*
X154057000Y-85255200D01*
X153925417Y-85255200D01*
X153854897Y-85261608D01*
X153854892Y-85261609D01*
X153692603Y-85312181D01*
X153547122Y-85400127D01*
X153426927Y-85520322D01*
X153338980Y-85665804D01*
X153303333Y-85780199D01*
X149860500Y-85780199D01*
X149860500Y-84201000D01*
X164194540Y-84201000D01*
X164214326Y-84389256D01*
X164214327Y-84389259D01*
X164272818Y-84569277D01*
X164272821Y-84569284D01*
X164367467Y-84733216D01*
X164400821Y-84770259D01*
X164494129Y-84873888D01*
X164647265Y-84985148D01*
X164647270Y-84985151D01*
X164820192Y-85062142D01*
X164820197Y-85062144D01*
X165005354Y-85101500D01*
X165005355Y-85101500D01*
X165194644Y-85101500D01*
X165194646Y-85101500D01*
X165379803Y-85062144D01*
X165552730Y-84985151D01*
X165705871Y-84873888D01*
X165832533Y-84733216D01*
X165919837Y-84582000D01*
X169401540Y-84582000D01*
X169421326Y-84770256D01*
X169421327Y-84770259D01*
X169479818Y-84950277D01*
X169479821Y-84950284D01*
X169574467Y-85114216D01*
X169701129Y-85254888D01*
X169854265Y-85366148D01*
X169854270Y-85366151D01*
X170027192Y-85443142D01*
X170027197Y-85443144D01*
X170212354Y-85482500D01*
X170212355Y-85482500D01*
X170401644Y-85482500D01*
X170401646Y-85482500D01*
X170586803Y-85443144D01*
X170759730Y-85366151D01*
X170912871Y-85254888D01*
X171039533Y-85114216D01*
X171134179Y-84950284D01*
X171192674Y-84770256D01*
X171212460Y-84582000D01*
X171192674Y-84393744D01*
X171134179Y-84213716D01*
X171039533Y-84049784D01*
X170912871Y-83909112D01*
X170912870Y-83909111D01*
X170759734Y-83797851D01*
X170759729Y-83797848D01*
X170586807Y-83720857D01*
X170586802Y-83720855D01*
X170441001Y-83689865D01*
X170401646Y-83681500D01*
X170212354Y-83681500D01*
X170179897Y-83688398D01*
X170027197Y-83720855D01*
X170027192Y-83720857D01*
X169854270Y-83797848D01*
X169854265Y-83797851D01*
X169701129Y-83909111D01*
X169574466Y-84049785D01*
X169479821Y-84213715D01*
X169479818Y-84213722D01*
X169422784Y-84389256D01*
X169421326Y-84393744D01*
X169401540Y-84582000D01*
X165919837Y-84582000D01*
X165927179Y-84569284D01*
X165985674Y-84389256D01*
X166005460Y-84201000D01*
X165985674Y-84012744D01*
X165927179Y-83832716D01*
X165832533Y-83668784D01*
X165705871Y-83528112D01*
X165705870Y-83528111D01*
X165552734Y-83416851D01*
X165552729Y-83416848D01*
X165379807Y-83339857D01*
X165379802Y-83339855D01*
X165234001Y-83308865D01*
X165194646Y-83300500D01*
X165005354Y-83300500D01*
X164972897Y-83307398D01*
X164820197Y-83339855D01*
X164820192Y-83339857D01*
X164647270Y-83416848D01*
X164647265Y-83416851D01*
X164494129Y-83528111D01*
X164367466Y-83668785D01*
X164272821Y-83832715D01*
X164272818Y-83832722D01*
X164247998Y-83909112D01*
X164214326Y-84012744D01*
X164194540Y-84201000D01*
X149860500Y-84201000D01*
X149860500Y-78742560D01*
X149860553Y-78740003D01*
X150134661Y-78740003D01*
X150154005Y-79170737D01*
X150154005Y-79170745D01*
X150154006Y-79170747D01*
X150160650Y-79219797D01*
X150211885Y-79598027D01*
X150307830Y-80018391D01*
X150441073Y-80428472D01*
X150441076Y-80428480D01*
X150610533Y-80824947D01*
X150610537Y-80824955D01*
X150610539Y-80824958D01*
X150814863Y-81204655D01*
X150814867Y-81204661D01*
X150814867Y-81204662D01*
X151052394Y-81564501D01*
X151052404Y-81564514D01*
X151321225Y-81901607D01*
X151321235Y-81901618D01*
X151321236Y-81901619D01*
X151619210Y-82213274D01*
X151943920Y-82496965D01*
X151943930Y-82496972D01*
X151943931Y-82496973D01*
X152206112Y-82687459D01*
X152292753Y-82750407D01*
X152662900Y-82971560D01*
X152662903Y-82971561D01*
X152662904Y-82971562D01*
X152662906Y-82971563D01*
X153051372Y-83158639D01*
X153051386Y-83158645D01*
X153455055Y-83310144D01*
X153455059Y-83310145D01*
X153455069Y-83310149D01*
X153870711Y-83424859D01*
X154294964Y-83501850D01*
X154724409Y-83540500D01*
X154724416Y-83540500D01*
X155155584Y-83540500D01*
X155155591Y-83540500D01*
X155585036Y-83501850D01*
X156009289Y-83424859D01*
X156424931Y-83310149D01*
X156828619Y-83158643D01*
X157217100Y-82971560D01*
X157587247Y-82750407D01*
X157933004Y-82499200D01*
X177199340Y-82499200D01*
X177219126Y-82687456D01*
X177219127Y-82687459D01*
X177277618Y-82867477D01*
X177277621Y-82867484D01*
X177372267Y-83031416D01*
X177486823Y-83158643D01*
X177498929Y-83172088D01*
X177652065Y-83283348D01*
X177652070Y-83283351D01*
X177824992Y-83360342D01*
X177824997Y-83360344D01*
X178010154Y-83399700D01*
X178010155Y-83399700D01*
X178199444Y-83399700D01*
X178199446Y-83399700D01*
X178384603Y-83360344D01*
X178557530Y-83283351D01*
X178710671Y-83172088D01*
X178837333Y-83031416D01*
X178931979Y-82867484D01*
X178990474Y-82687456D01*
X179010260Y-82499200D01*
X178990474Y-82310944D01*
X178931979Y-82130916D01*
X178837333Y-81966984D01*
X178710671Y-81826312D01*
X178710670Y-81826311D01*
X178557534Y-81715051D01*
X178557529Y-81715048D01*
X178384607Y-81638057D01*
X178384602Y-81638055D01*
X178238801Y-81607065D01*
X178199446Y-81598700D01*
X178010154Y-81598700D01*
X177977697Y-81605598D01*
X177824997Y-81638055D01*
X177824992Y-81638057D01*
X177652070Y-81715048D01*
X177652065Y-81715051D01*
X177498929Y-81826311D01*
X177372266Y-81966985D01*
X177277621Y-82130915D01*
X177277618Y-82130922D01*
X177219127Y-82310940D01*
X177219126Y-82310944D01*
X177199340Y-82499200D01*
X157933004Y-82499200D01*
X157936080Y-82496965D01*
X158260790Y-82213274D01*
X158558764Y-81901619D01*
X158827601Y-81564507D01*
X159065137Y-81204655D01*
X159269461Y-80824958D01*
X159438926Y-80428475D01*
X159572168Y-80018397D01*
X159668115Y-79598026D01*
X159715529Y-79248000D01*
X161908540Y-79248000D01*
X161928326Y-79436256D01*
X161928327Y-79436259D01*
X161986818Y-79616277D01*
X161986821Y-79616284D01*
X162081467Y-79780216D01*
X162208129Y-79920888D01*
X162361265Y-80032148D01*
X162361270Y-80032151D01*
X162534192Y-80109142D01*
X162534197Y-80109144D01*
X162719354Y-80148500D01*
X162719355Y-80148500D01*
X162908644Y-80148500D01*
X162908646Y-80148500D01*
X163093803Y-80109144D01*
X163266730Y-80032151D01*
X163419871Y-79920888D01*
X163546533Y-79780216D01*
X163641179Y-79616284D01*
X163699674Y-79436256D01*
X163719460Y-79248000D01*
X163699674Y-79059744D01*
X163641179Y-78879716D01*
X163546533Y-78715784D01*
X163419871Y-78575112D01*
X163407525Y-78566142D01*
X163354190Y-78527392D01*
X172840100Y-78527392D01*
X172854926Y-78668456D01*
X172854927Y-78668459D01*
X172913418Y-78848477D01*
X172913421Y-78848484D01*
X173008067Y-79012416D01*
X173100504Y-79115077D01*
X173134729Y-79153088D01*
X173287865Y-79264348D01*
X173287870Y-79264351D01*
X173460792Y-79341342D01*
X173460797Y-79341344D01*
X173645954Y-79380700D01*
X173645955Y-79380700D01*
X173835244Y-79380700D01*
X173835246Y-79380700D01*
X174020403Y-79341344D01*
X174193330Y-79264351D01*
X174292715Y-79192144D01*
X174358521Y-79168664D01*
X174426575Y-79184489D01*
X174438485Y-79192144D01*
X174537865Y-79264348D01*
X174537870Y-79264351D01*
X174710792Y-79341342D01*
X174710797Y-79341344D01*
X174895954Y-79380700D01*
X174895955Y-79380700D01*
X175085244Y-79380700D01*
X175085246Y-79380700D01*
X175270403Y-79341344D01*
X175443330Y-79264351D01*
X175542715Y-79192144D01*
X175608521Y-79168664D01*
X175676575Y-79184489D01*
X175688485Y-79192144D01*
X175787865Y-79264348D01*
X175787870Y-79264351D01*
X175960792Y-79341342D01*
X175960797Y-79341344D01*
X176145954Y-79380700D01*
X176145955Y-79380700D01*
X176335244Y-79380700D01*
X176335246Y-79380700D01*
X176520403Y-79341344D01*
X176693330Y-79264351D01*
X176722335Y-79243278D01*
X176788141Y-79219797D01*
X176856195Y-79235622D01*
X176859371Y-79237478D01*
X177001204Y-79323219D01*
X177001203Y-79323219D01*
X177115599Y-79358866D01*
X177115600Y-79358866D01*
X177115600Y-78720946D01*
X177121668Y-78682630D01*
X177126274Y-78668456D01*
X177132922Y-78605200D01*
X177865600Y-78605200D01*
X177865600Y-79358866D01*
X177979995Y-79323219D01*
X178125477Y-79235272D01*
X178245672Y-79115077D01*
X178333619Y-78969595D01*
X178384190Y-78807306D01*
X178390600Y-78736772D01*
X178390600Y-78605200D01*
X177865600Y-78605200D01*
X177132922Y-78605200D01*
X177141100Y-78527392D01*
X177141100Y-78230200D01*
X177235702Y-78230200D01*
X177255105Y-78327745D01*
X177310360Y-78410440D01*
X177393055Y-78465695D01*
X177465976Y-78480200D01*
X177515224Y-78480200D01*
X177588145Y-78465695D01*
X177670840Y-78410440D01*
X177726095Y-78327745D01*
X177745498Y-78230200D01*
X177726095Y-78132655D01*
X177670840Y-78049960D01*
X177588145Y-77994705D01*
X177515224Y-77980200D01*
X177465976Y-77980200D01*
X177393055Y-77994705D01*
X177310360Y-78049960D01*
X177255105Y-78132655D01*
X177235702Y-78230200D01*
X177141100Y-78230200D01*
X177141100Y-77933008D01*
X177126274Y-77791944D01*
X177121669Y-77777771D01*
X177115600Y-77739453D01*
X177115600Y-77101533D01*
X177115599Y-77101532D01*
X177865600Y-77101532D01*
X177865600Y-77855200D01*
X178390599Y-77855200D01*
X178390599Y-77723617D01*
X178388907Y-77705000D01*
X189105540Y-77705000D01*
X189125326Y-77893256D01*
X189125327Y-77893259D01*
X189183818Y-78073277D01*
X189183821Y-78073284D01*
X189278467Y-78237216D01*
X189402558Y-78375033D01*
X189405129Y-78377888D01*
X189558265Y-78489148D01*
X189558270Y-78489151D01*
X189731192Y-78566142D01*
X189731197Y-78566144D01*
X189916354Y-78605500D01*
X189916355Y-78605500D01*
X190105644Y-78605500D01*
X190105646Y-78605500D01*
X190290803Y-78566144D01*
X190463730Y-78489151D01*
X190588484Y-78398511D01*
X190654287Y-78375033D01*
X190722341Y-78390858D01*
X190771036Y-78440964D01*
X190785242Y-78504394D01*
X190774661Y-78739996D01*
X190774661Y-78740003D01*
X190794005Y-79170737D01*
X190794005Y-79170745D01*
X190794006Y-79170747D01*
X190800650Y-79219797D01*
X190851885Y-79598027D01*
X190947830Y-80018391D01*
X191081073Y-80428472D01*
X191081076Y-80428480D01*
X191250533Y-80824947D01*
X191250537Y-80824955D01*
X191250539Y-80824958D01*
X191454863Y-81204655D01*
X191454867Y-81204661D01*
X191454867Y-81204662D01*
X191692394Y-81564501D01*
X191692404Y-81564514D01*
X191961225Y-81901607D01*
X191961235Y-81901618D01*
X191961236Y-81901619D01*
X192259210Y-82213274D01*
X192583920Y-82496965D01*
X192583930Y-82496972D01*
X192583931Y-82496973D01*
X192846112Y-82687459D01*
X192932753Y-82750407D01*
X193302900Y-82971560D01*
X193302903Y-82971561D01*
X193302904Y-82971562D01*
X193302906Y-82971563D01*
X193691372Y-83158639D01*
X193691386Y-83158645D01*
X194095055Y-83310144D01*
X194095059Y-83310145D01*
X194095069Y-83310149D01*
X194510711Y-83424859D01*
X194934964Y-83501850D01*
X195364409Y-83540500D01*
X195364416Y-83540500D01*
X195795584Y-83540500D01*
X195795591Y-83540500D01*
X196225036Y-83501850D01*
X196649289Y-83424859D01*
X197064931Y-83310149D01*
X197468619Y-83158643D01*
X197857100Y-82971560D01*
X198227247Y-82750407D01*
X198576080Y-82496965D01*
X198900790Y-82213274D01*
X199198764Y-81901619D01*
X199467601Y-81564507D01*
X199705137Y-81204655D01*
X199909461Y-80824958D01*
X200078926Y-80428475D01*
X200212168Y-80018397D01*
X200308115Y-79598026D01*
X200365994Y-79170747D01*
X200385339Y-78740000D01*
X200384251Y-78715785D01*
X200375791Y-78527392D01*
X200365994Y-78309253D01*
X200308115Y-77881974D01*
X200212168Y-77461603D01*
X200078926Y-77051525D01*
X199990619Y-76844920D01*
X199909466Y-76655052D01*
X199909462Y-76655044D01*
X199882647Y-76605214D01*
X199705137Y-76275345D01*
X199705132Y-76275337D01*
X199467605Y-75915498D01*
X199467595Y-75915485D01*
X199198774Y-75578392D01*
X199198762Y-75578379D01*
X199172703Y-75551124D01*
X198963938Y-75332773D01*
X198900794Y-75266730D01*
X198900793Y-75266729D01*
X198900790Y-75266726D01*
X198576080Y-74983035D01*
X198541873Y-74958182D01*
X198227256Y-74729599D01*
X198227251Y-74729596D01*
X198227247Y-74729593D01*
X197857100Y-74508440D01*
X197857095Y-74508437D01*
X197857093Y-74508436D01*
X197468627Y-74321360D01*
X197468613Y-74321354D01*
X197064944Y-74169855D01*
X197064919Y-74169847D01*
X196649295Y-74055142D01*
X196225043Y-73978151D01*
X196225040Y-73978150D01*
X196225036Y-73978150D01*
X195795591Y-73939500D01*
X195364409Y-73939500D01*
X194934964Y-73978150D01*
X194934960Y-73978150D01*
X194934956Y-73978151D01*
X194510704Y-74055142D01*
X194095080Y-74169847D01*
X194095055Y-74169855D01*
X193691386Y-74321354D01*
X193691372Y-74321360D01*
X193302906Y-74508436D01*
X193302904Y-74508437D01*
X192932743Y-74729599D01*
X192583931Y-74983026D01*
X192583914Y-74983039D01*
X192259210Y-75266726D01*
X192259205Y-75266730D01*
X191961237Y-75578379D01*
X191961225Y-75578392D01*
X191692404Y-75915485D01*
X191692394Y-75915498D01*
X191454867Y-76275337D01*
X191454867Y-76275338D01*
X191250537Y-76655044D01*
X191250533Y-76655052D01*
X191081076Y-77051519D01*
X191081073Y-77051527D01*
X191020373Y-77238342D01*
X190980935Y-77296018D01*
X190916577Y-77323216D01*
X190847730Y-77311301D01*
X190796255Y-77264057D01*
X190795101Y-77262103D01*
X190743533Y-77172784D01*
X190616871Y-77032112D01*
X190616870Y-77032111D01*
X190463734Y-76920851D01*
X190463729Y-76920848D01*
X190290807Y-76843857D01*
X190290802Y-76843855D01*
X190145001Y-76812865D01*
X190105646Y-76804500D01*
X189916354Y-76804500D01*
X189883897Y-76811398D01*
X189731197Y-76843855D01*
X189731192Y-76843857D01*
X189558270Y-76920848D01*
X189558265Y-76920851D01*
X189405129Y-77032111D01*
X189278466Y-77172785D01*
X189183821Y-77336715D01*
X189183818Y-77336722D01*
X189125327Y-77516740D01*
X189125326Y-77516744D01*
X189105540Y-77705000D01*
X178388907Y-77705000D01*
X178384191Y-77653097D01*
X178384190Y-77653092D01*
X178333618Y-77490803D01*
X178245672Y-77345322D01*
X178125477Y-77225127D01*
X177979996Y-77137181D01*
X177979994Y-77137180D01*
X177865600Y-77101532D01*
X177115599Y-77101532D01*
X177001205Y-77137180D01*
X177001198Y-77137182D01*
X176859369Y-77222921D01*
X176791814Y-77240757D01*
X176725341Y-77219239D01*
X176722353Y-77217135D01*
X176693330Y-77196049D01*
X176693329Y-77196048D01*
X176520407Y-77119057D01*
X176520402Y-77119055D01*
X176374601Y-77088065D01*
X176335246Y-77079700D01*
X176145954Y-77079700D01*
X176113497Y-77086598D01*
X175960797Y-77119055D01*
X175960792Y-77119057D01*
X175787871Y-77196048D01*
X175688485Y-77268256D01*
X175622678Y-77291735D01*
X175554625Y-77275909D01*
X175542715Y-77268256D01*
X175519566Y-77251437D01*
X175443330Y-77196049D01*
X175443328Y-77196048D01*
X175443329Y-77196048D01*
X175270407Y-77119057D01*
X175270402Y-77119055D01*
X175124601Y-77088065D01*
X175085246Y-77079700D01*
X174895954Y-77079700D01*
X174863497Y-77086598D01*
X174710797Y-77119055D01*
X174710792Y-77119057D01*
X174537871Y-77196048D01*
X174438485Y-77268256D01*
X174372678Y-77291735D01*
X174304625Y-77275909D01*
X174292715Y-77268256D01*
X174269566Y-77251437D01*
X174193330Y-77196049D01*
X174193328Y-77196048D01*
X174193329Y-77196048D01*
X174020407Y-77119057D01*
X174020402Y-77119055D01*
X173874601Y-77088065D01*
X173835246Y-77079700D01*
X173645954Y-77079700D01*
X173613497Y-77086598D01*
X173460797Y-77119055D01*
X173460792Y-77119057D01*
X173287870Y-77196048D01*
X173287865Y-77196051D01*
X173134729Y-77307311D01*
X173008066Y-77447985D01*
X172913421Y-77611915D01*
X172913418Y-77611922D01*
X172871981Y-77739453D01*
X172854926Y-77791944D01*
X172840100Y-77933008D01*
X172840100Y-78527392D01*
X163354190Y-78527392D01*
X163266734Y-78463851D01*
X163266729Y-78463848D01*
X163093807Y-78386857D01*
X163093802Y-78386855D01*
X162948001Y-78355865D01*
X162908646Y-78347500D01*
X162719354Y-78347500D01*
X162686897Y-78354398D01*
X162534197Y-78386855D01*
X162534192Y-78386857D01*
X162361270Y-78463848D01*
X162361265Y-78463851D01*
X162208129Y-78575111D01*
X162081466Y-78715785D01*
X161986821Y-78879715D01*
X161986818Y-78879722D01*
X161928327Y-79059740D01*
X161928326Y-79059744D01*
X161908540Y-79248000D01*
X159715529Y-79248000D01*
X159725994Y-79170747D01*
X159745339Y-78740000D01*
X159744251Y-78715785D01*
X159735791Y-78527392D01*
X159725994Y-78309253D01*
X159668115Y-77881974D01*
X159572168Y-77461603D01*
X159438926Y-77051525D01*
X159350619Y-76844920D01*
X159269466Y-76655052D01*
X159269462Y-76655044D01*
X159242647Y-76605214D01*
X159065137Y-76275345D01*
X159065132Y-76275337D01*
X158827605Y-75915498D01*
X158827595Y-75915485D01*
X158630277Y-75668055D01*
X162899500Y-75668055D01*
X162940210Y-75833226D01*
X163019263Y-75983849D01*
X163019266Y-75983852D01*
X163132071Y-76111183D01*
X163169682Y-76137144D01*
X163272068Y-76207817D01*
X163272069Y-76207817D01*
X163272070Y-76207818D01*
X163373358Y-76246231D01*
X163421002Y-76264300D01*
X163431128Y-76268140D01*
X163507028Y-76277356D01*
X163557626Y-76283500D01*
X163557628Y-76283500D01*
X163642374Y-76283500D01*
X163684538Y-76278380D01*
X163768872Y-76268140D01*
X163927930Y-76207818D01*
X164067929Y-76111183D01*
X164180734Y-75983852D01*
X164259790Y-75833225D01*
X164300500Y-75668056D01*
X164300500Y-75668055D01*
X165899500Y-75668055D01*
X165940210Y-75833226D01*
X166019263Y-75983849D01*
X166019266Y-75983852D01*
X166132071Y-76111183D01*
X166169682Y-76137144D01*
X166272068Y-76207817D01*
X166272069Y-76207817D01*
X166272070Y-76207818D01*
X166373358Y-76246231D01*
X166421002Y-76264300D01*
X166431128Y-76268140D01*
X166507028Y-76277356D01*
X166557626Y-76283500D01*
X166557628Y-76283500D01*
X166642374Y-76283500D01*
X166684538Y-76278380D01*
X166768872Y-76268140D01*
X166927930Y-76207818D01*
X167067929Y-76111183D01*
X167101756Y-76073000D01*
X180704540Y-76073000D01*
X180724326Y-76261256D01*
X180724327Y-76261259D01*
X180782818Y-76441277D01*
X180782821Y-76441284D01*
X180877467Y-76605216D01*
X180962440Y-76699588D01*
X181004129Y-76745888D01*
X181157265Y-76857148D01*
X181157270Y-76857151D01*
X181330192Y-76934142D01*
X181330197Y-76934144D01*
X181515354Y-76973500D01*
X181515355Y-76973500D01*
X181704644Y-76973500D01*
X181704646Y-76973500D01*
X181889803Y-76934144D01*
X182062730Y-76857151D01*
X182215871Y-76745888D01*
X182342533Y-76605216D01*
X182437179Y-76441284D01*
X182495674Y-76261256D01*
X182515460Y-76073000D01*
X182495674Y-75884744D01*
X182437179Y-75704716D01*
X182342533Y-75540784D01*
X182215871Y-75400112D01*
X182196555Y-75386078D01*
X182062734Y-75288851D01*
X182062729Y-75288848D01*
X181889807Y-75211857D01*
X181889802Y-75211855D01*
X181744001Y-75180865D01*
X181704646Y-75172500D01*
X181515354Y-75172500D01*
X181482897Y-75179398D01*
X181330197Y-75211855D01*
X181330192Y-75211857D01*
X181157270Y-75288848D01*
X181157265Y-75288851D01*
X181004129Y-75400111D01*
X180877466Y-75540785D01*
X180782821Y-75704715D01*
X180782818Y-75704722D01*
X180741065Y-75833226D01*
X180724326Y-75884744D01*
X180704540Y-76073000D01*
X167101756Y-76073000D01*
X167180734Y-75983852D01*
X167259790Y-75833225D01*
X167300500Y-75668056D01*
X167300500Y-75497944D01*
X167259790Y-75332775D01*
X167225127Y-75266730D01*
X167180736Y-75182150D01*
X167147356Y-75144472D01*
X167067929Y-75054817D01*
X167018177Y-75020475D01*
X166927931Y-74958182D01*
X166768874Y-74897860D01*
X166768868Y-74897859D01*
X166642374Y-74882500D01*
X166642372Y-74882500D01*
X166557628Y-74882500D01*
X166557626Y-74882500D01*
X166431131Y-74897859D01*
X166431125Y-74897860D01*
X166272068Y-74958182D01*
X166132072Y-75054816D01*
X166019263Y-75182150D01*
X165940210Y-75332773D01*
X165899500Y-75497944D01*
X165899500Y-75668055D01*
X164300500Y-75668055D01*
X164300500Y-75497944D01*
X164259790Y-75332775D01*
X164225127Y-75266730D01*
X164180736Y-75182150D01*
X164147356Y-75144472D01*
X164067929Y-75054817D01*
X164018177Y-75020475D01*
X163927931Y-74958182D01*
X163768874Y-74897860D01*
X163768868Y-74897859D01*
X163642374Y-74882500D01*
X163642372Y-74882500D01*
X163557628Y-74882500D01*
X163557626Y-74882500D01*
X163431131Y-74897859D01*
X163431125Y-74897860D01*
X163272068Y-74958182D01*
X163132072Y-75054816D01*
X163019263Y-75182150D01*
X162940210Y-75332773D01*
X162899500Y-75497944D01*
X162899500Y-75668055D01*
X158630277Y-75668055D01*
X158558774Y-75578392D01*
X158558762Y-75578379D01*
X158532703Y-75551124D01*
X158323938Y-75332773D01*
X158260794Y-75266730D01*
X158260793Y-75266729D01*
X158260790Y-75266726D01*
X157936080Y-74983035D01*
X157901873Y-74958182D01*
X157587256Y-74729599D01*
X157587251Y-74729596D01*
X157587247Y-74729593D01*
X157217100Y-74508440D01*
X157217095Y-74508437D01*
X157217093Y-74508436D01*
X156828627Y-74321360D01*
X156828613Y-74321354D01*
X156424944Y-74169855D01*
X156424919Y-74169847D01*
X156009295Y-74055142D01*
X155585043Y-73978151D01*
X155585040Y-73978150D01*
X155585036Y-73978150D01*
X155155591Y-73939500D01*
X154724409Y-73939500D01*
X154294964Y-73978150D01*
X154294960Y-73978150D01*
X154294956Y-73978151D01*
X153870704Y-74055142D01*
X153455080Y-74169847D01*
X153455055Y-74169855D01*
X153051386Y-74321354D01*
X153051372Y-74321360D01*
X152662906Y-74508436D01*
X152662904Y-74508437D01*
X152292743Y-74729599D01*
X151943931Y-74983026D01*
X151943914Y-74983039D01*
X151619210Y-75266726D01*
X151619205Y-75266730D01*
X151321237Y-75578379D01*
X151321225Y-75578392D01*
X151052404Y-75915485D01*
X151052394Y-75915498D01*
X150814867Y-76275337D01*
X150814867Y-76275338D01*
X150610537Y-76655044D01*
X150610533Y-76655052D01*
X150441076Y-77051519D01*
X150441073Y-77051527D01*
X150307830Y-77461608D01*
X150211885Y-77881972D01*
X150154006Y-78309253D01*
X150154005Y-78309262D01*
X150134661Y-78739996D01*
X150134661Y-78740003D01*
X149860553Y-78740003D01*
X149860606Y-78737436D01*
X149869495Y-78522496D01*
X149878348Y-78319746D01*
X149879177Y-78309883D01*
X149906031Y-78094444D01*
X149906073Y-78094123D01*
X149932750Y-77891486D01*
X149934317Y-77882290D01*
X149978805Y-77670115D01*
X149978994Y-77669240D01*
X150023293Y-77469419D01*
X150025498Y-77460920D01*
X150087267Y-77253440D01*
X150087835Y-77251591D01*
X150091251Y-77240757D01*
X150149322Y-77056576D01*
X150152027Y-77048898D01*
X150230739Y-76847176D01*
X150231599Y-76845038D01*
X150309908Y-76655983D01*
X150313031Y-76649058D01*
X150408130Y-76454530D01*
X150409416Y-76451983D01*
X150503890Y-76270500D01*
X150507348Y-76264300D01*
X150541004Y-76207818D01*
X150618108Y-76078420D01*
X150619977Y-76075388D01*
X150729901Y-75902843D01*
X150733511Y-75897491D01*
X150859249Y-75721385D01*
X150861727Y-75718038D01*
X150986258Y-75555746D01*
X150989958Y-75551157D01*
X151129810Y-75386032D01*
X151132931Y-75382492D01*
X151271176Y-75231624D01*
X151274827Y-75227810D01*
X151427810Y-75074827D01*
X151431624Y-75071176D01*
X151582492Y-74932931D01*
X151586032Y-74929810D01*
X151751157Y-74789958D01*
X151755746Y-74786258D01*
X151918038Y-74661727D01*
X151921385Y-74659249D01*
X152097491Y-74533511D01*
X152102843Y-74529901D01*
X152275388Y-74419977D01*
X152278420Y-74418108D01*
X152464301Y-74307347D01*
X152470500Y-74303890D01*
X152651983Y-74209416D01*
X152654530Y-74208130D01*
X152849058Y-74113031D01*
X152855983Y-74109908D01*
X153045038Y-74031599D01*
X153047176Y-74030739D01*
X153248898Y-73952027D01*
X153256576Y-73949322D01*
X153451612Y-73887828D01*
X153453438Y-73887268D01*
X153660920Y-73825498D01*
X153669419Y-73823293D01*
X153869240Y-73778994D01*
X153870115Y-73778805D01*
X154082290Y-73734317D01*
X154091486Y-73732750D01*
X154294123Y-73706073D01*
X154294444Y-73706031D01*
X154509883Y-73679177D01*
X154519746Y-73678348D01*
X154722421Y-73669499D01*
X154937437Y-73660605D01*
X154942561Y-73660500D01*
X195577439Y-73660500D01*
X195582562Y-73660605D01*
G37*
%TD.AperFunction*%
%TD*%
M02*
