%TF.GenerationSoftware,KiCad,Pcbnew,7.0.10*%
%TF.CreationDate,2024-03-14T18:53:14+05:30*%
%TF.ProjectId,STM32_4LAYER,53544d33-325f-4344-9c41-5945522e6b69,rev?*%
%TF.SameCoordinates,Original*%
%TF.FileFunction,Drillmap*%
%TF.FilePolarity,Positive*%
%FSLAX45Y45*%
G04 Gerber Fmt 4.5, Leading zero omitted, Abs format (unit mm)*
G04 Created by KiCad (PCBNEW 7.0.10) date 2024-03-14 18:53:14*
%MOMM*%
%LPD*%
G01*
G04 APERTURE LIST*
%ADD10C,0.100000*%
%ADD11C,0.200000*%
%ADD12C,0.120000*%
%ADD13C,0.430000*%
G04 APERTURE END LIST*
D10*
X20066000Y-7874000D02*
X20066000Y-11176000D01*
X14986000Y-11176000D02*
G75*
G03*
X15494000Y-11684000I508000J0D01*
G01*
X15494000Y-11684000D02*
X19558000Y-11684000D01*
X15494000Y-7366000D02*
X19558000Y-7366000D01*
X19558000Y-11684000D02*
G75*
G03*
X20066000Y-11176000I0J508000D01*
G01*
X15494000Y-7366000D02*
G75*
G03*
X14986000Y-7874000I0J-508000D01*
G01*
X20066000Y-7874000D02*
G75*
G03*
X19558000Y-7366000I-508000J0D01*
G01*
X14986000Y-7874000D02*
X14986000Y-11176000D01*
D11*
D10*
X16096300Y-9289100D02*
X16136300Y-9329100D01*
X16136300Y-9289100D02*
X16096300Y-9329100D01*
X16261400Y-7904800D02*
X16301400Y-7944800D01*
X16301400Y-7904800D02*
X16261400Y-7944800D01*
X16365233Y-9629767D02*
X16405233Y-9669767D01*
X16405233Y-9629767D02*
X16365233Y-9669767D01*
X16490000Y-8400100D02*
X16530000Y-8440100D01*
X16530000Y-8400100D02*
X16490000Y-8440100D01*
X16528100Y-9378000D02*
X16568100Y-9418000D01*
X16568100Y-9378000D02*
X16528100Y-9418000D01*
X16553500Y-9073200D02*
X16593500Y-9113200D01*
X16593500Y-9073200D02*
X16553500Y-9113200D01*
X16718600Y-7904800D02*
X16758600Y-7944800D01*
X16758600Y-7904800D02*
X16718600Y-7944800D01*
X16718600Y-8565200D02*
X16758600Y-8605200D01*
X16758600Y-8565200D02*
X16718600Y-8605200D01*
X16820200Y-8704900D02*
X16860200Y-8744900D01*
X16860200Y-8704900D02*
X16820200Y-8744900D01*
X16998000Y-9517700D02*
X17038000Y-9557700D01*
X17038000Y-9517700D02*
X16998000Y-9557700D01*
X17010700Y-8438200D02*
X17050700Y-8478200D01*
X17050700Y-8438200D02*
X17010700Y-8478200D01*
X17072675Y-9406341D02*
X17112675Y-9446341D01*
X17112675Y-9406341D02*
X17072675Y-9446341D01*
X17175800Y-8362000D02*
X17215800Y-8402000D01*
X17215800Y-8362000D02*
X17175800Y-8402000D01*
X17175800Y-9405000D02*
X17215800Y-9445000D01*
X17215800Y-9405000D02*
X17175800Y-9445000D01*
X17412020Y-9329740D02*
X17452020Y-9369740D01*
X17452020Y-9329740D02*
X17412020Y-9369740D01*
X17531400Y-8362000D02*
X17571400Y-8402000D01*
X17571400Y-8362000D02*
X17531400Y-8402000D01*
X17556800Y-9987600D02*
X17596800Y-10027600D01*
X17596800Y-9987600D02*
X17556800Y-10027600D01*
X17569500Y-10787700D02*
X17609500Y-10827700D01*
X17609500Y-10787700D02*
X17569500Y-10827700D01*
X17569500Y-10927400D02*
X17609500Y-10967400D01*
X17609500Y-10927400D02*
X17569500Y-10967400D01*
X17696500Y-10787700D02*
X17736500Y-10827700D01*
X17736500Y-10787700D02*
X17696500Y-10827700D01*
X17696500Y-10927400D02*
X17736500Y-10967400D01*
X17736500Y-10927400D02*
X17696500Y-10967400D01*
X17785400Y-9835200D02*
X17825400Y-9875200D01*
X17825400Y-9835200D02*
X17785400Y-9875200D01*
X17790480Y-8229920D02*
X17830480Y-8269920D01*
X17830480Y-8229920D02*
X17790480Y-8269920D01*
X17823500Y-10927400D02*
X17863500Y-10967400D01*
X17863500Y-10927400D02*
X17823500Y-10967400D01*
X17836200Y-10787700D02*
X17876200Y-10827700D01*
X17876200Y-10787700D02*
X17836200Y-10827700D01*
X17861600Y-8844600D02*
X17901600Y-8884600D01*
X17901600Y-8844600D02*
X17861600Y-8884600D01*
X17963200Y-9055000D02*
X18003200Y-9095000D01*
X18003200Y-9055000D02*
X17963200Y-9095000D01*
X17963200Y-9212900D02*
X18003200Y-9252900D01*
X18003200Y-9212900D02*
X17963200Y-9252900D01*
X17963200Y-10787700D02*
X18003200Y-10827700D01*
X18003200Y-10787700D02*
X17963200Y-10827700D01*
X18039400Y-10152700D02*
X18079400Y-10192700D01*
X18079400Y-10152700D02*
X18039400Y-10192700D01*
X18141000Y-7587300D02*
X18181000Y-7627300D01*
X18181000Y-7587300D02*
X18141000Y-7627300D01*
X18166400Y-9911400D02*
X18206400Y-9951400D01*
X18206400Y-9911400D02*
X18166400Y-9951400D01*
X18166400Y-10038400D02*
X18206400Y-10078400D01*
X18206400Y-10038400D02*
X18166400Y-10078400D01*
X18166400Y-10152700D02*
X18206400Y-10192700D01*
X18206400Y-10152700D02*
X18166400Y-10192700D01*
X18204500Y-9239840D02*
X18244500Y-9279840D01*
X18244500Y-9239840D02*
X18204500Y-9279840D01*
X18776000Y-10495600D02*
X18816000Y-10535600D01*
X18816000Y-10495600D02*
X18776000Y-10535600D01*
X18776000Y-10609900D02*
X18816000Y-10649900D01*
X18816000Y-10609900D02*
X18776000Y-10649900D01*
X18864900Y-10178100D02*
X18904900Y-10218100D01*
X18904900Y-10178100D02*
X18864900Y-10218100D01*
X18890300Y-11029000D02*
X18930300Y-11069000D01*
X18930300Y-11029000D02*
X18890300Y-11069000D01*
X18890300Y-11194100D02*
X18930300Y-11234100D01*
X18930300Y-11194100D02*
X18890300Y-11234100D01*
X18890300Y-11333800D02*
X18930300Y-11373800D01*
X18930300Y-11333800D02*
X18890300Y-11373800D01*
X18890300Y-11473500D02*
X18930300Y-11513500D01*
X18930300Y-11473500D02*
X18890300Y-11513500D01*
X18979200Y-7595500D02*
X19019200Y-7635500D01*
X19019200Y-7595500D02*
X18979200Y-7635500D01*
X18981100Y-7750500D02*
X19021100Y-7790500D01*
X19021100Y-7750500D02*
X18981100Y-7790500D01*
X19144300Y-9022400D02*
X19184300Y-9062400D01*
X19184300Y-9022400D02*
X19144300Y-9062400D01*
X19157000Y-10482900D02*
X19197000Y-10522900D01*
X19197000Y-10482900D02*
X19157000Y-10522900D01*
X19245900Y-9022400D02*
X19285900Y-9062400D01*
X19285900Y-9022400D02*
X19245900Y-9062400D01*
X19271300Y-10482900D02*
X19311300Y-10522900D01*
X19311300Y-10482900D02*
X19271300Y-10522900D01*
X19347500Y-9022400D02*
X19387500Y-9062400D01*
X19387500Y-9022400D02*
X19347500Y-9062400D01*
X19385600Y-10482900D02*
X19425600Y-10522900D01*
X19425600Y-10482900D02*
X19385600Y-10522900D01*
X15468020Y-9858200D02*
G75*
G03*
X15418020Y-9858200I-25000J0D01*
G01*
X15418020Y-9858200D02*
G75*
G03*
X15468020Y-9858200I25000J0D01*
G01*
X15468020Y-9983200D02*
G75*
G03*
X15418020Y-9983200I-25000J0D01*
G01*
X15418020Y-9983200D02*
G75*
G03*
X15468020Y-9983200I25000J0D01*
G01*
X15468020Y-10108200D02*
G75*
G03*
X15418020Y-10108200I-25000J0D01*
G01*
X15418020Y-10108200D02*
G75*
G03*
X15468020Y-10108200I25000J0D01*
G01*
X15468020Y-10233200D02*
G75*
G03*
X15418020Y-10233200I-25000J0D01*
G01*
X15418020Y-10233200D02*
G75*
G03*
X15468020Y-10233200I25000J0D01*
G01*
X15468200Y-8615520D02*
G75*
G03*
X15418200Y-8615520I-25000J0D01*
G01*
X15418200Y-8615520D02*
G75*
G03*
X15468200Y-8615520I25000J0D01*
G01*
X15468200Y-8740520D02*
G75*
G03*
X15418200Y-8740520I-25000J0D01*
G01*
X15418200Y-8740520D02*
G75*
G03*
X15468200Y-8740520I25000J0D01*
G01*
X15468200Y-8865520D02*
G75*
G03*
X15418200Y-8865520I-25000J0D01*
G01*
X15418200Y-8865520D02*
G75*
G03*
X15468200Y-8865520I25000J0D01*
G01*
X15468200Y-8990520D02*
G75*
G03*
X15418200Y-8990520I-25000J0D01*
G01*
X15418200Y-8990520D02*
G75*
G03*
X15468200Y-8990520I25000J0D01*
G01*
X15468200Y-9115520D02*
G75*
G03*
X15418200Y-9115520I-25000J0D01*
G01*
X15418200Y-9115520D02*
G75*
G03*
X15468200Y-9115520I25000J0D01*
G01*
X15468200Y-9240520D02*
G75*
G03*
X15418200Y-9240520I-25000J0D01*
G01*
X15418200Y-9240520D02*
G75*
G03*
X15468200Y-9240520I25000J0D01*
G01*
X17399060Y-7823020D02*
G75*
G03*
X17349060Y-7823020I-25000J0D01*
G01*
X17349060Y-7823020D02*
G75*
G03*
X17399060Y-7823020I25000J0D01*
G01*
X17524060Y-7823020D02*
G75*
G03*
X17474060Y-7823020I-25000J0D01*
G01*
X17474060Y-7823020D02*
G75*
G03*
X17524060Y-7823020I25000J0D01*
G01*
X17649060Y-7823020D02*
G75*
G03*
X17599060Y-7823020I-25000J0D01*
G01*
X17599060Y-7823020D02*
G75*
G03*
X17649060Y-7823020I25000J0D01*
G01*
X17774060Y-7823020D02*
G75*
G03*
X17724060Y-7823020I-25000J0D01*
G01*
X17724060Y-7823020D02*
G75*
G03*
X17774060Y-7823020I25000J0D01*
G01*
X15171500Y-7844000D02*
X15171500Y-7904000D01*
X15141500Y-7874000D02*
X15201500Y-7874000D01*
X15171500Y-11146000D02*
X15171500Y-11206000D01*
X15141500Y-11176000D02*
X15201500Y-11176000D01*
X15265958Y-7615958D02*
X15265958Y-7675958D01*
X15235958Y-7645958D02*
X15295958Y-7645958D01*
X15265958Y-8072042D02*
X15265958Y-8132042D01*
X15235958Y-8102042D02*
X15295958Y-8102042D01*
X15265958Y-10917958D02*
X15265958Y-10977958D01*
X15235958Y-10947958D02*
X15295958Y-10947958D01*
X15265958Y-11374042D02*
X15265958Y-11434042D01*
X15235958Y-11404042D02*
X15295958Y-11404042D01*
X15494000Y-7521500D02*
X15494000Y-7581500D01*
X15464000Y-7551500D02*
X15524000Y-7551500D01*
X15494000Y-8166500D02*
X15494000Y-8226500D01*
X15464000Y-8196500D02*
X15524000Y-8196500D01*
X15494000Y-10823500D02*
X15494000Y-10883500D01*
X15464000Y-10853500D02*
X15524000Y-10853500D01*
X15494000Y-11468500D02*
X15494000Y-11528500D01*
X15464000Y-11498500D02*
X15524000Y-11498500D01*
X15722042Y-7615958D02*
X15722042Y-7675958D01*
X15692042Y-7645958D02*
X15752042Y-7645958D01*
X15722042Y-8072042D02*
X15722042Y-8132042D01*
X15692042Y-8102042D02*
X15752042Y-8102042D01*
X15722042Y-10917958D02*
X15722042Y-10977958D01*
X15692042Y-10947958D02*
X15752042Y-10947958D01*
X15722042Y-11374042D02*
X15722042Y-11434042D01*
X15692042Y-11404042D02*
X15752042Y-11404042D01*
X15816500Y-7844000D02*
X15816500Y-7904000D01*
X15786500Y-7874000D02*
X15846500Y-7874000D01*
X15816500Y-11146000D02*
X15816500Y-11206000D01*
X15786500Y-11176000D02*
X15846500Y-11176000D01*
X19235500Y-7844000D02*
X19235500Y-7904000D01*
X19205500Y-7874000D02*
X19265500Y-7874000D01*
X19235500Y-11146000D02*
X19235500Y-11206000D01*
X19205500Y-11176000D02*
X19265500Y-11176000D01*
X19329958Y-7615958D02*
X19329958Y-7675958D01*
X19299958Y-7645958D02*
X19359958Y-7645958D01*
X19329958Y-8072042D02*
X19329958Y-8132042D01*
X19299958Y-8102042D02*
X19359958Y-8102042D01*
X19329958Y-10917958D02*
X19329958Y-10977958D01*
X19299958Y-10947958D02*
X19359958Y-10947958D01*
X19329958Y-11374042D02*
X19329958Y-11434042D01*
X19299958Y-11404042D02*
X19359958Y-11404042D01*
X19558000Y-7521500D02*
X19558000Y-7581500D01*
X19528000Y-7551500D02*
X19588000Y-7551500D01*
X19558000Y-8166500D02*
X19558000Y-8226500D01*
X19528000Y-8196500D02*
X19588000Y-8196500D01*
X19558000Y-10823500D02*
X19558000Y-10883500D01*
X19528000Y-10853500D02*
X19588000Y-10853500D01*
X19558000Y-11468500D02*
X19558000Y-11528500D01*
X19528000Y-11498500D02*
X19588000Y-11498500D01*
X19786042Y-7615958D02*
X19786042Y-7675958D01*
X19756042Y-7645958D02*
X19816042Y-7645958D01*
X19786042Y-8072042D02*
X19786042Y-8132042D01*
X19756042Y-8102042D02*
X19816042Y-8102042D01*
X19786042Y-10917958D02*
X19786042Y-10977958D01*
X19756042Y-10947958D02*
X19816042Y-10947958D01*
X19786042Y-11374042D02*
X19786042Y-11434042D01*
X19756042Y-11404042D02*
X19816042Y-11404042D01*
X19880500Y-7844000D02*
X19880500Y-7904000D01*
X19850500Y-7874000D02*
X19910500Y-7874000D01*
X19880500Y-11146000D02*
X19880500Y-11206000D01*
X19850500Y-11176000D02*
X19910500Y-11176000D01*
D12*
X16910827Y-11173827D02*
X16910827Y-11088973D01*
X16825973Y-11088973D01*
X16825973Y-11173827D01*
X16910827Y-11173827D01*
X17260827Y-11173827D02*
X17260827Y-11088973D01*
X17175973Y-11088973D01*
X17175973Y-11173827D01*
X17260827Y-11173827D01*
D13*
X15494000Y-8089000D02*
X15709000Y-7874000D01*
X15494000Y-7659000D01*
X15279000Y-7874000D01*
X15494000Y-8089000D01*
X15494000Y-11391000D02*
X15709000Y-11176000D01*
X15494000Y-10961000D01*
X15279000Y-11176000D01*
X15494000Y-11391000D01*
X19558000Y-8089000D02*
X19773000Y-7874000D01*
X19558000Y-7659000D01*
X19343000Y-7874000D01*
X19558000Y-8089000D01*
X19558000Y-11391000D02*
X19773000Y-11176000D01*
X19558000Y-10961000D01*
X19343000Y-11176000D01*
X19558000Y-11391000D01*
D11*
X15241777Y-12000484D02*
X15241777Y-11800484D01*
X15241777Y-11800484D02*
X15289396Y-11800484D01*
X15289396Y-11800484D02*
X15317967Y-11810008D01*
X15317967Y-11810008D02*
X15337015Y-11829055D01*
X15337015Y-11829055D02*
X15346539Y-11848103D01*
X15346539Y-11848103D02*
X15356062Y-11886198D01*
X15356062Y-11886198D02*
X15356062Y-11914769D01*
X15356062Y-11914769D02*
X15346539Y-11952865D01*
X15346539Y-11952865D02*
X15337015Y-11971912D01*
X15337015Y-11971912D02*
X15317967Y-11990960D01*
X15317967Y-11990960D02*
X15289396Y-12000484D01*
X15289396Y-12000484D02*
X15241777Y-12000484D01*
X15441777Y-12000484D02*
X15441777Y-11867150D01*
X15441777Y-11905246D02*
X15451301Y-11886198D01*
X15451301Y-11886198D02*
X15460824Y-11876674D01*
X15460824Y-11876674D02*
X15479872Y-11867150D01*
X15479872Y-11867150D02*
X15498920Y-11867150D01*
X15565586Y-12000484D02*
X15565586Y-11867150D01*
X15565586Y-11800484D02*
X15556062Y-11810008D01*
X15556062Y-11810008D02*
X15565586Y-11819531D01*
X15565586Y-11819531D02*
X15575110Y-11810008D01*
X15575110Y-11810008D02*
X15565586Y-11800484D01*
X15565586Y-11800484D02*
X15565586Y-11819531D01*
X15689396Y-12000484D02*
X15670348Y-11990960D01*
X15670348Y-11990960D02*
X15660824Y-11971912D01*
X15660824Y-11971912D02*
X15660824Y-11800484D01*
X15794158Y-12000484D02*
X15775110Y-11990960D01*
X15775110Y-11990960D02*
X15765586Y-11971912D01*
X15765586Y-11971912D02*
X15765586Y-11800484D01*
X16022729Y-12000484D02*
X16022729Y-11800484D01*
X16022729Y-11800484D02*
X16089396Y-11943341D01*
X16089396Y-11943341D02*
X16156062Y-11800484D01*
X16156062Y-11800484D02*
X16156062Y-12000484D01*
X16337015Y-12000484D02*
X16337015Y-11895722D01*
X16337015Y-11895722D02*
X16327491Y-11876674D01*
X16327491Y-11876674D02*
X16308443Y-11867150D01*
X16308443Y-11867150D02*
X16270348Y-11867150D01*
X16270348Y-11867150D02*
X16251301Y-11876674D01*
X16337015Y-11990960D02*
X16317967Y-12000484D01*
X16317967Y-12000484D02*
X16270348Y-12000484D01*
X16270348Y-12000484D02*
X16251301Y-11990960D01*
X16251301Y-11990960D02*
X16241777Y-11971912D01*
X16241777Y-11971912D02*
X16241777Y-11952865D01*
X16241777Y-11952865D02*
X16251301Y-11933817D01*
X16251301Y-11933817D02*
X16270348Y-11924293D01*
X16270348Y-11924293D02*
X16317967Y-11924293D01*
X16317967Y-11924293D02*
X16337015Y-11914769D01*
X16432253Y-11867150D02*
X16432253Y-12067150D01*
X16432253Y-11876674D02*
X16451301Y-11867150D01*
X16451301Y-11867150D02*
X16489396Y-11867150D01*
X16489396Y-11867150D02*
X16508443Y-11876674D01*
X16508443Y-11876674D02*
X16517967Y-11886198D01*
X16517967Y-11886198D02*
X16527491Y-11905246D01*
X16527491Y-11905246D02*
X16527491Y-11962388D01*
X16527491Y-11962388D02*
X16517967Y-11981436D01*
X16517967Y-11981436D02*
X16508443Y-11990960D01*
X16508443Y-11990960D02*
X16489396Y-12000484D01*
X16489396Y-12000484D02*
X16451301Y-12000484D01*
X16451301Y-12000484D02*
X16432253Y-11990960D01*
X16613205Y-11981436D02*
X16622729Y-11990960D01*
X16622729Y-11990960D02*
X16613205Y-12000484D01*
X16613205Y-12000484D02*
X16603682Y-11990960D01*
X16603682Y-11990960D02*
X16613205Y-11981436D01*
X16613205Y-11981436D02*
X16613205Y-12000484D01*
X16613205Y-11876674D02*
X16622729Y-11886198D01*
X16622729Y-11886198D02*
X16613205Y-11895722D01*
X16613205Y-11895722D02*
X16603682Y-11886198D01*
X16603682Y-11886198D02*
X16613205Y-11876674D01*
X16613205Y-11876674D02*
X16613205Y-11895722D01*
D10*
X14941000Y-12309000D02*
X14981000Y-12349000D01*
X14981000Y-12309000D02*
X14941000Y-12349000D01*
D11*
X15279872Y-12220484D02*
X15298920Y-12220484D01*
X15298920Y-12220484D02*
X15317967Y-12230008D01*
X15317967Y-12230008D02*
X15327491Y-12239531D01*
X15327491Y-12239531D02*
X15337015Y-12258579D01*
X15337015Y-12258579D02*
X15346539Y-12296674D01*
X15346539Y-12296674D02*
X15346539Y-12344293D01*
X15346539Y-12344293D02*
X15337015Y-12382388D01*
X15337015Y-12382388D02*
X15327491Y-12401436D01*
X15327491Y-12401436D02*
X15317967Y-12410960D01*
X15317967Y-12410960D02*
X15298920Y-12420484D01*
X15298920Y-12420484D02*
X15279872Y-12420484D01*
X15279872Y-12420484D02*
X15260824Y-12410960D01*
X15260824Y-12410960D02*
X15251301Y-12401436D01*
X15251301Y-12401436D02*
X15241777Y-12382388D01*
X15241777Y-12382388D02*
X15232253Y-12344293D01*
X15232253Y-12344293D02*
X15232253Y-12296674D01*
X15232253Y-12296674D02*
X15241777Y-12258579D01*
X15241777Y-12258579D02*
X15251301Y-12239531D01*
X15251301Y-12239531D02*
X15260824Y-12230008D01*
X15260824Y-12230008D02*
X15279872Y-12220484D01*
X15432253Y-12401436D02*
X15441777Y-12410960D01*
X15441777Y-12410960D02*
X15432253Y-12420484D01*
X15432253Y-12420484D02*
X15422729Y-12410960D01*
X15422729Y-12410960D02*
X15432253Y-12401436D01*
X15432253Y-12401436D02*
X15432253Y-12420484D01*
X15613205Y-12287150D02*
X15613205Y-12420484D01*
X15565586Y-12210960D02*
X15517967Y-12353817D01*
X15517967Y-12353817D02*
X15641777Y-12353817D01*
X15756062Y-12220484D02*
X15775110Y-12220484D01*
X15775110Y-12220484D02*
X15794158Y-12230008D01*
X15794158Y-12230008D02*
X15803682Y-12239531D01*
X15803682Y-12239531D02*
X15813205Y-12258579D01*
X15813205Y-12258579D02*
X15822729Y-12296674D01*
X15822729Y-12296674D02*
X15822729Y-12344293D01*
X15822729Y-12344293D02*
X15813205Y-12382388D01*
X15813205Y-12382388D02*
X15803682Y-12401436D01*
X15803682Y-12401436D02*
X15794158Y-12410960D01*
X15794158Y-12410960D02*
X15775110Y-12420484D01*
X15775110Y-12420484D02*
X15756062Y-12420484D01*
X15756062Y-12420484D02*
X15737015Y-12410960D01*
X15737015Y-12410960D02*
X15727491Y-12401436D01*
X15727491Y-12401436D02*
X15717967Y-12382388D01*
X15717967Y-12382388D02*
X15708443Y-12344293D01*
X15708443Y-12344293D02*
X15708443Y-12296674D01*
X15708443Y-12296674D02*
X15717967Y-12258579D01*
X15717967Y-12258579D02*
X15727491Y-12239531D01*
X15727491Y-12239531D02*
X15737015Y-12230008D01*
X15737015Y-12230008D02*
X15756062Y-12220484D01*
X15946539Y-12220484D02*
X15965586Y-12220484D01*
X15965586Y-12220484D02*
X15984634Y-12230008D01*
X15984634Y-12230008D02*
X15994158Y-12239531D01*
X15994158Y-12239531D02*
X16003682Y-12258579D01*
X16003682Y-12258579D02*
X16013205Y-12296674D01*
X16013205Y-12296674D02*
X16013205Y-12344293D01*
X16013205Y-12344293D02*
X16003682Y-12382388D01*
X16003682Y-12382388D02*
X15994158Y-12401436D01*
X15994158Y-12401436D02*
X15984634Y-12410960D01*
X15984634Y-12410960D02*
X15965586Y-12420484D01*
X15965586Y-12420484D02*
X15946539Y-12420484D01*
X15946539Y-12420484D02*
X15927491Y-12410960D01*
X15927491Y-12410960D02*
X15917967Y-12401436D01*
X15917967Y-12401436D02*
X15908443Y-12382388D01*
X15908443Y-12382388D02*
X15898920Y-12344293D01*
X15898920Y-12344293D02*
X15898920Y-12296674D01*
X15898920Y-12296674D02*
X15908443Y-12258579D01*
X15908443Y-12258579D02*
X15917967Y-12239531D01*
X15917967Y-12239531D02*
X15927491Y-12230008D01*
X15927491Y-12230008D02*
X15946539Y-12220484D01*
X16098920Y-12420484D02*
X16098920Y-12287150D01*
X16098920Y-12306198D02*
X16108443Y-12296674D01*
X16108443Y-12296674D02*
X16127491Y-12287150D01*
X16127491Y-12287150D02*
X16156063Y-12287150D01*
X16156063Y-12287150D02*
X16175110Y-12296674D01*
X16175110Y-12296674D02*
X16184634Y-12315722D01*
X16184634Y-12315722D02*
X16184634Y-12420484D01*
X16184634Y-12315722D02*
X16194158Y-12296674D01*
X16194158Y-12296674D02*
X16213205Y-12287150D01*
X16213205Y-12287150D02*
X16241777Y-12287150D01*
X16241777Y-12287150D02*
X16260824Y-12296674D01*
X16260824Y-12296674D02*
X16270348Y-12315722D01*
X16270348Y-12315722D02*
X16270348Y-12420484D01*
X16365586Y-12420484D02*
X16365586Y-12287150D01*
X16365586Y-12306198D02*
X16375110Y-12296674D01*
X16375110Y-12296674D02*
X16394158Y-12287150D01*
X16394158Y-12287150D02*
X16422729Y-12287150D01*
X16422729Y-12287150D02*
X16441777Y-12296674D01*
X16441777Y-12296674D02*
X16451301Y-12315722D01*
X16451301Y-12315722D02*
X16451301Y-12420484D01*
X16451301Y-12315722D02*
X16460824Y-12296674D01*
X16460824Y-12296674D02*
X16479872Y-12287150D01*
X16479872Y-12287150D02*
X16508443Y-12287150D01*
X16508443Y-12287150D02*
X16527491Y-12296674D01*
X16527491Y-12296674D02*
X16537015Y-12315722D01*
X16537015Y-12315722D02*
X16537015Y-12420484D01*
X16927491Y-12210960D02*
X16756063Y-12468103D01*
X17184634Y-12220484D02*
X17203682Y-12220484D01*
X17203682Y-12220484D02*
X17222729Y-12230008D01*
X17222729Y-12230008D02*
X17232253Y-12239531D01*
X17232253Y-12239531D02*
X17241777Y-12258579D01*
X17241777Y-12258579D02*
X17251301Y-12296674D01*
X17251301Y-12296674D02*
X17251301Y-12344293D01*
X17251301Y-12344293D02*
X17241777Y-12382388D01*
X17241777Y-12382388D02*
X17232253Y-12401436D01*
X17232253Y-12401436D02*
X17222729Y-12410960D01*
X17222729Y-12410960D02*
X17203682Y-12420484D01*
X17203682Y-12420484D02*
X17184634Y-12420484D01*
X17184634Y-12420484D02*
X17165587Y-12410960D01*
X17165587Y-12410960D02*
X17156063Y-12401436D01*
X17156063Y-12401436D02*
X17146539Y-12382388D01*
X17146539Y-12382388D02*
X17137015Y-12344293D01*
X17137015Y-12344293D02*
X17137015Y-12296674D01*
X17137015Y-12296674D02*
X17146539Y-12258579D01*
X17146539Y-12258579D02*
X17156063Y-12239531D01*
X17156063Y-12239531D02*
X17165587Y-12230008D01*
X17165587Y-12230008D02*
X17184634Y-12220484D01*
X17337015Y-12401436D02*
X17346539Y-12410960D01*
X17346539Y-12410960D02*
X17337015Y-12420484D01*
X17337015Y-12420484D02*
X17327491Y-12410960D01*
X17327491Y-12410960D02*
X17337015Y-12401436D01*
X17337015Y-12401436D02*
X17337015Y-12420484D01*
X17470348Y-12220484D02*
X17489396Y-12220484D01*
X17489396Y-12220484D02*
X17508444Y-12230008D01*
X17508444Y-12230008D02*
X17517968Y-12239531D01*
X17517968Y-12239531D02*
X17527491Y-12258579D01*
X17527491Y-12258579D02*
X17537015Y-12296674D01*
X17537015Y-12296674D02*
X17537015Y-12344293D01*
X17537015Y-12344293D02*
X17527491Y-12382388D01*
X17527491Y-12382388D02*
X17517968Y-12401436D01*
X17517968Y-12401436D02*
X17508444Y-12410960D01*
X17508444Y-12410960D02*
X17489396Y-12420484D01*
X17489396Y-12420484D02*
X17470348Y-12420484D01*
X17470348Y-12420484D02*
X17451301Y-12410960D01*
X17451301Y-12410960D02*
X17441777Y-12401436D01*
X17441777Y-12401436D02*
X17432253Y-12382388D01*
X17432253Y-12382388D02*
X17422729Y-12344293D01*
X17422729Y-12344293D02*
X17422729Y-12296674D01*
X17422729Y-12296674D02*
X17432253Y-12258579D01*
X17432253Y-12258579D02*
X17441777Y-12239531D01*
X17441777Y-12239531D02*
X17451301Y-12230008D01*
X17451301Y-12230008D02*
X17470348Y-12220484D01*
X17727491Y-12420484D02*
X17613206Y-12420484D01*
X17670348Y-12420484D02*
X17670348Y-12220484D01*
X17670348Y-12220484D02*
X17651301Y-12249055D01*
X17651301Y-12249055D02*
X17632253Y-12268103D01*
X17632253Y-12268103D02*
X17613206Y-12277627D01*
X17908444Y-12220484D02*
X17813206Y-12220484D01*
X17813206Y-12220484D02*
X17803682Y-12315722D01*
X17803682Y-12315722D02*
X17813206Y-12306198D01*
X17813206Y-12306198D02*
X17832253Y-12296674D01*
X17832253Y-12296674D02*
X17879872Y-12296674D01*
X17879872Y-12296674D02*
X17898920Y-12306198D01*
X17898920Y-12306198D02*
X17908444Y-12315722D01*
X17908444Y-12315722D02*
X17917968Y-12334769D01*
X17917968Y-12334769D02*
X17917968Y-12382388D01*
X17917968Y-12382388D02*
X17908444Y-12401436D01*
X17908444Y-12401436D02*
X17898920Y-12410960D01*
X17898920Y-12410960D02*
X17879872Y-12420484D01*
X17879872Y-12420484D02*
X17832253Y-12420484D01*
X17832253Y-12420484D02*
X17813206Y-12410960D01*
X17813206Y-12410960D02*
X17803682Y-12401436D01*
X17984634Y-12220484D02*
X18117968Y-12220484D01*
X18117968Y-12220484D02*
X18032253Y-12420484D01*
X18184634Y-12220484D02*
X18184634Y-12258579D01*
X18260825Y-12220484D02*
X18260825Y-12258579D01*
X18556063Y-12496674D02*
X18546539Y-12487150D01*
X18546539Y-12487150D02*
X18527491Y-12458579D01*
X18527491Y-12458579D02*
X18517968Y-12439531D01*
X18517968Y-12439531D02*
X18508444Y-12410960D01*
X18508444Y-12410960D02*
X18498920Y-12363341D01*
X18498920Y-12363341D02*
X18498920Y-12325246D01*
X18498920Y-12325246D02*
X18508444Y-12277627D01*
X18508444Y-12277627D02*
X18517968Y-12249055D01*
X18517968Y-12249055D02*
X18527491Y-12230008D01*
X18527491Y-12230008D02*
X18546539Y-12201436D01*
X18546539Y-12201436D02*
X18556063Y-12191912D01*
X18727491Y-12220484D02*
X18632253Y-12220484D01*
X18632253Y-12220484D02*
X18622730Y-12315722D01*
X18622730Y-12315722D02*
X18632253Y-12306198D01*
X18632253Y-12306198D02*
X18651301Y-12296674D01*
X18651301Y-12296674D02*
X18698920Y-12296674D01*
X18698920Y-12296674D02*
X18717968Y-12306198D01*
X18717968Y-12306198D02*
X18727491Y-12315722D01*
X18727491Y-12315722D02*
X18737015Y-12334769D01*
X18737015Y-12334769D02*
X18737015Y-12382388D01*
X18737015Y-12382388D02*
X18727491Y-12401436D01*
X18727491Y-12401436D02*
X18717968Y-12410960D01*
X18717968Y-12410960D02*
X18698920Y-12420484D01*
X18698920Y-12420484D02*
X18651301Y-12420484D01*
X18651301Y-12420484D02*
X18632253Y-12410960D01*
X18632253Y-12410960D02*
X18622730Y-12401436D01*
X18860825Y-12220484D02*
X18879872Y-12220484D01*
X18879872Y-12220484D02*
X18898920Y-12230008D01*
X18898920Y-12230008D02*
X18908444Y-12239531D01*
X18908444Y-12239531D02*
X18917968Y-12258579D01*
X18917968Y-12258579D02*
X18927491Y-12296674D01*
X18927491Y-12296674D02*
X18927491Y-12344293D01*
X18927491Y-12344293D02*
X18917968Y-12382388D01*
X18917968Y-12382388D02*
X18908444Y-12401436D01*
X18908444Y-12401436D02*
X18898920Y-12410960D01*
X18898920Y-12410960D02*
X18879872Y-12420484D01*
X18879872Y-12420484D02*
X18860825Y-12420484D01*
X18860825Y-12420484D02*
X18841777Y-12410960D01*
X18841777Y-12410960D02*
X18832253Y-12401436D01*
X18832253Y-12401436D02*
X18822730Y-12382388D01*
X18822730Y-12382388D02*
X18813206Y-12344293D01*
X18813206Y-12344293D02*
X18813206Y-12296674D01*
X18813206Y-12296674D02*
X18822730Y-12258579D01*
X18822730Y-12258579D02*
X18832253Y-12239531D01*
X18832253Y-12239531D02*
X18841777Y-12230008D01*
X18841777Y-12230008D02*
X18860825Y-12220484D01*
X19165587Y-12420484D02*
X19165587Y-12220484D01*
X19251301Y-12420484D02*
X19251301Y-12315722D01*
X19251301Y-12315722D02*
X19241777Y-12296674D01*
X19241777Y-12296674D02*
X19222730Y-12287150D01*
X19222730Y-12287150D02*
X19194158Y-12287150D01*
X19194158Y-12287150D02*
X19175111Y-12296674D01*
X19175111Y-12296674D02*
X19165587Y-12306198D01*
X19375111Y-12420484D02*
X19356063Y-12410960D01*
X19356063Y-12410960D02*
X19346539Y-12401436D01*
X19346539Y-12401436D02*
X19337015Y-12382388D01*
X19337015Y-12382388D02*
X19337015Y-12325246D01*
X19337015Y-12325246D02*
X19346539Y-12306198D01*
X19346539Y-12306198D02*
X19356063Y-12296674D01*
X19356063Y-12296674D02*
X19375111Y-12287150D01*
X19375111Y-12287150D02*
X19403682Y-12287150D01*
X19403682Y-12287150D02*
X19422730Y-12296674D01*
X19422730Y-12296674D02*
X19432253Y-12306198D01*
X19432253Y-12306198D02*
X19441777Y-12325246D01*
X19441777Y-12325246D02*
X19441777Y-12382388D01*
X19441777Y-12382388D02*
X19432253Y-12401436D01*
X19432253Y-12401436D02*
X19422730Y-12410960D01*
X19422730Y-12410960D02*
X19403682Y-12420484D01*
X19403682Y-12420484D02*
X19375111Y-12420484D01*
X19556063Y-12420484D02*
X19537015Y-12410960D01*
X19537015Y-12410960D02*
X19527492Y-12391912D01*
X19527492Y-12391912D02*
X19527492Y-12220484D01*
X19708444Y-12410960D02*
X19689396Y-12420484D01*
X19689396Y-12420484D02*
X19651301Y-12420484D01*
X19651301Y-12420484D02*
X19632253Y-12410960D01*
X19632253Y-12410960D02*
X19622730Y-12391912D01*
X19622730Y-12391912D02*
X19622730Y-12315722D01*
X19622730Y-12315722D02*
X19632253Y-12296674D01*
X19632253Y-12296674D02*
X19651301Y-12287150D01*
X19651301Y-12287150D02*
X19689396Y-12287150D01*
X19689396Y-12287150D02*
X19708444Y-12296674D01*
X19708444Y-12296674D02*
X19717968Y-12315722D01*
X19717968Y-12315722D02*
X19717968Y-12334769D01*
X19717968Y-12334769D02*
X19622730Y-12353817D01*
X19794158Y-12410960D02*
X19813206Y-12420484D01*
X19813206Y-12420484D02*
X19851301Y-12420484D01*
X19851301Y-12420484D02*
X19870349Y-12410960D01*
X19870349Y-12410960D02*
X19879873Y-12391912D01*
X19879873Y-12391912D02*
X19879873Y-12382388D01*
X19879873Y-12382388D02*
X19870349Y-12363341D01*
X19870349Y-12363341D02*
X19851301Y-12353817D01*
X19851301Y-12353817D02*
X19822730Y-12353817D01*
X19822730Y-12353817D02*
X19803682Y-12344293D01*
X19803682Y-12344293D02*
X19794158Y-12325246D01*
X19794158Y-12325246D02*
X19794158Y-12315722D01*
X19794158Y-12315722D02*
X19803682Y-12296674D01*
X19803682Y-12296674D02*
X19822730Y-12287150D01*
X19822730Y-12287150D02*
X19851301Y-12287150D01*
X19851301Y-12287150D02*
X19870349Y-12296674D01*
X19946539Y-12496674D02*
X19956063Y-12487150D01*
X19956063Y-12487150D02*
X19975111Y-12458579D01*
X19975111Y-12458579D02*
X19984634Y-12439531D01*
X19984634Y-12439531D02*
X19994158Y-12410960D01*
X19994158Y-12410960D02*
X20003682Y-12363341D01*
X20003682Y-12363341D02*
X20003682Y-12325246D01*
X20003682Y-12325246D02*
X19994158Y-12277627D01*
X19994158Y-12277627D02*
X19984634Y-12249055D01*
X19984634Y-12249055D02*
X19975111Y-12230008D01*
X19975111Y-12230008D02*
X19956063Y-12201436D01*
X19956063Y-12201436D02*
X19946539Y-12191912D01*
D10*
X14981000Y-12593000D02*
G75*
G03*
X14931000Y-12593000I-25000J0D01*
G01*
X14931000Y-12593000D02*
G75*
G03*
X14981000Y-12593000I25000J0D01*
G01*
D11*
X15279872Y-12484484D02*
X15298920Y-12484484D01*
X15298920Y-12484484D02*
X15317967Y-12494008D01*
X15317967Y-12494008D02*
X15327491Y-12503531D01*
X15327491Y-12503531D02*
X15337015Y-12522579D01*
X15337015Y-12522579D02*
X15346539Y-12560674D01*
X15346539Y-12560674D02*
X15346539Y-12608293D01*
X15346539Y-12608293D02*
X15337015Y-12646388D01*
X15337015Y-12646388D02*
X15327491Y-12665436D01*
X15327491Y-12665436D02*
X15317967Y-12674960D01*
X15317967Y-12674960D02*
X15298920Y-12684484D01*
X15298920Y-12684484D02*
X15279872Y-12684484D01*
X15279872Y-12684484D02*
X15260824Y-12674960D01*
X15260824Y-12674960D02*
X15251301Y-12665436D01*
X15251301Y-12665436D02*
X15241777Y-12646388D01*
X15241777Y-12646388D02*
X15232253Y-12608293D01*
X15232253Y-12608293D02*
X15232253Y-12560674D01*
X15232253Y-12560674D02*
X15241777Y-12522579D01*
X15241777Y-12522579D02*
X15251301Y-12503531D01*
X15251301Y-12503531D02*
X15260824Y-12494008D01*
X15260824Y-12494008D02*
X15279872Y-12484484D01*
X15432253Y-12665436D02*
X15441777Y-12674960D01*
X15441777Y-12674960D02*
X15432253Y-12684484D01*
X15432253Y-12684484D02*
X15422729Y-12674960D01*
X15422729Y-12674960D02*
X15432253Y-12665436D01*
X15432253Y-12665436D02*
X15432253Y-12684484D01*
X15622729Y-12484484D02*
X15527491Y-12484484D01*
X15527491Y-12484484D02*
X15517967Y-12579722D01*
X15517967Y-12579722D02*
X15527491Y-12570198D01*
X15527491Y-12570198D02*
X15546539Y-12560674D01*
X15546539Y-12560674D02*
X15594158Y-12560674D01*
X15594158Y-12560674D02*
X15613205Y-12570198D01*
X15613205Y-12570198D02*
X15622729Y-12579722D01*
X15622729Y-12579722D02*
X15632253Y-12598769D01*
X15632253Y-12598769D02*
X15632253Y-12646388D01*
X15632253Y-12646388D02*
X15622729Y-12665436D01*
X15622729Y-12665436D02*
X15613205Y-12674960D01*
X15613205Y-12674960D02*
X15594158Y-12684484D01*
X15594158Y-12684484D02*
X15546539Y-12684484D01*
X15546539Y-12684484D02*
X15527491Y-12674960D01*
X15527491Y-12674960D02*
X15517967Y-12665436D01*
X15756062Y-12484484D02*
X15775110Y-12484484D01*
X15775110Y-12484484D02*
X15794158Y-12494008D01*
X15794158Y-12494008D02*
X15803682Y-12503531D01*
X15803682Y-12503531D02*
X15813205Y-12522579D01*
X15813205Y-12522579D02*
X15822729Y-12560674D01*
X15822729Y-12560674D02*
X15822729Y-12608293D01*
X15822729Y-12608293D02*
X15813205Y-12646388D01*
X15813205Y-12646388D02*
X15803682Y-12665436D01*
X15803682Y-12665436D02*
X15794158Y-12674960D01*
X15794158Y-12674960D02*
X15775110Y-12684484D01*
X15775110Y-12684484D02*
X15756062Y-12684484D01*
X15756062Y-12684484D02*
X15737015Y-12674960D01*
X15737015Y-12674960D02*
X15727491Y-12665436D01*
X15727491Y-12665436D02*
X15717967Y-12646388D01*
X15717967Y-12646388D02*
X15708443Y-12608293D01*
X15708443Y-12608293D02*
X15708443Y-12560674D01*
X15708443Y-12560674D02*
X15717967Y-12522579D01*
X15717967Y-12522579D02*
X15727491Y-12503531D01*
X15727491Y-12503531D02*
X15737015Y-12494008D01*
X15737015Y-12494008D02*
X15756062Y-12484484D01*
X15946539Y-12484484D02*
X15965586Y-12484484D01*
X15965586Y-12484484D02*
X15984634Y-12494008D01*
X15984634Y-12494008D02*
X15994158Y-12503531D01*
X15994158Y-12503531D02*
X16003682Y-12522579D01*
X16003682Y-12522579D02*
X16013205Y-12560674D01*
X16013205Y-12560674D02*
X16013205Y-12608293D01*
X16013205Y-12608293D02*
X16003682Y-12646388D01*
X16003682Y-12646388D02*
X15994158Y-12665436D01*
X15994158Y-12665436D02*
X15984634Y-12674960D01*
X15984634Y-12674960D02*
X15965586Y-12684484D01*
X15965586Y-12684484D02*
X15946539Y-12684484D01*
X15946539Y-12684484D02*
X15927491Y-12674960D01*
X15927491Y-12674960D02*
X15917967Y-12665436D01*
X15917967Y-12665436D02*
X15908443Y-12646388D01*
X15908443Y-12646388D02*
X15898920Y-12608293D01*
X15898920Y-12608293D02*
X15898920Y-12560674D01*
X15898920Y-12560674D02*
X15908443Y-12522579D01*
X15908443Y-12522579D02*
X15917967Y-12503531D01*
X15917967Y-12503531D02*
X15927491Y-12494008D01*
X15927491Y-12494008D02*
X15946539Y-12484484D01*
X16098920Y-12684484D02*
X16098920Y-12551150D01*
X16098920Y-12570198D02*
X16108443Y-12560674D01*
X16108443Y-12560674D02*
X16127491Y-12551150D01*
X16127491Y-12551150D02*
X16156063Y-12551150D01*
X16156063Y-12551150D02*
X16175110Y-12560674D01*
X16175110Y-12560674D02*
X16184634Y-12579722D01*
X16184634Y-12579722D02*
X16184634Y-12684484D01*
X16184634Y-12579722D02*
X16194158Y-12560674D01*
X16194158Y-12560674D02*
X16213205Y-12551150D01*
X16213205Y-12551150D02*
X16241777Y-12551150D01*
X16241777Y-12551150D02*
X16260824Y-12560674D01*
X16260824Y-12560674D02*
X16270348Y-12579722D01*
X16270348Y-12579722D02*
X16270348Y-12684484D01*
X16365586Y-12684484D02*
X16365586Y-12551150D01*
X16365586Y-12570198D02*
X16375110Y-12560674D01*
X16375110Y-12560674D02*
X16394158Y-12551150D01*
X16394158Y-12551150D02*
X16422729Y-12551150D01*
X16422729Y-12551150D02*
X16441777Y-12560674D01*
X16441777Y-12560674D02*
X16451301Y-12579722D01*
X16451301Y-12579722D02*
X16451301Y-12684484D01*
X16451301Y-12579722D02*
X16460824Y-12560674D01*
X16460824Y-12560674D02*
X16479872Y-12551150D01*
X16479872Y-12551150D02*
X16508443Y-12551150D01*
X16508443Y-12551150D02*
X16527491Y-12560674D01*
X16527491Y-12560674D02*
X16537015Y-12579722D01*
X16537015Y-12579722D02*
X16537015Y-12684484D01*
X16927491Y-12474960D02*
X16756063Y-12732103D01*
X17184634Y-12484484D02*
X17203682Y-12484484D01*
X17203682Y-12484484D02*
X17222729Y-12494008D01*
X17222729Y-12494008D02*
X17232253Y-12503531D01*
X17232253Y-12503531D02*
X17241777Y-12522579D01*
X17241777Y-12522579D02*
X17251301Y-12560674D01*
X17251301Y-12560674D02*
X17251301Y-12608293D01*
X17251301Y-12608293D02*
X17241777Y-12646388D01*
X17241777Y-12646388D02*
X17232253Y-12665436D01*
X17232253Y-12665436D02*
X17222729Y-12674960D01*
X17222729Y-12674960D02*
X17203682Y-12684484D01*
X17203682Y-12684484D02*
X17184634Y-12684484D01*
X17184634Y-12684484D02*
X17165587Y-12674960D01*
X17165587Y-12674960D02*
X17156063Y-12665436D01*
X17156063Y-12665436D02*
X17146539Y-12646388D01*
X17146539Y-12646388D02*
X17137015Y-12608293D01*
X17137015Y-12608293D02*
X17137015Y-12560674D01*
X17137015Y-12560674D02*
X17146539Y-12522579D01*
X17146539Y-12522579D02*
X17156063Y-12503531D01*
X17156063Y-12503531D02*
X17165587Y-12494008D01*
X17165587Y-12494008D02*
X17184634Y-12484484D01*
X17337015Y-12665436D02*
X17346539Y-12674960D01*
X17346539Y-12674960D02*
X17337015Y-12684484D01*
X17337015Y-12684484D02*
X17327491Y-12674960D01*
X17327491Y-12674960D02*
X17337015Y-12665436D01*
X17337015Y-12665436D02*
X17337015Y-12684484D01*
X17470348Y-12484484D02*
X17489396Y-12484484D01*
X17489396Y-12484484D02*
X17508444Y-12494008D01*
X17508444Y-12494008D02*
X17517968Y-12503531D01*
X17517968Y-12503531D02*
X17527491Y-12522579D01*
X17527491Y-12522579D02*
X17537015Y-12560674D01*
X17537015Y-12560674D02*
X17537015Y-12608293D01*
X17537015Y-12608293D02*
X17527491Y-12646388D01*
X17527491Y-12646388D02*
X17517968Y-12665436D01*
X17517968Y-12665436D02*
X17508444Y-12674960D01*
X17508444Y-12674960D02*
X17489396Y-12684484D01*
X17489396Y-12684484D02*
X17470348Y-12684484D01*
X17470348Y-12684484D02*
X17451301Y-12674960D01*
X17451301Y-12674960D02*
X17441777Y-12665436D01*
X17441777Y-12665436D02*
X17432253Y-12646388D01*
X17432253Y-12646388D02*
X17422729Y-12608293D01*
X17422729Y-12608293D02*
X17422729Y-12560674D01*
X17422729Y-12560674D02*
X17432253Y-12522579D01*
X17432253Y-12522579D02*
X17441777Y-12503531D01*
X17441777Y-12503531D02*
X17451301Y-12494008D01*
X17451301Y-12494008D02*
X17470348Y-12484484D01*
X17727491Y-12684484D02*
X17613206Y-12684484D01*
X17670348Y-12684484D02*
X17670348Y-12484484D01*
X17670348Y-12484484D02*
X17651301Y-12513055D01*
X17651301Y-12513055D02*
X17632253Y-12532103D01*
X17632253Y-12532103D02*
X17613206Y-12541627D01*
X17822729Y-12684484D02*
X17860825Y-12684484D01*
X17860825Y-12684484D02*
X17879872Y-12674960D01*
X17879872Y-12674960D02*
X17889396Y-12665436D01*
X17889396Y-12665436D02*
X17908444Y-12636865D01*
X17908444Y-12636865D02*
X17917968Y-12598769D01*
X17917968Y-12598769D02*
X17917968Y-12522579D01*
X17917968Y-12522579D02*
X17908444Y-12503531D01*
X17908444Y-12503531D02*
X17898920Y-12494008D01*
X17898920Y-12494008D02*
X17879872Y-12484484D01*
X17879872Y-12484484D02*
X17841777Y-12484484D01*
X17841777Y-12484484D02*
X17822729Y-12494008D01*
X17822729Y-12494008D02*
X17813206Y-12503531D01*
X17813206Y-12503531D02*
X17803682Y-12522579D01*
X17803682Y-12522579D02*
X17803682Y-12570198D01*
X17803682Y-12570198D02*
X17813206Y-12589246D01*
X17813206Y-12589246D02*
X17822729Y-12598769D01*
X17822729Y-12598769D02*
X17841777Y-12608293D01*
X17841777Y-12608293D02*
X17879872Y-12608293D01*
X17879872Y-12608293D02*
X17898920Y-12598769D01*
X17898920Y-12598769D02*
X17908444Y-12589246D01*
X17908444Y-12589246D02*
X17917968Y-12570198D01*
X17984634Y-12484484D02*
X18117968Y-12484484D01*
X18117968Y-12484484D02*
X18032253Y-12684484D01*
X18184634Y-12484484D02*
X18184634Y-12522579D01*
X18260825Y-12484484D02*
X18260825Y-12522579D01*
X18556063Y-12760674D02*
X18546539Y-12751150D01*
X18546539Y-12751150D02*
X18527491Y-12722579D01*
X18527491Y-12722579D02*
X18517968Y-12703531D01*
X18517968Y-12703531D02*
X18508444Y-12674960D01*
X18508444Y-12674960D02*
X18498920Y-12627341D01*
X18498920Y-12627341D02*
X18498920Y-12589246D01*
X18498920Y-12589246D02*
X18508444Y-12541627D01*
X18508444Y-12541627D02*
X18517968Y-12513055D01*
X18517968Y-12513055D02*
X18527491Y-12494008D01*
X18527491Y-12494008D02*
X18546539Y-12465436D01*
X18546539Y-12465436D02*
X18556063Y-12455912D01*
X18737015Y-12684484D02*
X18622730Y-12684484D01*
X18679872Y-12684484D02*
X18679872Y-12484484D01*
X18679872Y-12484484D02*
X18660825Y-12513055D01*
X18660825Y-12513055D02*
X18641777Y-12532103D01*
X18641777Y-12532103D02*
X18622730Y-12541627D01*
X18908444Y-12551150D02*
X18908444Y-12684484D01*
X18860825Y-12474960D02*
X18813206Y-12617817D01*
X18813206Y-12617817D02*
X18937015Y-12617817D01*
X19165587Y-12684484D02*
X19165587Y-12484484D01*
X19251301Y-12684484D02*
X19251301Y-12579722D01*
X19251301Y-12579722D02*
X19241777Y-12560674D01*
X19241777Y-12560674D02*
X19222730Y-12551150D01*
X19222730Y-12551150D02*
X19194158Y-12551150D01*
X19194158Y-12551150D02*
X19175111Y-12560674D01*
X19175111Y-12560674D02*
X19165587Y-12570198D01*
X19375111Y-12684484D02*
X19356063Y-12674960D01*
X19356063Y-12674960D02*
X19346539Y-12665436D01*
X19346539Y-12665436D02*
X19337015Y-12646388D01*
X19337015Y-12646388D02*
X19337015Y-12589246D01*
X19337015Y-12589246D02*
X19346539Y-12570198D01*
X19346539Y-12570198D02*
X19356063Y-12560674D01*
X19356063Y-12560674D02*
X19375111Y-12551150D01*
X19375111Y-12551150D02*
X19403682Y-12551150D01*
X19403682Y-12551150D02*
X19422730Y-12560674D01*
X19422730Y-12560674D02*
X19432253Y-12570198D01*
X19432253Y-12570198D02*
X19441777Y-12589246D01*
X19441777Y-12589246D02*
X19441777Y-12646388D01*
X19441777Y-12646388D02*
X19432253Y-12665436D01*
X19432253Y-12665436D02*
X19422730Y-12674960D01*
X19422730Y-12674960D02*
X19403682Y-12684484D01*
X19403682Y-12684484D02*
X19375111Y-12684484D01*
X19556063Y-12684484D02*
X19537015Y-12674960D01*
X19537015Y-12674960D02*
X19527492Y-12655912D01*
X19527492Y-12655912D02*
X19527492Y-12484484D01*
X19708444Y-12674960D02*
X19689396Y-12684484D01*
X19689396Y-12684484D02*
X19651301Y-12684484D01*
X19651301Y-12684484D02*
X19632253Y-12674960D01*
X19632253Y-12674960D02*
X19622730Y-12655912D01*
X19622730Y-12655912D02*
X19622730Y-12579722D01*
X19622730Y-12579722D02*
X19632253Y-12560674D01*
X19632253Y-12560674D02*
X19651301Y-12551150D01*
X19651301Y-12551150D02*
X19689396Y-12551150D01*
X19689396Y-12551150D02*
X19708444Y-12560674D01*
X19708444Y-12560674D02*
X19717968Y-12579722D01*
X19717968Y-12579722D02*
X19717968Y-12598769D01*
X19717968Y-12598769D02*
X19622730Y-12617817D01*
X19794158Y-12674960D02*
X19813206Y-12684484D01*
X19813206Y-12684484D02*
X19851301Y-12684484D01*
X19851301Y-12684484D02*
X19870349Y-12674960D01*
X19870349Y-12674960D02*
X19879873Y-12655912D01*
X19879873Y-12655912D02*
X19879873Y-12646388D01*
X19879873Y-12646388D02*
X19870349Y-12627341D01*
X19870349Y-12627341D02*
X19851301Y-12617817D01*
X19851301Y-12617817D02*
X19822730Y-12617817D01*
X19822730Y-12617817D02*
X19803682Y-12608293D01*
X19803682Y-12608293D02*
X19794158Y-12589246D01*
X19794158Y-12589246D02*
X19794158Y-12579722D01*
X19794158Y-12579722D02*
X19803682Y-12560674D01*
X19803682Y-12560674D02*
X19822730Y-12551150D01*
X19822730Y-12551150D02*
X19851301Y-12551150D01*
X19851301Y-12551150D02*
X19870349Y-12560674D01*
X19946539Y-12760674D02*
X19956063Y-12751150D01*
X19956063Y-12751150D02*
X19975111Y-12722579D01*
X19975111Y-12722579D02*
X19984634Y-12703531D01*
X19984634Y-12703531D02*
X19994158Y-12674960D01*
X19994158Y-12674960D02*
X20003682Y-12627341D01*
X20003682Y-12627341D02*
X20003682Y-12589246D01*
X20003682Y-12589246D02*
X19994158Y-12541627D01*
X19994158Y-12541627D02*
X19984634Y-12513055D01*
X19984634Y-12513055D02*
X19975111Y-12494008D01*
X19975111Y-12494008D02*
X19956063Y-12465436D01*
X19956063Y-12465436D02*
X19946539Y-12455912D01*
D10*
X14951000Y-12827000D02*
X14951000Y-12887000D01*
X14921000Y-12857000D02*
X14981000Y-12857000D01*
D11*
X15279872Y-12748484D02*
X15298920Y-12748484D01*
X15298920Y-12748484D02*
X15317967Y-12758008D01*
X15317967Y-12758008D02*
X15327491Y-12767531D01*
X15327491Y-12767531D02*
X15337015Y-12786579D01*
X15337015Y-12786579D02*
X15346539Y-12824674D01*
X15346539Y-12824674D02*
X15346539Y-12872293D01*
X15346539Y-12872293D02*
X15337015Y-12910388D01*
X15337015Y-12910388D02*
X15327491Y-12929436D01*
X15327491Y-12929436D02*
X15317967Y-12938960D01*
X15317967Y-12938960D02*
X15298920Y-12948484D01*
X15298920Y-12948484D02*
X15279872Y-12948484D01*
X15279872Y-12948484D02*
X15260824Y-12938960D01*
X15260824Y-12938960D02*
X15251301Y-12929436D01*
X15251301Y-12929436D02*
X15241777Y-12910388D01*
X15241777Y-12910388D02*
X15232253Y-12872293D01*
X15232253Y-12872293D02*
X15232253Y-12824674D01*
X15232253Y-12824674D02*
X15241777Y-12786579D01*
X15241777Y-12786579D02*
X15251301Y-12767531D01*
X15251301Y-12767531D02*
X15260824Y-12758008D01*
X15260824Y-12758008D02*
X15279872Y-12748484D01*
X15432253Y-12929436D02*
X15441777Y-12938960D01*
X15441777Y-12938960D02*
X15432253Y-12948484D01*
X15432253Y-12948484D02*
X15422729Y-12938960D01*
X15422729Y-12938960D02*
X15432253Y-12929436D01*
X15432253Y-12929436D02*
X15432253Y-12948484D01*
X15613205Y-12748484D02*
X15575110Y-12748484D01*
X15575110Y-12748484D02*
X15556062Y-12758008D01*
X15556062Y-12758008D02*
X15546539Y-12767531D01*
X15546539Y-12767531D02*
X15527491Y-12796103D01*
X15527491Y-12796103D02*
X15517967Y-12834198D01*
X15517967Y-12834198D02*
X15517967Y-12910388D01*
X15517967Y-12910388D02*
X15527491Y-12929436D01*
X15527491Y-12929436D02*
X15537015Y-12938960D01*
X15537015Y-12938960D02*
X15556062Y-12948484D01*
X15556062Y-12948484D02*
X15594158Y-12948484D01*
X15594158Y-12948484D02*
X15613205Y-12938960D01*
X15613205Y-12938960D02*
X15622729Y-12929436D01*
X15622729Y-12929436D02*
X15632253Y-12910388D01*
X15632253Y-12910388D02*
X15632253Y-12862769D01*
X15632253Y-12862769D02*
X15622729Y-12843722D01*
X15622729Y-12843722D02*
X15613205Y-12834198D01*
X15613205Y-12834198D02*
X15594158Y-12824674D01*
X15594158Y-12824674D02*
X15556062Y-12824674D01*
X15556062Y-12824674D02*
X15537015Y-12834198D01*
X15537015Y-12834198D02*
X15527491Y-12843722D01*
X15527491Y-12843722D02*
X15517967Y-12862769D01*
X15756062Y-12748484D02*
X15775110Y-12748484D01*
X15775110Y-12748484D02*
X15794158Y-12758008D01*
X15794158Y-12758008D02*
X15803682Y-12767531D01*
X15803682Y-12767531D02*
X15813205Y-12786579D01*
X15813205Y-12786579D02*
X15822729Y-12824674D01*
X15822729Y-12824674D02*
X15822729Y-12872293D01*
X15822729Y-12872293D02*
X15813205Y-12910388D01*
X15813205Y-12910388D02*
X15803682Y-12929436D01*
X15803682Y-12929436D02*
X15794158Y-12938960D01*
X15794158Y-12938960D02*
X15775110Y-12948484D01*
X15775110Y-12948484D02*
X15756062Y-12948484D01*
X15756062Y-12948484D02*
X15737015Y-12938960D01*
X15737015Y-12938960D02*
X15727491Y-12929436D01*
X15727491Y-12929436D02*
X15717967Y-12910388D01*
X15717967Y-12910388D02*
X15708443Y-12872293D01*
X15708443Y-12872293D02*
X15708443Y-12824674D01*
X15708443Y-12824674D02*
X15717967Y-12786579D01*
X15717967Y-12786579D02*
X15727491Y-12767531D01*
X15727491Y-12767531D02*
X15737015Y-12758008D01*
X15737015Y-12758008D02*
X15756062Y-12748484D01*
X15946539Y-12748484D02*
X15965586Y-12748484D01*
X15965586Y-12748484D02*
X15984634Y-12758008D01*
X15984634Y-12758008D02*
X15994158Y-12767531D01*
X15994158Y-12767531D02*
X16003682Y-12786579D01*
X16003682Y-12786579D02*
X16013205Y-12824674D01*
X16013205Y-12824674D02*
X16013205Y-12872293D01*
X16013205Y-12872293D02*
X16003682Y-12910388D01*
X16003682Y-12910388D02*
X15994158Y-12929436D01*
X15994158Y-12929436D02*
X15984634Y-12938960D01*
X15984634Y-12938960D02*
X15965586Y-12948484D01*
X15965586Y-12948484D02*
X15946539Y-12948484D01*
X15946539Y-12948484D02*
X15927491Y-12938960D01*
X15927491Y-12938960D02*
X15917967Y-12929436D01*
X15917967Y-12929436D02*
X15908443Y-12910388D01*
X15908443Y-12910388D02*
X15898920Y-12872293D01*
X15898920Y-12872293D02*
X15898920Y-12824674D01*
X15898920Y-12824674D02*
X15908443Y-12786579D01*
X15908443Y-12786579D02*
X15917967Y-12767531D01*
X15917967Y-12767531D02*
X15927491Y-12758008D01*
X15927491Y-12758008D02*
X15946539Y-12748484D01*
X16098920Y-12948484D02*
X16098920Y-12815150D01*
X16098920Y-12834198D02*
X16108443Y-12824674D01*
X16108443Y-12824674D02*
X16127491Y-12815150D01*
X16127491Y-12815150D02*
X16156063Y-12815150D01*
X16156063Y-12815150D02*
X16175110Y-12824674D01*
X16175110Y-12824674D02*
X16184634Y-12843722D01*
X16184634Y-12843722D02*
X16184634Y-12948484D01*
X16184634Y-12843722D02*
X16194158Y-12824674D01*
X16194158Y-12824674D02*
X16213205Y-12815150D01*
X16213205Y-12815150D02*
X16241777Y-12815150D01*
X16241777Y-12815150D02*
X16260824Y-12824674D01*
X16260824Y-12824674D02*
X16270348Y-12843722D01*
X16270348Y-12843722D02*
X16270348Y-12948484D01*
X16365586Y-12948484D02*
X16365586Y-12815150D01*
X16365586Y-12834198D02*
X16375110Y-12824674D01*
X16375110Y-12824674D02*
X16394158Y-12815150D01*
X16394158Y-12815150D02*
X16422729Y-12815150D01*
X16422729Y-12815150D02*
X16441777Y-12824674D01*
X16441777Y-12824674D02*
X16451301Y-12843722D01*
X16451301Y-12843722D02*
X16451301Y-12948484D01*
X16451301Y-12843722D02*
X16460824Y-12824674D01*
X16460824Y-12824674D02*
X16479872Y-12815150D01*
X16479872Y-12815150D02*
X16508443Y-12815150D01*
X16508443Y-12815150D02*
X16527491Y-12824674D01*
X16527491Y-12824674D02*
X16537015Y-12843722D01*
X16537015Y-12843722D02*
X16537015Y-12948484D01*
X16927491Y-12738960D02*
X16756063Y-12996103D01*
X17184634Y-12748484D02*
X17203682Y-12748484D01*
X17203682Y-12748484D02*
X17222729Y-12758008D01*
X17222729Y-12758008D02*
X17232253Y-12767531D01*
X17232253Y-12767531D02*
X17241777Y-12786579D01*
X17241777Y-12786579D02*
X17251301Y-12824674D01*
X17251301Y-12824674D02*
X17251301Y-12872293D01*
X17251301Y-12872293D02*
X17241777Y-12910388D01*
X17241777Y-12910388D02*
X17232253Y-12929436D01*
X17232253Y-12929436D02*
X17222729Y-12938960D01*
X17222729Y-12938960D02*
X17203682Y-12948484D01*
X17203682Y-12948484D02*
X17184634Y-12948484D01*
X17184634Y-12948484D02*
X17165587Y-12938960D01*
X17165587Y-12938960D02*
X17156063Y-12929436D01*
X17156063Y-12929436D02*
X17146539Y-12910388D01*
X17146539Y-12910388D02*
X17137015Y-12872293D01*
X17137015Y-12872293D02*
X17137015Y-12824674D01*
X17137015Y-12824674D02*
X17146539Y-12786579D01*
X17146539Y-12786579D02*
X17156063Y-12767531D01*
X17156063Y-12767531D02*
X17165587Y-12758008D01*
X17165587Y-12758008D02*
X17184634Y-12748484D01*
X17337015Y-12929436D02*
X17346539Y-12938960D01*
X17346539Y-12938960D02*
X17337015Y-12948484D01*
X17337015Y-12948484D02*
X17327491Y-12938960D01*
X17327491Y-12938960D02*
X17337015Y-12929436D01*
X17337015Y-12929436D02*
X17337015Y-12948484D01*
X17470348Y-12748484D02*
X17489396Y-12748484D01*
X17489396Y-12748484D02*
X17508444Y-12758008D01*
X17508444Y-12758008D02*
X17517968Y-12767531D01*
X17517968Y-12767531D02*
X17527491Y-12786579D01*
X17527491Y-12786579D02*
X17537015Y-12824674D01*
X17537015Y-12824674D02*
X17537015Y-12872293D01*
X17537015Y-12872293D02*
X17527491Y-12910388D01*
X17527491Y-12910388D02*
X17517968Y-12929436D01*
X17517968Y-12929436D02*
X17508444Y-12938960D01*
X17508444Y-12938960D02*
X17489396Y-12948484D01*
X17489396Y-12948484D02*
X17470348Y-12948484D01*
X17470348Y-12948484D02*
X17451301Y-12938960D01*
X17451301Y-12938960D02*
X17441777Y-12929436D01*
X17441777Y-12929436D02*
X17432253Y-12910388D01*
X17432253Y-12910388D02*
X17422729Y-12872293D01*
X17422729Y-12872293D02*
X17422729Y-12824674D01*
X17422729Y-12824674D02*
X17432253Y-12786579D01*
X17432253Y-12786579D02*
X17441777Y-12767531D01*
X17441777Y-12767531D02*
X17451301Y-12758008D01*
X17451301Y-12758008D02*
X17470348Y-12748484D01*
X17613206Y-12767531D02*
X17622729Y-12758008D01*
X17622729Y-12758008D02*
X17641777Y-12748484D01*
X17641777Y-12748484D02*
X17689396Y-12748484D01*
X17689396Y-12748484D02*
X17708444Y-12758008D01*
X17708444Y-12758008D02*
X17717968Y-12767531D01*
X17717968Y-12767531D02*
X17727491Y-12786579D01*
X17727491Y-12786579D02*
X17727491Y-12805627D01*
X17727491Y-12805627D02*
X17717968Y-12834198D01*
X17717968Y-12834198D02*
X17603682Y-12948484D01*
X17603682Y-12948484D02*
X17727491Y-12948484D01*
X17794158Y-12748484D02*
X17917968Y-12748484D01*
X17917968Y-12748484D02*
X17851301Y-12824674D01*
X17851301Y-12824674D02*
X17879872Y-12824674D01*
X17879872Y-12824674D02*
X17898920Y-12834198D01*
X17898920Y-12834198D02*
X17908444Y-12843722D01*
X17908444Y-12843722D02*
X17917968Y-12862769D01*
X17917968Y-12862769D02*
X17917968Y-12910388D01*
X17917968Y-12910388D02*
X17908444Y-12929436D01*
X17908444Y-12929436D02*
X17898920Y-12938960D01*
X17898920Y-12938960D02*
X17879872Y-12948484D01*
X17879872Y-12948484D02*
X17822729Y-12948484D01*
X17822729Y-12948484D02*
X17803682Y-12938960D01*
X17803682Y-12938960D02*
X17794158Y-12929436D01*
X18089396Y-12748484D02*
X18051301Y-12748484D01*
X18051301Y-12748484D02*
X18032253Y-12758008D01*
X18032253Y-12758008D02*
X18022729Y-12767531D01*
X18022729Y-12767531D02*
X18003682Y-12796103D01*
X18003682Y-12796103D02*
X17994158Y-12834198D01*
X17994158Y-12834198D02*
X17994158Y-12910388D01*
X17994158Y-12910388D02*
X18003682Y-12929436D01*
X18003682Y-12929436D02*
X18013206Y-12938960D01*
X18013206Y-12938960D02*
X18032253Y-12948484D01*
X18032253Y-12948484D02*
X18070349Y-12948484D01*
X18070349Y-12948484D02*
X18089396Y-12938960D01*
X18089396Y-12938960D02*
X18098920Y-12929436D01*
X18098920Y-12929436D02*
X18108444Y-12910388D01*
X18108444Y-12910388D02*
X18108444Y-12862769D01*
X18108444Y-12862769D02*
X18098920Y-12843722D01*
X18098920Y-12843722D02*
X18089396Y-12834198D01*
X18089396Y-12834198D02*
X18070349Y-12824674D01*
X18070349Y-12824674D02*
X18032253Y-12824674D01*
X18032253Y-12824674D02*
X18013206Y-12834198D01*
X18013206Y-12834198D02*
X18003682Y-12843722D01*
X18003682Y-12843722D02*
X17994158Y-12862769D01*
X18184634Y-12748484D02*
X18184634Y-12786579D01*
X18260825Y-12748484D02*
X18260825Y-12786579D01*
X18556063Y-13024674D02*
X18546539Y-13015150D01*
X18546539Y-13015150D02*
X18527491Y-12986579D01*
X18527491Y-12986579D02*
X18517968Y-12967531D01*
X18517968Y-12967531D02*
X18508444Y-12938960D01*
X18508444Y-12938960D02*
X18498920Y-12891341D01*
X18498920Y-12891341D02*
X18498920Y-12853246D01*
X18498920Y-12853246D02*
X18508444Y-12805627D01*
X18508444Y-12805627D02*
X18517968Y-12777055D01*
X18517968Y-12777055D02*
X18527491Y-12758008D01*
X18527491Y-12758008D02*
X18546539Y-12729436D01*
X18546539Y-12729436D02*
X18556063Y-12719912D01*
X18613206Y-12748484D02*
X18737015Y-12748484D01*
X18737015Y-12748484D02*
X18670349Y-12824674D01*
X18670349Y-12824674D02*
X18698920Y-12824674D01*
X18698920Y-12824674D02*
X18717968Y-12834198D01*
X18717968Y-12834198D02*
X18727491Y-12843722D01*
X18727491Y-12843722D02*
X18737015Y-12862769D01*
X18737015Y-12862769D02*
X18737015Y-12910388D01*
X18737015Y-12910388D02*
X18727491Y-12929436D01*
X18727491Y-12929436D02*
X18717968Y-12938960D01*
X18717968Y-12938960D02*
X18698920Y-12948484D01*
X18698920Y-12948484D02*
X18641777Y-12948484D01*
X18641777Y-12948484D02*
X18622730Y-12938960D01*
X18622730Y-12938960D02*
X18613206Y-12929436D01*
X18813206Y-12767531D02*
X18822730Y-12758008D01*
X18822730Y-12758008D02*
X18841777Y-12748484D01*
X18841777Y-12748484D02*
X18889396Y-12748484D01*
X18889396Y-12748484D02*
X18908444Y-12758008D01*
X18908444Y-12758008D02*
X18917968Y-12767531D01*
X18917968Y-12767531D02*
X18927491Y-12786579D01*
X18927491Y-12786579D02*
X18927491Y-12805627D01*
X18927491Y-12805627D02*
X18917968Y-12834198D01*
X18917968Y-12834198D02*
X18803682Y-12948484D01*
X18803682Y-12948484D02*
X18927491Y-12948484D01*
X19165587Y-12948484D02*
X19165587Y-12748484D01*
X19251301Y-12948484D02*
X19251301Y-12843722D01*
X19251301Y-12843722D02*
X19241777Y-12824674D01*
X19241777Y-12824674D02*
X19222730Y-12815150D01*
X19222730Y-12815150D02*
X19194158Y-12815150D01*
X19194158Y-12815150D02*
X19175111Y-12824674D01*
X19175111Y-12824674D02*
X19165587Y-12834198D01*
X19375111Y-12948484D02*
X19356063Y-12938960D01*
X19356063Y-12938960D02*
X19346539Y-12929436D01*
X19346539Y-12929436D02*
X19337015Y-12910388D01*
X19337015Y-12910388D02*
X19337015Y-12853246D01*
X19337015Y-12853246D02*
X19346539Y-12834198D01*
X19346539Y-12834198D02*
X19356063Y-12824674D01*
X19356063Y-12824674D02*
X19375111Y-12815150D01*
X19375111Y-12815150D02*
X19403682Y-12815150D01*
X19403682Y-12815150D02*
X19422730Y-12824674D01*
X19422730Y-12824674D02*
X19432253Y-12834198D01*
X19432253Y-12834198D02*
X19441777Y-12853246D01*
X19441777Y-12853246D02*
X19441777Y-12910388D01*
X19441777Y-12910388D02*
X19432253Y-12929436D01*
X19432253Y-12929436D02*
X19422730Y-12938960D01*
X19422730Y-12938960D02*
X19403682Y-12948484D01*
X19403682Y-12948484D02*
X19375111Y-12948484D01*
X19556063Y-12948484D02*
X19537015Y-12938960D01*
X19537015Y-12938960D02*
X19527492Y-12919912D01*
X19527492Y-12919912D02*
X19527492Y-12748484D01*
X19708444Y-12938960D02*
X19689396Y-12948484D01*
X19689396Y-12948484D02*
X19651301Y-12948484D01*
X19651301Y-12948484D02*
X19632253Y-12938960D01*
X19632253Y-12938960D02*
X19622730Y-12919912D01*
X19622730Y-12919912D02*
X19622730Y-12843722D01*
X19622730Y-12843722D02*
X19632253Y-12824674D01*
X19632253Y-12824674D02*
X19651301Y-12815150D01*
X19651301Y-12815150D02*
X19689396Y-12815150D01*
X19689396Y-12815150D02*
X19708444Y-12824674D01*
X19708444Y-12824674D02*
X19717968Y-12843722D01*
X19717968Y-12843722D02*
X19717968Y-12862769D01*
X19717968Y-12862769D02*
X19622730Y-12881817D01*
X19794158Y-12938960D02*
X19813206Y-12948484D01*
X19813206Y-12948484D02*
X19851301Y-12948484D01*
X19851301Y-12948484D02*
X19870349Y-12938960D01*
X19870349Y-12938960D02*
X19879873Y-12919912D01*
X19879873Y-12919912D02*
X19879873Y-12910388D01*
X19879873Y-12910388D02*
X19870349Y-12891341D01*
X19870349Y-12891341D02*
X19851301Y-12881817D01*
X19851301Y-12881817D02*
X19822730Y-12881817D01*
X19822730Y-12881817D02*
X19803682Y-12872293D01*
X19803682Y-12872293D02*
X19794158Y-12853246D01*
X19794158Y-12853246D02*
X19794158Y-12843722D01*
X19794158Y-12843722D02*
X19803682Y-12824674D01*
X19803682Y-12824674D02*
X19822730Y-12815150D01*
X19822730Y-12815150D02*
X19851301Y-12815150D01*
X19851301Y-12815150D02*
X19870349Y-12824674D01*
X19946539Y-13024674D02*
X19956063Y-13015150D01*
X19956063Y-13015150D02*
X19975111Y-12986579D01*
X19975111Y-12986579D02*
X19984634Y-12967531D01*
X19984634Y-12967531D02*
X19994158Y-12938960D01*
X19994158Y-12938960D02*
X20003682Y-12891341D01*
X20003682Y-12891341D02*
X20003682Y-12853246D01*
X20003682Y-12853246D02*
X19994158Y-12805627D01*
X19994158Y-12805627D02*
X19984634Y-12777055D01*
X19984634Y-12777055D02*
X19975111Y-12758008D01*
X19975111Y-12758008D02*
X19956063Y-12729436D01*
X19956063Y-12729436D02*
X19946539Y-12719912D01*
D12*
X14963427Y-13163427D02*
X14963427Y-13078573D01*
X14878573Y-13078573D01*
X14878573Y-13163427D01*
X14963427Y-13163427D01*
D11*
X15346539Y-13212484D02*
X15232253Y-13212484D01*
X15289396Y-13212484D02*
X15289396Y-13012484D01*
X15289396Y-13012484D02*
X15270348Y-13041055D01*
X15270348Y-13041055D02*
X15251301Y-13060103D01*
X15251301Y-13060103D02*
X15232253Y-13069627D01*
X15432253Y-13193436D02*
X15441777Y-13202960D01*
X15441777Y-13202960D02*
X15432253Y-13212484D01*
X15432253Y-13212484D02*
X15422729Y-13202960D01*
X15422729Y-13202960D02*
X15432253Y-13193436D01*
X15432253Y-13193436D02*
X15432253Y-13212484D01*
X15517967Y-13031531D02*
X15527491Y-13022008D01*
X15527491Y-13022008D02*
X15546539Y-13012484D01*
X15546539Y-13012484D02*
X15594158Y-13012484D01*
X15594158Y-13012484D02*
X15613205Y-13022008D01*
X15613205Y-13022008D02*
X15622729Y-13031531D01*
X15622729Y-13031531D02*
X15632253Y-13050579D01*
X15632253Y-13050579D02*
X15632253Y-13069627D01*
X15632253Y-13069627D02*
X15622729Y-13098198D01*
X15622729Y-13098198D02*
X15508443Y-13212484D01*
X15508443Y-13212484D02*
X15632253Y-13212484D01*
X15756062Y-13012484D02*
X15775110Y-13012484D01*
X15775110Y-13012484D02*
X15794158Y-13022008D01*
X15794158Y-13022008D02*
X15803682Y-13031531D01*
X15803682Y-13031531D02*
X15813205Y-13050579D01*
X15813205Y-13050579D02*
X15822729Y-13088674D01*
X15822729Y-13088674D02*
X15822729Y-13136293D01*
X15822729Y-13136293D02*
X15813205Y-13174388D01*
X15813205Y-13174388D02*
X15803682Y-13193436D01*
X15803682Y-13193436D02*
X15794158Y-13202960D01*
X15794158Y-13202960D02*
X15775110Y-13212484D01*
X15775110Y-13212484D02*
X15756062Y-13212484D01*
X15756062Y-13212484D02*
X15737015Y-13202960D01*
X15737015Y-13202960D02*
X15727491Y-13193436D01*
X15727491Y-13193436D02*
X15717967Y-13174388D01*
X15717967Y-13174388D02*
X15708443Y-13136293D01*
X15708443Y-13136293D02*
X15708443Y-13088674D01*
X15708443Y-13088674D02*
X15717967Y-13050579D01*
X15717967Y-13050579D02*
X15727491Y-13031531D01*
X15727491Y-13031531D02*
X15737015Y-13022008D01*
X15737015Y-13022008D02*
X15756062Y-13012484D01*
X15946539Y-13012484D02*
X15965586Y-13012484D01*
X15965586Y-13012484D02*
X15984634Y-13022008D01*
X15984634Y-13022008D02*
X15994158Y-13031531D01*
X15994158Y-13031531D02*
X16003682Y-13050579D01*
X16003682Y-13050579D02*
X16013205Y-13088674D01*
X16013205Y-13088674D02*
X16013205Y-13136293D01*
X16013205Y-13136293D02*
X16003682Y-13174388D01*
X16003682Y-13174388D02*
X15994158Y-13193436D01*
X15994158Y-13193436D02*
X15984634Y-13202960D01*
X15984634Y-13202960D02*
X15965586Y-13212484D01*
X15965586Y-13212484D02*
X15946539Y-13212484D01*
X15946539Y-13212484D02*
X15927491Y-13202960D01*
X15927491Y-13202960D02*
X15917967Y-13193436D01*
X15917967Y-13193436D02*
X15908443Y-13174388D01*
X15908443Y-13174388D02*
X15898920Y-13136293D01*
X15898920Y-13136293D02*
X15898920Y-13088674D01*
X15898920Y-13088674D02*
X15908443Y-13050579D01*
X15908443Y-13050579D02*
X15917967Y-13031531D01*
X15917967Y-13031531D02*
X15927491Y-13022008D01*
X15927491Y-13022008D02*
X15946539Y-13012484D01*
X16098920Y-13212484D02*
X16098920Y-13079150D01*
X16098920Y-13098198D02*
X16108443Y-13088674D01*
X16108443Y-13088674D02*
X16127491Y-13079150D01*
X16127491Y-13079150D02*
X16156063Y-13079150D01*
X16156063Y-13079150D02*
X16175110Y-13088674D01*
X16175110Y-13088674D02*
X16184634Y-13107722D01*
X16184634Y-13107722D02*
X16184634Y-13212484D01*
X16184634Y-13107722D02*
X16194158Y-13088674D01*
X16194158Y-13088674D02*
X16213205Y-13079150D01*
X16213205Y-13079150D02*
X16241777Y-13079150D01*
X16241777Y-13079150D02*
X16260824Y-13088674D01*
X16260824Y-13088674D02*
X16270348Y-13107722D01*
X16270348Y-13107722D02*
X16270348Y-13212484D01*
X16365586Y-13212484D02*
X16365586Y-13079150D01*
X16365586Y-13098198D02*
X16375110Y-13088674D01*
X16375110Y-13088674D02*
X16394158Y-13079150D01*
X16394158Y-13079150D02*
X16422729Y-13079150D01*
X16422729Y-13079150D02*
X16441777Y-13088674D01*
X16441777Y-13088674D02*
X16451301Y-13107722D01*
X16451301Y-13107722D02*
X16451301Y-13212484D01*
X16451301Y-13107722D02*
X16460824Y-13088674D01*
X16460824Y-13088674D02*
X16479872Y-13079150D01*
X16479872Y-13079150D02*
X16508443Y-13079150D01*
X16508443Y-13079150D02*
X16527491Y-13088674D01*
X16527491Y-13088674D02*
X16537015Y-13107722D01*
X16537015Y-13107722D02*
X16537015Y-13212484D01*
X16927491Y-13002960D02*
X16756063Y-13260103D01*
X17184634Y-13012484D02*
X17203682Y-13012484D01*
X17203682Y-13012484D02*
X17222729Y-13022008D01*
X17222729Y-13022008D02*
X17232253Y-13031531D01*
X17232253Y-13031531D02*
X17241777Y-13050579D01*
X17241777Y-13050579D02*
X17251301Y-13088674D01*
X17251301Y-13088674D02*
X17251301Y-13136293D01*
X17251301Y-13136293D02*
X17241777Y-13174388D01*
X17241777Y-13174388D02*
X17232253Y-13193436D01*
X17232253Y-13193436D02*
X17222729Y-13202960D01*
X17222729Y-13202960D02*
X17203682Y-13212484D01*
X17203682Y-13212484D02*
X17184634Y-13212484D01*
X17184634Y-13212484D02*
X17165587Y-13202960D01*
X17165587Y-13202960D02*
X17156063Y-13193436D01*
X17156063Y-13193436D02*
X17146539Y-13174388D01*
X17146539Y-13174388D02*
X17137015Y-13136293D01*
X17137015Y-13136293D02*
X17137015Y-13088674D01*
X17137015Y-13088674D02*
X17146539Y-13050579D01*
X17146539Y-13050579D02*
X17156063Y-13031531D01*
X17156063Y-13031531D02*
X17165587Y-13022008D01*
X17165587Y-13022008D02*
X17184634Y-13012484D01*
X17337015Y-13193436D02*
X17346539Y-13202960D01*
X17346539Y-13202960D02*
X17337015Y-13212484D01*
X17337015Y-13212484D02*
X17327491Y-13202960D01*
X17327491Y-13202960D02*
X17337015Y-13193436D01*
X17337015Y-13193436D02*
X17337015Y-13212484D01*
X17470348Y-13012484D02*
X17489396Y-13012484D01*
X17489396Y-13012484D02*
X17508444Y-13022008D01*
X17508444Y-13022008D02*
X17517968Y-13031531D01*
X17517968Y-13031531D02*
X17527491Y-13050579D01*
X17527491Y-13050579D02*
X17537015Y-13088674D01*
X17537015Y-13088674D02*
X17537015Y-13136293D01*
X17537015Y-13136293D02*
X17527491Y-13174388D01*
X17527491Y-13174388D02*
X17517968Y-13193436D01*
X17517968Y-13193436D02*
X17508444Y-13202960D01*
X17508444Y-13202960D02*
X17489396Y-13212484D01*
X17489396Y-13212484D02*
X17470348Y-13212484D01*
X17470348Y-13212484D02*
X17451301Y-13202960D01*
X17451301Y-13202960D02*
X17441777Y-13193436D01*
X17441777Y-13193436D02*
X17432253Y-13174388D01*
X17432253Y-13174388D02*
X17422729Y-13136293D01*
X17422729Y-13136293D02*
X17422729Y-13088674D01*
X17422729Y-13088674D02*
X17432253Y-13050579D01*
X17432253Y-13050579D02*
X17441777Y-13031531D01*
X17441777Y-13031531D02*
X17451301Y-13022008D01*
X17451301Y-13022008D02*
X17470348Y-13012484D01*
X17708444Y-13079150D02*
X17708444Y-13212484D01*
X17660825Y-13002960D02*
X17613206Y-13145817D01*
X17613206Y-13145817D02*
X17737015Y-13145817D01*
X17794158Y-13012484D02*
X17927491Y-13012484D01*
X17927491Y-13012484D02*
X17841777Y-13212484D01*
X17994158Y-13031531D02*
X18003682Y-13022008D01*
X18003682Y-13022008D02*
X18022729Y-13012484D01*
X18022729Y-13012484D02*
X18070349Y-13012484D01*
X18070349Y-13012484D02*
X18089396Y-13022008D01*
X18089396Y-13022008D02*
X18098920Y-13031531D01*
X18098920Y-13031531D02*
X18108444Y-13050579D01*
X18108444Y-13050579D02*
X18108444Y-13069627D01*
X18108444Y-13069627D02*
X18098920Y-13098198D01*
X18098920Y-13098198D02*
X17984634Y-13212484D01*
X17984634Y-13212484D02*
X18108444Y-13212484D01*
X18184634Y-13012484D02*
X18184634Y-13050579D01*
X18260825Y-13012484D02*
X18260825Y-13050579D01*
X18556063Y-13288674D02*
X18546539Y-13279150D01*
X18546539Y-13279150D02*
X18527491Y-13250579D01*
X18527491Y-13250579D02*
X18517968Y-13231531D01*
X18517968Y-13231531D02*
X18508444Y-13202960D01*
X18508444Y-13202960D02*
X18498920Y-13155341D01*
X18498920Y-13155341D02*
X18498920Y-13117246D01*
X18498920Y-13117246D02*
X18508444Y-13069627D01*
X18508444Y-13069627D02*
X18517968Y-13041055D01*
X18517968Y-13041055D02*
X18527491Y-13022008D01*
X18527491Y-13022008D02*
X18546539Y-12993436D01*
X18546539Y-12993436D02*
X18556063Y-12983912D01*
X18622730Y-13031531D02*
X18632253Y-13022008D01*
X18632253Y-13022008D02*
X18651301Y-13012484D01*
X18651301Y-13012484D02*
X18698920Y-13012484D01*
X18698920Y-13012484D02*
X18717968Y-13022008D01*
X18717968Y-13022008D02*
X18727491Y-13031531D01*
X18727491Y-13031531D02*
X18737015Y-13050579D01*
X18737015Y-13050579D02*
X18737015Y-13069627D01*
X18737015Y-13069627D02*
X18727491Y-13098198D01*
X18727491Y-13098198D02*
X18613206Y-13212484D01*
X18613206Y-13212484D02*
X18737015Y-13212484D01*
X18975111Y-13212484D02*
X18975111Y-13012484D01*
X19060825Y-13212484D02*
X19060825Y-13107722D01*
X19060825Y-13107722D02*
X19051301Y-13088674D01*
X19051301Y-13088674D02*
X19032253Y-13079150D01*
X19032253Y-13079150D02*
X19003682Y-13079150D01*
X19003682Y-13079150D02*
X18984634Y-13088674D01*
X18984634Y-13088674D02*
X18975111Y-13098198D01*
X19184634Y-13212484D02*
X19165587Y-13202960D01*
X19165587Y-13202960D02*
X19156063Y-13193436D01*
X19156063Y-13193436D02*
X19146539Y-13174388D01*
X19146539Y-13174388D02*
X19146539Y-13117246D01*
X19146539Y-13117246D02*
X19156063Y-13098198D01*
X19156063Y-13098198D02*
X19165587Y-13088674D01*
X19165587Y-13088674D02*
X19184634Y-13079150D01*
X19184634Y-13079150D02*
X19213206Y-13079150D01*
X19213206Y-13079150D02*
X19232253Y-13088674D01*
X19232253Y-13088674D02*
X19241777Y-13098198D01*
X19241777Y-13098198D02*
X19251301Y-13117246D01*
X19251301Y-13117246D02*
X19251301Y-13174388D01*
X19251301Y-13174388D02*
X19241777Y-13193436D01*
X19241777Y-13193436D02*
X19232253Y-13202960D01*
X19232253Y-13202960D02*
X19213206Y-13212484D01*
X19213206Y-13212484D02*
X19184634Y-13212484D01*
X19365587Y-13212484D02*
X19346539Y-13202960D01*
X19346539Y-13202960D02*
X19337015Y-13183912D01*
X19337015Y-13183912D02*
X19337015Y-13012484D01*
X19517968Y-13202960D02*
X19498920Y-13212484D01*
X19498920Y-13212484D02*
X19460825Y-13212484D01*
X19460825Y-13212484D02*
X19441777Y-13202960D01*
X19441777Y-13202960D02*
X19432253Y-13183912D01*
X19432253Y-13183912D02*
X19432253Y-13107722D01*
X19432253Y-13107722D02*
X19441777Y-13088674D01*
X19441777Y-13088674D02*
X19460825Y-13079150D01*
X19460825Y-13079150D02*
X19498920Y-13079150D01*
X19498920Y-13079150D02*
X19517968Y-13088674D01*
X19517968Y-13088674D02*
X19527492Y-13107722D01*
X19527492Y-13107722D02*
X19527492Y-13126769D01*
X19527492Y-13126769D02*
X19432253Y-13145817D01*
X19603682Y-13202960D02*
X19622730Y-13212484D01*
X19622730Y-13212484D02*
X19660825Y-13212484D01*
X19660825Y-13212484D02*
X19679873Y-13202960D01*
X19679873Y-13202960D02*
X19689396Y-13183912D01*
X19689396Y-13183912D02*
X19689396Y-13174388D01*
X19689396Y-13174388D02*
X19679873Y-13155341D01*
X19679873Y-13155341D02*
X19660825Y-13145817D01*
X19660825Y-13145817D02*
X19632253Y-13145817D01*
X19632253Y-13145817D02*
X19613206Y-13136293D01*
X19613206Y-13136293D02*
X19603682Y-13117246D01*
X19603682Y-13117246D02*
X19603682Y-13107722D01*
X19603682Y-13107722D02*
X19613206Y-13088674D01*
X19613206Y-13088674D02*
X19632253Y-13079150D01*
X19632253Y-13079150D02*
X19660825Y-13079150D01*
X19660825Y-13079150D02*
X19679873Y-13088674D01*
X19756063Y-13288674D02*
X19765587Y-13279150D01*
X19765587Y-13279150D02*
X19784634Y-13250579D01*
X19784634Y-13250579D02*
X19794158Y-13231531D01*
X19794158Y-13231531D02*
X19803682Y-13202960D01*
X19803682Y-13202960D02*
X19813206Y-13155341D01*
X19813206Y-13155341D02*
X19813206Y-13117246D01*
X19813206Y-13117246D02*
X19803682Y-13069627D01*
X19803682Y-13069627D02*
X19794158Y-13041055D01*
X19794158Y-13041055D02*
X19784634Y-13022008D01*
X19784634Y-13022008D02*
X19765587Y-12993436D01*
X19765587Y-12993436D02*
X19756063Y-12983912D01*
X14881000Y-13485000D02*
X14981000Y-13385000D01*
X14881000Y-13285000D01*
X14781000Y-13385000D01*
X14881000Y-13485000D01*
X15327491Y-13343150D02*
X15327491Y-13476484D01*
X15279872Y-13266960D02*
X15232253Y-13409817D01*
X15232253Y-13409817D02*
X15356062Y-13409817D01*
X15432253Y-13457436D02*
X15441777Y-13466960D01*
X15441777Y-13466960D02*
X15432253Y-13476484D01*
X15432253Y-13476484D02*
X15422729Y-13466960D01*
X15422729Y-13466960D02*
X15432253Y-13457436D01*
X15432253Y-13457436D02*
X15432253Y-13476484D01*
X15508443Y-13276484D02*
X15632253Y-13276484D01*
X15632253Y-13276484D02*
X15565586Y-13352674D01*
X15565586Y-13352674D02*
X15594158Y-13352674D01*
X15594158Y-13352674D02*
X15613205Y-13362198D01*
X15613205Y-13362198D02*
X15622729Y-13371722D01*
X15622729Y-13371722D02*
X15632253Y-13390769D01*
X15632253Y-13390769D02*
X15632253Y-13438388D01*
X15632253Y-13438388D02*
X15622729Y-13457436D01*
X15622729Y-13457436D02*
X15613205Y-13466960D01*
X15613205Y-13466960D02*
X15594158Y-13476484D01*
X15594158Y-13476484D02*
X15537015Y-13476484D01*
X15537015Y-13476484D02*
X15517967Y-13466960D01*
X15517967Y-13466960D02*
X15508443Y-13457436D01*
X15756062Y-13276484D02*
X15775110Y-13276484D01*
X15775110Y-13276484D02*
X15794158Y-13286008D01*
X15794158Y-13286008D02*
X15803682Y-13295531D01*
X15803682Y-13295531D02*
X15813205Y-13314579D01*
X15813205Y-13314579D02*
X15822729Y-13352674D01*
X15822729Y-13352674D02*
X15822729Y-13400293D01*
X15822729Y-13400293D02*
X15813205Y-13438388D01*
X15813205Y-13438388D02*
X15803682Y-13457436D01*
X15803682Y-13457436D02*
X15794158Y-13466960D01*
X15794158Y-13466960D02*
X15775110Y-13476484D01*
X15775110Y-13476484D02*
X15756062Y-13476484D01*
X15756062Y-13476484D02*
X15737015Y-13466960D01*
X15737015Y-13466960D02*
X15727491Y-13457436D01*
X15727491Y-13457436D02*
X15717967Y-13438388D01*
X15717967Y-13438388D02*
X15708443Y-13400293D01*
X15708443Y-13400293D02*
X15708443Y-13352674D01*
X15708443Y-13352674D02*
X15717967Y-13314579D01*
X15717967Y-13314579D02*
X15727491Y-13295531D01*
X15727491Y-13295531D02*
X15737015Y-13286008D01*
X15737015Y-13286008D02*
X15756062Y-13276484D01*
X15946539Y-13276484D02*
X15965586Y-13276484D01*
X15965586Y-13276484D02*
X15984634Y-13286008D01*
X15984634Y-13286008D02*
X15994158Y-13295531D01*
X15994158Y-13295531D02*
X16003682Y-13314579D01*
X16003682Y-13314579D02*
X16013205Y-13352674D01*
X16013205Y-13352674D02*
X16013205Y-13400293D01*
X16013205Y-13400293D02*
X16003682Y-13438388D01*
X16003682Y-13438388D02*
X15994158Y-13457436D01*
X15994158Y-13457436D02*
X15984634Y-13466960D01*
X15984634Y-13466960D02*
X15965586Y-13476484D01*
X15965586Y-13476484D02*
X15946539Y-13476484D01*
X15946539Y-13476484D02*
X15927491Y-13466960D01*
X15927491Y-13466960D02*
X15917967Y-13457436D01*
X15917967Y-13457436D02*
X15908443Y-13438388D01*
X15908443Y-13438388D02*
X15898920Y-13400293D01*
X15898920Y-13400293D02*
X15898920Y-13352674D01*
X15898920Y-13352674D02*
X15908443Y-13314579D01*
X15908443Y-13314579D02*
X15917967Y-13295531D01*
X15917967Y-13295531D02*
X15927491Y-13286008D01*
X15927491Y-13286008D02*
X15946539Y-13276484D01*
X16098920Y-13476484D02*
X16098920Y-13343150D01*
X16098920Y-13362198D02*
X16108443Y-13352674D01*
X16108443Y-13352674D02*
X16127491Y-13343150D01*
X16127491Y-13343150D02*
X16156063Y-13343150D01*
X16156063Y-13343150D02*
X16175110Y-13352674D01*
X16175110Y-13352674D02*
X16184634Y-13371722D01*
X16184634Y-13371722D02*
X16184634Y-13476484D01*
X16184634Y-13371722D02*
X16194158Y-13352674D01*
X16194158Y-13352674D02*
X16213205Y-13343150D01*
X16213205Y-13343150D02*
X16241777Y-13343150D01*
X16241777Y-13343150D02*
X16260824Y-13352674D01*
X16260824Y-13352674D02*
X16270348Y-13371722D01*
X16270348Y-13371722D02*
X16270348Y-13476484D01*
X16365586Y-13476484D02*
X16365586Y-13343150D01*
X16365586Y-13362198D02*
X16375110Y-13352674D01*
X16375110Y-13352674D02*
X16394158Y-13343150D01*
X16394158Y-13343150D02*
X16422729Y-13343150D01*
X16422729Y-13343150D02*
X16441777Y-13352674D01*
X16441777Y-13352674D02*
X16451301Y-13371722D01*
X16451301Y-13371722D02*
X16451301Y-13476484D01*
X16451301Y-13371722D02*
X16460824Y-13352674D01*
X16460824Y-13352674D02*
X16479872Y-13343150D01*
X16479872Y-13343150D02*
X16508443Y-13343150D01*
X16508443Y-13343150D02*
X16527491Y-13352674D01*
X16527491Y-13352674D02*
X16537015Y-13371722D01*
X16537015Y-13371722D02*
X16537015Y-13476484D01*
X16927491Y-13266960D02*
X16756063Y-13524103D01*
X17184634Y-13276484D02*
X17203682Y-13276484D01*
X17203682Y-13276484D02*
X17222729Y-13286008D01*
X17222729Y-13286008D02*
X17232253Y-13295531D01*
X17232253Y-13295531D02*
X17241777Y-13314579D01*
X17241777Y-13314579D02*
X17251301Y-13352674D01*
X17251301Y-13352674D02*
X17251301Y-13400293D01*
X17251301Y-13400293D02*
X17241777Y-13438388D01*
X17241777Y-13438388D02*
X17232253Y-13457436D01*
X17232253Y-13457436D02*
X17222729Y-13466960D01*
X17222729Y-13466960D02*
X17203682Y-13476484D01*
X17203682Y-13476484D02*
X17184634Y-13476484D01*
X17184634Y-13476484D02*
X17165587Y-13466960D01*
X17165587Y-13466960D02*
X17156063Y-13457436D01*
X17156063Y-13457436D02*
X17146539Y-13438388D01*
X17146539Y-13438388D02*
X17137015Y-13400293D01*
X17137015Y-13400293D02*
X17137015Y-13352674D01*
X17137015Y-13352674D02*
X17146539Y-13314579D01*
X17146539Y-13314579D02*
X17156063Y-13295531D01*
X17156063Y-13295531D02*
X17165587Y-13286008D01*
X17165587Y-13286008D02*
X17184634Y-13276484D01*
X17337015Y-13457436D02*
X17346539Y-13466960D01*
X17346539Y-13466960D02*
X17337015Y-13476484D01*
X17337015Y-13476484D02*
X17327491Y-13466960D01*
X17327491Y-13466960D02*
X17337015Y-13457436D01*
X17337015Y-13457436D02*
X17337015Y-13476484D01*
X17537015Y-13476484D02*
X17422729Y-13476484D01*
X17479872Y-13476484D02*
X17479872Y-13276484D01*
X17479872Y-13276484D02*
X17460825Y-13305055D01*
X17460825Y-13305055D02*
X17441777Y-13324103D01*
X17441777Y-13324103D02*
X17422729Y-13333627D01*
X17708444Y-13276484D02*
X17670348Y-13276484D01*
X17670348Y-13276484D02*
X17651301Y-13286008D01*
X17651301Y-13286008D02*
X17641777Y-13295531D01*
X17641777Y-13295531D02*
X17622729Y-13324103D01*
X17622729Y-13324103D02*
X17613206Y-13362198D01*
X17613206Y-13362198D02*
X17613206Y-13438388D01*
X17613206Y-13438388D02*
X17622729Y-13457436D01*
X17622729Y-13457436D02*
X17632253Y-13466960D01*
X17632253Y-13466960D02*
X17651301Y-13476484D01*
X17651301Y-13476484D02*
X17689396Y-13476484D01*
X17689396Y-13476484D02*
X17708444Y-13466960D01*
X17708444Y-13466960D02*
X17717968Y-13457436D01*
X17717968Y-13457436D02*
X17727491Y-13438388D01*
X17727491Y-13438388D02*
X17727491Y-13390769D01*
X17727491Y-13390769D02*
X17717968Y-13371722D01*
X17717968Y-13371722D02*
X17708444Y-13362198D01*
X17708444Y-13362198D02*
X17689396Y-13352674D01*
X17689396Y-13352674D02*
X17651301Y-13352674D01*
X17651301Y-13352674D02*
X17632253Y-13362198D01*
X17632253Y-13362198D02*
X17622729Y-13371722D01*
X17622729Y-13371722D02*
X17613206Y-13390769D01*
X17822729Y-13476484D02*
X17860825Y-13476484D01*
X17860825Y-13476484D02*
X17879872Y-13466960D01*
X17879872Y-13466960D02*
X17889396Y-13457436D01*
X17889396Y-13457436D02*
X17908444Y-13428865D01*
X17908444Y-13428865D02*
X17917968Y-13390769D01*
X17917968Y-13390769D02*
X17917968Y-13314579D01*
X17917968Y-13314579D02*
X17908444Y-13295531D01*
X17908444Y-13295531D02*
X17898920Y-13286008D01*
X17898920Y-13286008D02*
X17879872Y-13276484D01*
X17879872Y-13276484D02*
X17841777Y-13276484D01*
X17841777Y-13276484D02*
X17822729Y-13286008D01*
X17822729Y-13286008D02*
X17813206Y-13295531D01*
X17813206Y-13295531D02*
X17803682Y-13314579D01*
X17803682Y-13314579D02*
X17803682Y-13362198D01*
X17803682Y-13362198D02*
X17813206Y-13381246D01*
X17813206Y-13381246D02*
X17822729Y-13390769D01*
X17822729Y-13390769D02*
X17841777Y-13400293D01*
X17841777Y-13400293D02*
X17879872Y-13400293D01*
X17879872Y-13400293D02*
X17898920Y-13390769D01*
X17898920Y-13390769D02*
X17908444Y-13381246D01*
X17908444Y-13381246D02*
X17917968Y-13362198D01*
X17984634Y-13276484D02*
X18108444Y-13276484D01*
X18108444Y-13276484D02*
X18041777Y-13352674D01*
X18041777Y-13352674D02*
X18070349Y-13352674D01*
X18070349Y-13352674D02*
X18089396Y-13362198D01*
X18089396Y-13362198D02*
X18098920Y-13371722D01*
X18098920Y-13371722D02*
X18108444Y-13390769D01*
X18108444Y-13390769D02*
X18108444Y-13438388D01*
X18108444Y-13438388D02*
X18098920Y-13457436D01*
X18098920Y-13457436D02*
X18089396Y-13466960D01*
X18089396Y-13466960D02*
X18070349Y-13476484D01*
X18070349Y-13476484D02*
X18013206Y-13476484D01*
X18013206Y-13476484D02*
X17994158Y-13466960D01*
X17994158Y-13466960D02*
X17984634Y-13457436D01*
X18184634Y-13276484D02*
X18184634Y-13314579D01*
X18260825Y-13276484D02*
X18260825Y-13314579D01*
X18556063Y-13552674D02*
X18546539Y-13543150D01*
X18546539Y-13543150D02*
X18527491Y-13514579D01*
X18527491Y-13514579D02*
X18517968Y-13495531D01*
X18517968Y-13495531D02*
X18508444Y-13466960D01*
X18508444Y-13466960D02*
X18498920Y-13419341D01*
X18498920Y-13419341D02*
X18498920Y-13381246D01*
X18498920Y-13381246D02*
X18508444Y-13333627D01*
X18508444Y-13333627D02*
X18517968Y-13305055D01*
X18517968Y-13305055D02*
X18527491Y-13286008D01*
X18527491Y-13286008D02*
X18546539Y-13257436D01*
X18546539Y-13257436D02*
X18556063Y-13247912D01*
X18717968Y-13343150D02*
X18717968Y-13476484D01*
X18670349Y-13266960D02*
X18622730Y-13409817D01*
X18622730Y-13409817D02*
X18746539Y-13409817D01*
X18975111Y-13476484D02*
X18975111Y-13276484D01*
X19060825Y-13476484D02*
X19060825Y-13371722D01*
X19060825Y-13371722D02*
X19051301Y-13352674D01*
X19051301Y-13352674D02*
X19032253Y-13343150D01*
X19032253Y-13343150D02*
X19003682Y-13343150D01*
X19003682Y-13343150D02*
X18984634Y-13352674D01*
X18984634Y-13352674D02*
X18975111Y-13362198D01*
X19184634Y-13476484D02*
X19165587Y-13466960D01*
X19165587Y-13466960D02*
X19156063Y-13457436D01*
X19156063Y-13457436D02*
X19146539Y-13438388D01*
X19146539Y-13438388D02*
X19146539Y-13381246D01*
X19146539Y-13381246D02*
X19156063Y-13362198D01*
X19156063Y-13362198D02*
X19165587Y-13352674D01*
X19165587Y-13352674D02*
X19184634Y-13343150D01*
X19184634Y-13343150D02*
X19213206Y-13343150D01*
X19213206Y-13343150D02*
X19232253Y-13352674D01*
X19232253Y-13352674D02*
X19241777Y-13362198D01*
X19241777Y-13362198D02*
X19251301Y-13381246D01*
X19251301Y-13381246D02*
X19251301Y-13438388D01*
X19251301Y-13438388D02*
X19241777Y-13457436D01*
X19241777Y-13457436D02*
X19232253Y-13466960D01*
X19232253Y-13466960D02*
X19213206Y-13476484D01*
X19213206Y-13476484D02*
X19184634Y-13476484D01*
X19365587Y-13476484D02*
X19346539Y-13466960D01*
X19346539Y-13466960D02*
X19337015Y-13447912D01*
X19337015Y-13447912D02*
X19337015Y-13276484D01*
X19517968Y-13466960D02*
X19498920Y-13476484D01*
X19498920Y-13476484D02*
X19460825Y-13476484D01*
X19460825Y-13476484D02*
X19441777Y-13466960D01*
X19441777Y-13466960D02*
X19432253Y-13447912D01*
X19432253Y-13447912D02*
X19432253Y-13371722D01*
X19432253Y-13371722D02*
X19441777Y-13352674D01*
X19441777Y-13352674D02*
X19460825Y-13343150D01*
X19460825Y-13343150D02*
X19498920Y-13343150D01*
X19498920Y-13343150D02*
X19517968Y-13352674D01*
X19517968Y-13352674D02*
X19527492Y-13371722D01*
X19527492Y-13371722D02*
X19527492Y-13390769D01*
X19527492Y-13390769D02*
X19432253Y-13409817D01*
X19603682Y-13466960D02*
X19622730Y-13476484D01*
X19622730Y-13476484D02*
X19660825Y-13476484D01*
X19660825Y-13476484D02*
X19679873Y-13466960D01*
X19679873Y-13466960D02*
X19689396Y-13447912D01*
X19689396Y-13447912D02*
X19689396Y-13438388D01*
X19689396Y-13438388D02*
X19679873Y-13419341D01*
X19679873Y-13419341D02*
X19660825Y-13409817D01*
X19660825Y-13409817D02*
X19632253Y-13409817D01*
X19632253Y-13409817D02*
X19613206Y-13400293D01*
X19613206Y-13400293D02*
X19603682Y-13381246D01*
X19603682Y-13381246D02*
X19603682Y-13371722D01*
X19603682Y-13371722D02*
X19613206Y-13352674D01*
X19613206Y-13352674D02*
X19632253Y-13343150D01*
X19632253Y-13343150D02*
X19660825Y-13343150D01*
X19660825Y-13343150D02*
X19679873Y-13352674D01*
X19756063Y-13552674D02*
X19765587Y-13543150D01*
X19765587Y-13543150D02*
X19784634Y-13514579D01*
X19784634Y-13514579D02*
X19794158Y-13495531D01*
X19794158Y-13495531D02*
X19803682Y-13466960D01*
X19803682Y-13466960D02*
X19813206Y-13419341D01*
X19813206Y-13419341D02*
X19813206Y-13381246D01*
X19813206Y-13381246D02*
X19803682Y-13333627D01*
X19803682Y-13333627D02*
X19794158Y-13305055D01*
X19794158Y-13305055D02*
X19784634Y-13286008D01*
X19784634Y-13286008D02*
X19765587Y-13257436D01*
X19765587Y-13257436D02*
X19756063Y-13247912D01*
M02*
