%TF.GenerationSoftware,KiCad,Pcbnew,7.0.10*%
%TF.CreationDate,2024-03-14T18:53:23+05:30*%
%TF.ProjectId,STM32_4LAYER,53544d33-325f-4344-9c41-5945522e6b69,rev?*%
%TF.SameCoordinates,Original*%
%TF.FileFunction,Soldermask,Bot*%
%TF.FilePolarity,Negative*%
%FSLAX46Y46*%
G04 Gerber Fmt 4.6, Leading zero omitted, Abs format (unit mm)*
G04 Created by KiCad (PCBNEW 7.0.10) date 2024-03-14 18:53:23*
%MOMM*%
%LPD*%
G01*
G04 APERTURE LIST*
G04 Aperture macros list*
%AMRoundRect*
0 Rectangle with rounded corners*
0 $1 Rounding radius*
0 $2 $3 $4 $5 $6 $7 $8 $9 X,Y pos of 4 corners*
0 Add a 4 corners polygon primitive as box body*
4,1,4,$2,$3,$4,$5,$6,$7,$8,$9,$2,$3,0*
0 Add four circle primitives for the rounded corners*
1,1,$1+$1,$2,$3*
1,1,$1+$1,$4,$5*
1,1,$1+$1,$6,$7*
1,1,$1+$1,$8,$9*
0 Add four rect primitives between the rounded corners*
20,1,$1+$1,$2,$3,$4,$5,0*
20,1,$1+$1,$4,$5,$6,$7,0*
20,1,$1+$1,$6,$7,$8,$9,0*
20,1,$1+$1,$8,$9,$2,$3,0*%
G04 Aperture macros list end*
%ADD10RoundRect,0.200000X-0.450000X0.200000X-0.450000X-0.200000X0.450000X-0.200000X0.450000X0.200000X0*%
%ADD11O,1.300000X0.800000*%
%ADD12RoundRect,0.200000X0.200000X0.450000X-0.200000X0.450000X-0.200000X-0.450000X0.200000X-0.450000X0*%
%ADD13O,0.800000X1.300000*%
%ADD14C,0.900000*%
%ADD15C,8.600000*%
%ADD16R,2.400000X2.400000*%
%ADD17C,2.400000*%
G04 APERTURE END LIST*
D10*
%TO.C,J5*%
X154430200Y-98582000D03*
D11*
X154430200Y-99832000D03*
X154430200Y-101082000D03*
X154430200Y-102332000D03*
%TD*%
D12*
%TO.C,J4*%
X177490600Y-78230200D03*
D13*
X176240600Y-78230200D03*
X174990600Y-78230200D03*
X173740600Y-78230200D03*
%TD*%
D14*
%TO.C,H2*%
X192355000Y-78740000D03*
X193299581Y-76459581D03*
X193299581Y-81020419D03*
X195580000Y-75515000D03*
D15*
X195580000Y-78740000D03*
D14*
X195580000Y-81965000D03*
X197860419Y-76459581D03*
X197860419Y-81020419D03*
X198805000Y-78740000D03*
%TD*%
%TO.C,H4*%
X192355000Y-111760000D03*
X193299581Y-109479581D03*
X193299581Y-114040419D03*
X195580000Y-108535000D03*
D15*
X195580000Y-111760000D03*
D14*
X195580000Y-114985000D03*
X197860419Y-109479581D03*
X197860419Y-114040419D03*
X198805000Y-111760000D03*
%TD*%
D10*
%TO.C,J6*%
X154432000Y-86155200D03*
D11*
X154432000Y-87405200D03*
X154432000Y-88655200D03*
X154432000Y-89905200D03*
X154432000Y-91155200D03*
X154432000Y-92405200D03*
%TD*%
D14*
%TO.C,H3*%
X151715000Y-111760000D03*
X152659581Y-109479581D03*
X152659581Y-114040419D03*
X154940000Y-108535000D03*
D15*
X154940000Y-111760000D03*
D14*
X154940000Y-114985000D03*
X157220419Y-109479581D03*
X157220419Y-114040419D03*
X158165000Y-111760000D03*
%TD*%
%TO.C,SW1*%
X166600000Y-75583000D03*
X163600000Y-75583000D03*
%TD*%
D16*
%TO.C,J2*%
X168684000Y-111314000D03*
D17*
X172184000Y-111314000D03*
%TD*%
D14*
%TO.C,H1*%
X151715000Y-78740000D03*
X152659581Y-76459581D03*
X152659581Y-81020419D03*
X154940000Y-75515000D03*
D15*
X154940000Y-78740000D03*
D14*
X154940000Y-81965000D03*
X157220419Y-76459581D03*
X157220419Y-81020419D03*
X158165000Y-78740000D03*
%TD*%
M02*
