%TF.GenerationSoftware,KiCad,Pcbnew,7.0.10*%
%TF.CreationDate,2024-03-14T18:53:23+05:30*%
%TF.ProjectId,STM32_4LAYER,53544d33-325f-4344-9c41-5945522e6b69,rev?*%
%TF.SameCoordinates,Original*%
%TF.FileFunction,Copper,L2,Inr*%
%TF.FilePolarity,Positive*%
%FSLAX46Y46*%
G04 Gerber Fmt 4.6, Leading zero omitted, Abs format (unit mm)*
G04 Created by KiCad (PCBNEW 7.0.10) date 2024-03-14 18:53:23*
%MOMM*%
%LPD*%
G01*
G04 APERTURE LIST*
G04 Aperture macros list*
%AMRoundRect*
0 Rectangle with rounded corners*
0 $1 Rounding radius*
0 $2 $3 $4 $5 $6 $7 $8 $9 X,Y pos of 4 corners*
0 Add a 4 corners polygon primitive as box body*
4,1,4,$2,$3,$4,$5,$6,$7,$8,$9,$2,$3,0*
0 Add four circle primitives for the rounded corners*
1,1,$1+$1,$2,$3*
1,1,$1+$1,$4,$5*
1,1,$1+$1,$6,$7*
1,1,$1+$1,$8,$9*
0 Add four rect primitives between the rounded corners*
20,1,$1+$1,$2,$3,$4,$5,0*
20,1,$1+$1,$4,$5,$6,$7,0*
20,1,$1+$1,$6,$7,$8,$9,0*
20,1,$1+$1,$8,$9,$2,$3,0*%
G04 Aperture macros list end*
%TA.AperFunction,ComponentPad*%
%ADD10RoundRect,0.200000X-0.450000X0.200000X-0.450000X-0.200000X0.450000X-0.200000X0.450000X0.200000X0*%
%TD*%
%TA.AperFunction,ComponentPad*%
%ADD11O,1.300000X0.800000*%
%TD*%
%TA.AperFunction,ComponentPad*%
%ADD12RoundRect,0.200000X0.200000X0.450000X-0.200000X0.450000X-0.200000X-0.450000X0.200000X-0.450000X0*%
%TD*%
%TA.AperFunction,ComponentPad*%
%ADD13O,0.800000X1.300000*%
%TD*%
%TA.AperFunction,ComponentPad*%
%ADD14C,0.900000*%
%TD*%
%TA.AperFunction,ComponentPad*%
%ADD15C,8.600000*%
%TD*%
%TA.AperFunction,ComponentPad*%
%ADD16R,2.400000X2.400000*%
%TD*%
%TA.AperFunction,ComponentPad*%
%ADD17C,2.400000*%
%TD*%
%TA.AperFunction,ViaPad*%
%ADD18C,0.800000*%
%TD*%
G04 APERTURE END LIST*
D10*
%TO.N,+3.3V*%
%TO.C,J5*%
X154430200Y-98582000D03*
D11*
%TO.N,TX*%
X154430200Y-99832000D03*
%TO.N,RX*%
X154430200Y-101082000D03*
%TO.N,GND*%
X154430200Y-102332000D03*
%TD*%
D12*
%TO.N,+3.3V*%
%TO.C,J4*%
X177490600Y-78230200D03*
D13*
%TO.N,SCL*%
X176240600Y-78230200D03*
%TO.N,SDA*%
X174990600Y-78230200D03*
%TO.N,GND*%
X173740600Y-78230200D03*
%TD*%
D14*
%TO.N,GND*%
%TO.C,H2*%
X192355000Y-78740000D03*
X193299581Y-76459581D03*
X193299581Y-81020419D03*
X195580000Y-75515000D03*
D15*
X195580000Y-78740000D03*
D14*
X195580000Y-81965000D03*
X197860419Y-76459581D03*
X197860419Y-81020419D03*
X198805000Y-78740000D03*
%TD*%
%TO.N,GND*%
%TO.C,H4*%
X192355000Y-111760000D03*
X193299581Y-109479581D03*
X193299581Y-114040419D03*
X195580000Y-108535000D03*
D15*
X195580000Y-111760000D03*
D14*
X195580000Y-114985000D03*
X197860419Y-109479581D03*
X197860419Y-114040419D03*
X198805000Y-111760000D03*
%TD*%
D10*
%TO.N,+3.3V*%
%TO.C,J6*%
X154432000Y-86155200D03*
D11*
%TO.N,MOSI*%
X154432000Y-87405200D03*
%TO.N,MISO*%
X154432000Y-88655200D03*
%TO.N,SCK*%
X154432000Y-89905200D03*
%TO.N,NSS*%
X154432000Y-91155200D03*
%TO.N,GND*%
X154432000Y-92405200D03*
%TD*%
D14*
%TO.N,GND*%
%TO.C,H3*%
X151715000Y-111760000D03*
X152659581Y-109479581D03*
X152659581Y-114040419D03*
X154940000Y-108535000D03*
D15*
X154940000Y-111760000D03*
D14*
X154940000Y-114985000D03*
X157220419Y-109479581D03*
X157220419Y-114040419D03*
X158165000Y-111760000D03*
%TD*%
D16*
%TO.N,VCC*%
%TO.C,J2*%
X168684000Y-111314000D03*
D17*
%TO.N,GND*%
X172184000Y-111314000D03*
%TD*%
D14*
%TO.N,GND*%
%TO.C,H1*%
X151715000Y-78740000D03*
X152659581Y-76459581D03*
X152659581Y-81020419D03*
X154940000Y-75515000D03*
D15*
X154940000Y-78740000D03*
D14*
X154940000Y-81965000D03*
X157220419Y-76459581D03*
X157220419Y-81020419D03*
X158165000Y-78740000D03*
%TD*%
D18*
%TO.N,GND*%
X191643000Y-90424000D03*
X192659000Y-90424000D03*
X190011000Y-77705000D03*
X181610000Y-76073000D03*
X193675000Y-90424000D03*
X179832000Y-90750000D03*
X175768000Y-100076000D03*
X161163000Y-93091000D03*
X165481000Y-93980000D03*
X165735000Y-90932000D03*
X165100000Y-84201000D03*
X170307000Y-84582000D03*
%TO.N,+3.3V*%
X168402000Y-87249000D03*
X188849000Y-101981000D03*
X189992000Y-76155000D03*
X163852331Y-96497669D03*
%TO.N,SCK*%
X170180000Y-95377000D03*
%TO.N,MISO*%
X170926751Y-94263413D03*
%TO.N,MOSI*%
X171958000Y-94250000D03*
%TO.N,+3.3V*%
X178816000Y-88646000D03*
X178054000Y-98552000D03*
X167386000Y-79248000D03*
%TO.N,GND*%
X162814000Y-79248000D03*
%TO.N,+3.3V*%
X171958000Y-83820000D03*
X167386000Y-85852000D03*
X175514000Y-83820000D03*
%TO.N,NRST*%
X178104800Y-82499200D03*
X174320200Y-93497400D03*
%TO.N,GND*%
X181864000Y-99314000D03*
X181864000Y-100584000D03*
X194056000Y-105029000D03*
X192913000Y-105029000D03*
X191770000Y-105029000D03*
%TO.N,+3.3V*%
X189103000Y-110490000D03*
X189103000Y-112141000D03*
X189103000Y-113538000D03*
X189103000Y-114935000D03*
%TO.N,GND*%
X178435000Y-109474000D03*
X177165000Y-109474000D03*
X175895000Y-109474000D03*
X175895000Y-108077000D03*
X177165000Y-108077000D03*
X178562000Y-108077000D03*
X179832000Y-108077000D03*
X181864000Y-101727000D03*
X180594000Y-101727000D03*
X187960000Y-106299000D03*
X187960000Y-105156000D03*
%TO.N,USB_D-*%
X182245000Y-92598400D03*
X179832000Y-92329000D03*
%TD*%
%TA.AperFunction,Conductor*%
%TO.N,GND*%
G36*
X195582562Y-73660605D02*
G01*
X195797373Y-73669490D01*
X196000249Y-73678348D01*
X196010120Y-73679177D01*
X196225510Y-73706026D01*
X196225963Y-73706084D01*
X196428504Y-73732749D01*
X196437718Y-73734319D01*
X196649797Y-73778787D01*
X196650827Y-73779009D01*
X196850566Y-73823290D01*
X196859092Y-73825502D01*
X196996957Y-73866546D01*
X197066503Y-73887251D01*
X197068407Y-73887835D01*
X197119925Y-73904078D01*
X197263404Y-73949316D01*
X197271119Y-73952034D01*
X197472754Y-74030712D01*
X197475027Y-74031626D01*
X197663987Y-74109896D01*
X197670965Y-74113043D01*
X197865405Y-74208098D01*
X197868080Y-74209449D01*
X197958300Y-74256415D01*
X198049482Y-74303882D01*
X198055698Y-74307348D01*
X198241533Y-74418081D01*
X198244685Y-74420024D01*
X198417116Y-74529875D01*
X198422545Y-74533538D01*
X198598570Y-74659218D01*
X198602002Y-74661759D01*
X198764219Y-74786232D01*
X198768874Y-74789985D01*
X198933920Y-74929771D01*
X198937552Y-74932972D01*
X199088327Y-75071132D01*
X199092235Y-75074873D01*
X199245125Y-75227763D01*
X199248866Y-75231671D01*
X199387026Y-75382446D01*
X199390227Y-75386078D01*
X199530013Y-75551124D01*
X199533766Y-75555779D01*
X199658239Y-75717996D01*
X199660780Y-75721428D01*
X199786460Y-75897453D01*
X199790123Y-75902882D01*
X199899974Y-76075313D01*
X199901917Y-76078465D01*
X200012650Y-76264300D01*
X200016116Y-76270516D01*
X200110534Y-76451889D01*
X200111946Y-76454686D01*
X200206942Y-76649004D01*
X200210102Y-76656011D01*
X200288351Y-76844920D01*
X200289307Y-76847298D01*
X200325149Y-76939151D01*
X200355191Y-77016144D01*
X200367949Y-77048838D01*
X200370693Y-77056627D01*
X200432163Y-77251591D01*
X200432747Y-77253495D01*
X200494494Y-77460898D01*
X200496710Y-77469441D01*
X200540949Y-77668987D01*
X200541249Y-77670380D01*
X200585675Y-77882260D01*
X200587253Y-77891521D01*
X200613887Y-78093829D01*
X200613996Y-78094676D01*
X200640818Y-78309849D01*
X200641652Y-78319778D01*
X200650512Y-78522701D01*
X200650524Y-78522986D01*
X200659394Y-78737438D01*
X200659500Y-78742562D01*
X200659500Y-111757437D01*
X200659394Y-111762561D01*
X200650524Y-111977013D01*
X200650512Y-111977298D01*
X200641652Y-112180220D01*
X200640818Y-112190149D01*
X200613996Y-112405322D01*
X200613887Y-112406169D01*
X200587253Y-112608477D01*
X200585675Y-112617738D01*
X200541249Y-112829618D01*
X200540949Y-112831011D01*
X200496710Y-113030557D01*
X200494494Y-113039100D01*
X200432747Y-113246503D01*
X200432163Y-113248407D01*
X200370693Y-113443371D01*
X200367949Y-113451160D01*
X200289307Y-113652700D01*
X200288351Y-113655078D01*
X200210102Y-113843987D01*
X200206942Y-113850994D01*
X200111946Y-114045312D01*
X200110534Y-114048109D01*
X200016116Y-114229482D01*
X200012650Y-114235698D01*
X199901917Y-114421533D01*
X199899974Y-114424685D01*
X199790123Y-114597116D01*
X199786460Y-114602545D01*
X199660780Y-114778570D01*
X199658239Y-114782002D01*
X199533766Y-114944219D01*
X199530013Y-114948874D01*
X199390227Y-115113920D01*
X199387026Y-115117552D01*
X199248866Y-115268327D01*
X199245125Y-115272235D01*
X199092235Y-115425125D01*
X199088327Y-115428866D01*
X198937552Y-115567026D01*
X198933920Y-115570227D01*
X198768874Y-115710013D01*
X198764219Y-115713766D01*
X198602002Y-115838239D01*
X198598570Y-115840780D01*
X198422545Y-115966460D01*
X198417116Y-115970123D01*
X198244685Y-116079974D01*
X198241533Y-116081917D01*
X198055698Y-116192650D01*
X198049482Y-116196116D01*
X197868109Y-116290534D01*
X197865312Y-116291946D01*
X197670994Y-116386942D01*
X197663987Y-116390102D01*
X197475078Y-116468351D01*
X197472700Y-116469307D01*
X197271160Y-116547949D01*
X197263371Y-116550693D01*
X197068407Y-116612163D01*
X197066503Y-116612747D01*
X196859100Y-116674494D01*
X196850557Y-116676710D01*
X196651011Y-116720949D01*
X196649618Y-116721249D01*
X196437738Y-116765675D01*
X196428477Y-116767253D01*
X196226169Y-116793887D01*
X196225322Y-116793996D01*
X196010149Y-116820818D01*
X196000220Y-116821652D01*
X195797408Y-116830507D01*
X195797124Y-116830519D01*
X195582563Y-116839394D01*
X195577438Y-116839500D01*
X154942562Y-116839500D01*
X154937437Y-116839394D01*
X154722874Y-116830519D01*
X154722590Y-116830507D01*
X154519778Y-116821652D01*
X154509849Y-116820818D01*
X154294676Y-116793996D01*
X154293829Y-116793887D01*
X154091521Y-116767253D01*
X154082260Y-116765675D01*
X153870380Y-116721249D01*
X153868987Y-116720949D01*
X153669441Y-116676710D01*
X153660898Y-116674494D01*
X153453495Y-116612747D01*
X153451591Y-116612163D01*
X153256627Y-116550693D01*
X153248845Y-116547951D01*
X153118255Y-116496995D01*
X153047298Y-116469307D01*
X153044920Y-116468351D01*
X152856011Y-116390102D01*
X152849004Y-116386942D01*
X152654657Y-116291931D01*
X152651889Y-116290534D01*
X152470516Y-116196116D01*
X152464300Y-116192650D01*
X152278465Y-116081917D01*
X152275313Y-116079974D01*
X152102882Y-115970123D01*
X152097453Y-115966460D01*
X151921428Y-115840780D01*
X151917996Y-115838239D01*
X151755779Y-115713766D01*
X151751124Y-115710013D01*
X151586078Y-115570227D01*
X151582446Y-115567026D01*
X151431671Y-115428866D01*
X151427763Y-115425125D01*
X151274873Y-115272235D01*
X151271132Y-115268327D01*
X151132972Y-115117552D01*
X151129771Y-115113920D01*
X150989985Y-114948874D01*
X150986232Y-114944219D01*
X150861759Y-114782002D01*
X150859218Y-114778570D01*
X150733538Y-114602545D01*
X150729875Y-114597116D01*
X150710512Y-114566722D01*
X150620015Y-114424671D01*
X150618081Y-114421533D01*
X150507348Y-114235698D01*
X150503882Y-114229482D01*
X150456415Y-114138300D01*
X150409449Y-114048080D01*
X150408098Y-114045405D01*
X150313043Y-113850965D01*
X150309896Y-113843987D01*
X150231626Y-113655027D01*
X150230712Y-113652754D01*
X150152034Y-113451119D01*
X150149316Y-113443404D01*
X150087835Y-113248407D01*
X150087251Y-113246503D01*
X150025504Y-113039100D01*
X150023288Y-113030557D01*
X150019728Y-113014498D01*
X149979009Y-112830827D01*
X149978787Y-112829797D01*
X149934319Y-112617718D01*
X149932749Y-112608504D01*
X149906084Y-112405963D01*
X149906026Y-112405510D01*
X149879177Y-112190120D01*
X149878348Y-112180249D01*
X149869487Y-111977298D01*
X149860606Y-111762561D01*
X149860553Y-111760003D01*
X150135162Y-111760003D01*
X150154504Y-112190692D01*
X150154505Y-112190701D01*
X150212378Y-112617938D01*
X150308313Y-113038258D01*
X150441542Y-113448296D01*
X150441545Y-113448304D01*
X150610985Y-113844730D01*
X150610989Y-113844738D01*
X150815294Y-114224399D01*
X151052799Y-114584207D01*
X151052800Y-114584208D01*
X151289122Y-114880546D01*
X153174682Y-112994986D01*
X153179410Y-113002760D01*
X153365031Y-113230918D01*
X153579990Y-113431676D01*
X153708172Y-113522156D01*
X151821224Y-115409104D01*
X151821224Y-115409105D01*
X151944235Y-115516576D01*
X152293024Y-115769986D01*
X152663140Y-115991120D01*
X152663146Y-115991123D01*
X153051569Y-116178178D01*
X153051583Y-116178184D01*
X153455209Y-116329667D01*
X153455234Y-116329675D01*
X153870816Y-116444369D01*
X154295023Y-116521351D01*
X154724435Y-116559999D01*
X154724438Y-116560000D01*
X155155562Y-116560000D01*
X155155564Y-116559999D01*
X155584976Y-116521351D01*
X156009183Y-116444369D01*
X156424765Y-116329675D01*
X156424790Y-116329667D01*
X156828416Y-116178184D01*
X156828430Y-116178178D01*
X157216853Y-115991123D01*
X157216859Y-115991120D01*
X157586975Y-115769986D01*
X157935755Y-115516582D01*
X157935785Y-115516558D01*
X158058774Y-115409105D01*
X158058774Y-115409104D01*
X157584670Y-114935000D01*
X188197540Y-114935000D01*
X188217326Y-115123256D01*
X188217327Y-115123259D01*
X188275818Y-115303277D01*
X188275821Y-115303284D01*
X188370467Y-115467216D01*
X188460337Y-115567026D01*
X188497129Y-115607888D01*
X188650265Y-115719148D01*
X188650270Y-115719151D01*
X188823192Y-115796142D01*
X188823197Y-115796144D01*
X189008354Y-115835500D01*
X189008355Y-115835500D01*
X189197644Y-115835500D01*
X189197646Y-115835500D01*
X189382803Y-115796144D01*
X189555730Y-115719151D01*
X189708871Y-115607888D01*
X189835533Y-115467216D01*
X189930179Y-115303284D01*
X189988674Y-115123256D01*
X190008460Y-114935000D01*
X189988674Y-114746744D01*
X189930179Y-114566716D01*
X189835533Y-114402784D01*
X189760517Y-114319471D01*
X189730288Y-114256481D01*
X189738913Y-114187146D01*
X189760518Y-114153528D01*
X189835533Y-114070216D01*
X189930179Y-113906284D01*
X189988674Y-113726256D01*
X190008460Y-113538000D01*
X189988674Y-113349744D01*
X189930179Y-113169716D01*
X189835533Y-113005784D01*
X189760517Y-112922471D01*
X189730288Y-112859481D01*
X189738913Y-112790146D01*
X189760518Y-112756528D01*
X189760692Y-112756335D01*
X189835533Y-112673216D01*
X189930179Y-112509284D01*
X189988674Y-112329256D01*
X190008460Y-112141000D01*
X189988674Y-111952744D01*
X189930179Y-111772716D01*
X189922839Y-111760003D01*
X190775162Y-111760003D01*
X190794504Y-112190692D01*
X190794505Y-112190701D01*
X190852378Y-112617938D01*
X190948313Y-113038258D01*
X191081542Y-113448296D01*
X191081545Y-113448304D01*
X191250985Y-113844730D01*
X191250989Y-113844738D01*
X191455294Y-114224399D01*
X191692799Y-114584207D01*
X191692800Y-114584208D01*
X191929122Y-114880546D01*
X193814682Y-112994986D01*
X193819410Y-113002760D01*
X194005031Y-113230918D01*
X194219990Y-113431676D01*
X194348172Y-113522156D01*
X192461224Y-115409104D01*
X192461224Y-115409105D01*
X192584235Y-115516576D01*
X192933024Y-115769986D01*
X193303140Y-115991120D01*
X193303146Y-115991123D01*
X193691569Y-116178178D01*
X193691583Y-116178184D01*
X194095209Y-116329667D01*
X194095234Y-116329675D01*
X194510816Y-116444369D01*
X194935023Y-116521351D01*
X195364435Y-116559999D01*
X195364438Y-116560000D01*
X195795562Y-116560000D01*
X195795564Y-116559999D01*
X196224976Y-116521351D01*
X196649183Y-116444369D01*
X197064765Y-116329675D01*
X197064790Y-116329667D01*
X197468416Y-116178184D01*
X197468430Y-116178178D01*
X197856853Y-115991123D01*
X197856859Y-115991120D01*
X198226975Y-115769986D01*
X198575755Y-115516582D01*
X198575785Y-115516558D01*
X198698774Y-115409105D01*
X198698774Y-115409104D01*
X196811827Y-113522157D01*
X196940010Y-113431676D01*
X197154969Y-113230918D01*
X197340590Y-113002760D01*
X197345316Y-112994987D01*
X199230875Y-114880546D01*
X199467199Y-114584208D01*
X199467200Y-114584207D01*
X199704705Y-114224399D01*
X199909010Y-113844738D01*
X199909014Y-113844730D01*
X200078454Y-113448304D01*
X200078457Y-113448296D01*
X200211686Y-113038258D01*
X200307621Y-112617938D01*
X200365494Y-112190701D01*
X200365495Y-112190692D01*
X200384838Y-111760003D01*
X200384838Y-111759996D01*
X200365495Y-111329307D01*
X200365494Y-111329298D01*
X200307621Y-110902061D01*
X200211686Y-110481741D01*
X200078457Y-110071703D01*
X200078454Y-110071695D01*
X199909014Y-109675269D01*
X199909010Y-109675261D01*
X199704705Y-109295600D01*
X199467200Y-108935792D01*
X199467199Y-108935791D01*
X199230875Y-108639452D01*
X197345316Y-110525011D01*
X197340590Y-110517240D01*
X197154969Y-110289082D01*
X196940010Y-110088324D01*
X196811826Y-109997841D01*
X198698774Y-108110894D01*
X198698774Y-108110893D01*
X198575764Y-108003423D01*
X198226975Y-107750013D01*
X197856859Y-107528879D01*
X197856853Y-107528876D01*
X197468430Y-107341821D01*
X197468416Y-107341815D01*
X197064790Y-107190332D01*
X197064765Y-107190324D01*
X196649183Y-107075630D01*
X196224976Y-106998648D01*
X195795564Y-106960000D01*
X195364435Y-106960000D01*
X194935023Y-106998648D01*
X194510816Y-107075630D01*
X194095234Y-107190324D01*
X194095209Y-107190332D01*
X193691583Y-107341815D01*
X193691569Y-107341821D01*
X193303146Y-107528876D01*
X193303140Y-107528879D01*
X192933024Y-107750013D01*
X192584242Y-108003419D01*
X192461224Y-108110894D01*
X194348172Y-109997842D01*
X194219990Y-110088324D01*
X194005031Y-110289082D01*
X193819410Y-110517240D01*
X193814683Y-110525013D01*
X191929122Y-108639452D01*
X191692800Y-108935791D01*
X191692799Y-108935792D01*
X191455294Y-109295600D01*
X191250989Y-109675261D01*
X191250985Y-109675269D01*
X191081545Y-110071695D01*
X191081542Y-110071703D01*
X190948313Y-110481741D01*
X190852378Y-110902061D01*
X190794505Y-111329298D01*
X190794504Y-111329307D01*
X190775162Y-111759996D01*
X190775162Y-111760003D01*
X189922839Y-111760003D01*
X189835533Y-111608784D01*
X189708871Y-111468112D01*
X189636893Y-111415817D01*
X189594228Y-111360489D01*
X189588249Y-111290875D01*
X189620854Y-111229080D01*
X189636894Y-111215182D01*
X189708871Y-111162888D01*
X189835533Y-111022216D01*
X189930179Y-110858284D01*
X189988674Y-110678256D01*
X190008460Y-110490000D01*
X189988674Y-110301744D01*
X189930179Y-110121716D01*
X189835533Y-109957784D01*
X189708871Y-109817112D01*
X189662454Y-109783388D01*
X189555734Y-109705851D01*
X189555729Y-109705848D01*
X189382807Y-109628857D01*
X189382802Y-109628855D01*
X189237001Y-109597865D01*
X189197646Y-109589500D01*
X189008354Y-109589500D01*
X188975897Y-109596398D01*
X188823197Y-109628855D01*
X188823192Y-109628857D01*
X188650270Y-109705848D01*
X188650265Y-109705851D01*
X188497129Y-109817111D01*
X188370466Y-109957785D01*
X188275821Y-110121715D01*
X188275818Y-110121722D01*
X188221440Y-110289082D01*
X188217326Y-110301744D01*
X188197540Y-110490000D01*
X188217326Y-110678256D01*
X188217327Y-110678259D01*
X188275818Y-110858277D01*
X188275821Y-110858284D01*
X188370467Y-111022216D01*
X188384973Y-111038326D01*
X188492159Y-111157369D01*
X188497129Y-111162888D01*
X188569106Y-111215182D01*
X188611771Y-111270512D01*
X188617750Y-111340125D01*
X188585144Y-111401920D01*
X188569106Y-111415818D01*
X188497127Y-111468113D01*
X188370466Y-111608785D01*
X188275821Y-111772715D01*
X188275818Y-111772722D01*
X188217327Y-111952740D01*
X188217326Y-111952744D01*
X188197540Y-112141000D01*
X188217326Y-112329256D01*
X188217327Y-112329259D01*
X188275818Y-112509277D01*
X188275821Y-112509284D01*
X188370467Y-112673216D01*
X188411135Y-112718382D01*
X188445481Y-112756528D01*
X188475711Y-112819520D01*
X188467085Y-112888855D01*
X188445481Y-112922472D01*
X188370466Y-113005785D01*
X188275821Y-113169715D01*
X188275818Y-113169722D01*
X188217327Y-113349740D01*
X188217326Y-113349744D01*
X188197540Y-113538000D01*
X188217326Y-113726256D01*
X188217327Y-113726259D01*
X188275818Y-113906277D01*
X188275821Y-113906284D01*
X188370467Y-114070216D01*
X188411135Y-114115382D01*
X188445481Y-114153528D01*
X188475711Y-114216520D01*
X188467085Y-114285855D01*
X188445481Y-114319472D01*
X188370466Y-114402785D01*
X188275821Y-114566715D01*
X188275818Y-114566722D01*
X188217327Y-114746740D01*
X188217326Y-114746744D01*
X188197540Y-114935000D01*
X157584670Y-114935000D01*
X156171827Y-113522157D01*
X156300010Y-113431676D01*
X156514969Y-113230918D01*
X156700590Y-113002760D01*
X156705316Y-112994987D01*
X158590875Y-114880546D01*
X158827199Y-114584208D01*
X158827200Y-114584207D01*
X159064705Y-114224399D01*
X159269010Y-113844738D01*
X159269014Y-113844730D01*
X159438454Y-113448304D01*
X159438457Y-113448296D01*
X159571686Y-113038258D01*
X159667621Y-112617938D01*
X159675216Y-112561870D01*
X166983500Y-112561870D01*
X166983501Y-112561876D01*
X166989908Y-112621483D01*
X167040202Y-112756328D01*
X167040206Y-112756335D01*
X167126452Y-112871544D01*
X167126455Y-112871547D01*
X167241664Y-112957793D01*
X167241671Y-112957797D01*
X167376517Y-113008091D01*
X167376516Y-113008091D01*
X167383444Y-113008835D01*
X167436127Y-113014500D01*
X169931872Y-113014499D01*
X169991483Y-113008091D01*
X170126331Y-112957796D01*
X170241546Y-112871546D01*
X170327796Y-112756331D01*
X170378091Y-112621483D01*
X170384500Y-112561873D01*
X170384499Y-112037487D01*
X170404183Y-111970451D01*
X170456987Y-111924696D01*
X170526146Y-111914752D01*
X170589702Y-111943777D01*
X170623927Y-111992187D01*
X170648059Y-112053673D01*
X170745399Y-112222270D01*
X171587530Y-111380139D01*
X171599444Y-111470631D01*
X171659901Y-111616588D01*
X171756075Y-111741925D01*
X171881412Y-111838099D01*
X172027369Y-111898556D01*
X172117860Y-111910469D01*
X171275925Y-112752402D01*
X171331616Y-112790371D01*
X171331622Y-112790374D01*
X171561176Y-112900921D01*
X171561174Y-112900921D01*
X171804652Y-112976024D01*
X171804658Y-112976026D01*
X172056595Y-113013999D01*
X172056604Y-113014000D01*
X172311396Y-113014000D01*
X172311404Y-113013999D01*
X172563341Y-112976026D01*
X172563347Y-112976024D01*
X172806824Y-112900921D01*
X173036381Y-112790373D01*
X173092073Y-112752402D01*
X172250139Y-111910469D01*
X172340631Y-111898556D01*
X172486588Y-111838099D01*
X172611925Y-111741925D01*
X172708099Y-111616589D01*
X172768556Y-111470631D01*
X172780469Y-111380139D01*
X173622599Y-112222270D01*
X173622600Y-112222270D01*
X173719941Y-112053671D01*
X173813026Y-111816494D01*
X173813031Y-111816477D01*
X173869726Y-111568079D01*
X173888767Y-111314004D01*
X173888767Y-111313995D01*
X173869726Y-111059920D01*
X173813031Y-110811522D01*
X173813026Y-110811505D01*
X173719941Y-110574328D01*
X173719942Y-110574328D01*
X173622599Y-110405728D01*
X172780469Y-111247859D01*
X172768556Y-111157369D01*
X172708099Y-111011412D01*
X172611925Y-110886075D01*
X172486588Y-110789901D01*
X172340631Y-110729444D01*
X172250140Y-110717530D01*
X173092073Y-109875596D01*
X173036384Y-109837628D01*
X173036376Y-109837623D01*
X172806823Y-109727078D01*
X172806825Y-109727078D01*
X172563347Y-109651975D01*
X172563341Y-109651973D01*
X172311404Y-109614000D01*
X172056595Y-109614000D01*
X171804658Y-109651973D01*
X171804652Y-109651975D01*
X171561178Y-109727077D01*
X171331618Y-109837627D01*
X171331612Y-109837630D01*
X171275926Y-109875596D01*
X172117860Y-110717530D01*
X172027369Y-110729444D01*
X171881412Y-110789901D01*
X171756075Y-110886075D01*
X171659901Y-111011411D01*
X171599444Y-111157369D01*
X171587530Y-111247859D01*
X170745399Y-110405729D01*
X170648059Y-110574326D01*
X170623927Y-110635814D01*
X170581111Y-110691027D01*
X170515241Y-110714328D01*
X170447230Y-110698317D01*
X170398672Y-110648079D01*
X170384499Y-110590511D01*
X170384499Y-110066129D01*
X170384498Y-110066123D01*
X170384497Y-110066116D01*
X170378091Y-110006517D01*
X170327796Y-109871669D01*
X170327795Y-109871668D01*
X170327793Y-109871664D01*
X170241547Y-109756455D01*
X170241544Y-109756452D01*
X170126335Y-109670206D01*
X170126328Y-109670202D01*
X169991482Y-109619908D01*
X169991483Y-109619908D01*
X169931883Y-109613501D01*
X169931881Y-109613500D01*
X169931873Y-109613500D01*
X169931864Y-109613500D01*
X167436129Y-109613500D01*
X167436123Y-109613501D01*
X167376516Y-109619908D01*
X167241671Y-109670202D01*
X167241664Y-109670206D01*
X167126455Y-109756452D01*
X167126452Y-109756455D01*
X167040206Y-109871664D01*
X167040202Y-109871671D01*
X166989908Y-110006517D01*
X166983501Y-110066116D01*
X166983501Y-110066123D01*
X166983500Y-110066135D01*
X166983500Y-112561870D01*
X159675216Y-112561870D01*
X159725494Y-112190701D01*
X159725495Y-112190692D01*
X159744838Y-111760003D01*
X159744838Y-111759996D01*
X159725495Y-111329307D01*
X159725494Y-111329298D01*
X159667621Y-110902061D01*
X159571686Y-110481741D01*
X159438457Y-110071703D01*
X159438454Y-110071695D01*
X159269014Y-109675269D01*
X159269010Y-109675261D01*
X159064705Y-109295600D01*
X158827200Y-108935792D01*
X158827199Y-108935791D01*
X158590875Y-108639452D01*
X156705316Y-110525011D01*
X156700590Y-110517240D01*
X156514969Y-110289082D01*
X156300010Y-110088324D01*
X156171826Y-109997841D01*
X158058774Y-108110894D01*
X158058774Y-108110893D01*
X157935764Y-108003423D01*
X157586975Y-107750013D01*
X157216859Y-107528879D01*
X157216853Y-107528876D01*
X156828430Y-107341821D01*
X156828416Y-107341815D01*
X156424790Y-107190332D01*
X156424765Y-107190324D01*
X156009183Y-107075630D01*
X155584976Y-106998648D01*
X155155564Y-106960000D01*
X154724435Y-106960000D01*
X154295023Y-106998648D01*
X153870816Y-107075630D01*
X153455234Y-107190324D01*
X153455209Y-107190332D01*
X153051583Y-107341815D01*
X153051569Y-107341821D01*
X152663146Y-107528876D01*
X152663140Y-107528879D01*
X152293024Y-107750013D01*
X151944242Y-108003419D01*
X151821224Y-108110894D01*
X153708172Y-109997842D01*
X153579990Y-110088324D01*
X153365031Y-110289082D01*
X153179410Y-110517240D01*
X153174683Y-110525013D01*
X151289122Y-108639452D01*
X151052800Y-108935791D01*
X151052799Y-108935792D01*
X150815294Y-109295600D01*
X150610989Y-109675261D01*
X150610985Y-109675269D01*
X150441545Y-110071695D01*
X150441542Y-110071703D01*
X150308313Y-110481741D01*
X150212378Y-110902061D01*
X150154505Y-111329298D01*
X150154504Y-111329307D01*
X150135162Y-111759996D01*
X150135162Y-111760003D01*
X149860553Y-111760003D01*
X149860500Y-111757438D01*
X149860500Y-102707000D01*
X153361989Y-102707000D01*
X153396482Y-102784476D01*
X153507687Y-102937535D01*
X153648281Y-103064127D01*
X153648284Y-103064129D01*
X153812115Y-103158716D01*
X153812127Y-103158721D01*
X153992050Y-103217182D01*
X154055200Y-103223818D01*
X154055200Y-102707000D01*
X154805200Y-102707000D01*
X154805200Y-103223817D01*
X154868349Y-103217182D01*
X155048272Y-103158721D01*
X155048284Y-103158716D01*
X155212115Y-103064129D01*
X155212118Y-103064127D01*
X155352709Y-102937539D01*
X155352711Y-102937536D01*
X155463916Y-102784478D01*
X155498412Y-102707000D01*
X154805200Y-102707000D01*
X154055200Y-102707000D01*
X153361989Y-102707000D01*
X149860500Y-102707000D01*
X149860500Y-102332000D01*
X154175302Y-102332000D01*
X154194705Y-102429545D01*
X154249960Y-102512240D01*
X154332655Y-102567495D01*
X154405576Y-102582000D01*
X154454824Y-102582000D01*
X154527745Y-102567495D01*
X154610440Y-102512240D01*
X154665695Y-102429545D01*
X154685098Y-102332000D01*
X154665695Y-102234455D01*
X154610440Y-102151760D01*
X154527745Y-102096505D01*
X154454824Y-102082000D01*
X154405576Y-102082000D01*
X154332655Y-102096505D01*
X154249960Y-102151760D01*
X154194705Y-102234455D01*
X154175302Y-102332000D01*
X149860500Y-102332000D01*
X149860500Y-101176645D01*
X153279700Y-101176645D01*
X153319055Y-101361802D01*
X153319057Y-101361807D01*
X153396048Y-101534729D01*
X153396051Y-101534734D01*
X153468564Y-101634540D01*
X153492044Y-101700346D01*
X153476218Y-101768400D01*
X153468564Y-101780310D01*
X153396486Y-101879516D01*
X153396483Y-101879521D01*
X153361987Y-101957000D01*
X153939453Y-101957000D01*
X153977771Y-101963069D01*
X153991944Y-101967674D01*
X154133008Y-101982500D01*
X154133012Y-101982500D01*
X154727388Y-101982500D01*
X154727392Y-101982500D01*
X154741664Y-101981000D01*
X187943540Y-101981000D01*
X187963326Y-102169256D01*
X187963327Y-102169259D01*
X188021818Y-102349277D01*
X188021821Y-102349284D01*
X188116467Y-102513216D01*
X188178401Y-102582000D01*
X188243129Y-102653888D01*
X188396265Y-102765148D01*
X188396270Y-102765151D01*
X188569192Y-102842142D01*
X188569197Y-102842144D01*
X188754354Y-102881500D01*
X188754355Y-102881500D01*
X188943644Y-102881500D01*
X188943646Y-102881500D01*
X189128803Y-102842144D01*
X189301730Y-102765151D01*
X189454871Y-102653888D01*
X189581533Y-102513216D01*
X189676179Y-102349284D01*
X189734674Y-102169256D01*
X189754460Y-101981000D01*
X189734674Y-101792744D01*
X189676179Y-101612716D01*
X189581533Y-101448784D01*
X189454871Y-101308112D01*
X189454870Y-101308111D01*
X189301734Y-101196851D01*
X189301729Y-101196848D01*
X189128807Y-101119857D01*
X189128802Y-101119855D01*
X188983001Y-101088865D01*
X188943646Y-101080500D01*
X188754354Y-101080500D01*
X188721897Y-101087398D01*
X188569197Y-101119855D01*
X188569192Y-101119857D01*
X188396270Y-101196848D01*
X188396265Y-101196851D01*
X188243129Y-101308111D01*
X188116466Y-101448785D01*
X188021821Y-101612715D01*
X188021818Y-101612722D01*
X187963327Y-101792740D01*
X187963326Y-101792744D01*
X187943540Y-101981000D01*
X154741664Y-101981000D01*
X154868456Y-101967674D01*
X154882629Y-101963069D01*
X154920947Y-101957000D01*
X155498411Y-101957000D01*
X155498410Y-101956999D01*
X155463917Y-101879523D01*
X155391834Y-101780311D01*
X155368354Y-101714505D01*
X155384179Y-101646451D01*
X155391828Y-101634548D01*
X155464351Y-101534730D01*
X155541344Y-101361803D01*
X155580700Y-101176646D01*
X155580700Y-100987354D01*
X155541344Y-100802197D01*
X155464351Y-100629270D01*
X155464348Y-100629265D01*
X155392144Y-100529885D01*
X155368664Y-100464079D01*
X155384489Y-100396025D01*
X155392144Y-100384115D01*
X155464348Y-100284734D01*
X155464347Y-100284734D01*
X155464351Y-100284730D01*
X155541344Y-100111803D01*
X155580700Y-99926646D01*
X155580700Y-99737354D01*
X155541344Y-99552197D01*
X155496955Y-99452500D01*
X155464351Y-99379270D01*
X155443595Y-99350701D01*
X155420116Y-99284898D01*
X155435941Y-99216844D01*
X155437764Y-99213723D01*
X155523678Y-99071606D01*
X155574286Y-98909196D01*
X155580700Y-98838616D01*
X155580700Y-98552000D01*
X177148540Y-98552000D01*
X177168326Y-98740256D01*
X177168327Y-98740259D01*
X177226818Y-98920277D01*
X177226821Y-98920284D01*
X177321467Y-99084216D01*
X177440886Y-99216844D01*
X177448129Y-99224888D01*
X177601265Y-99336148D01*
X177601270Y-99336151D01*
X177774192Y-99413142D01*
X177774197Y-99413144D01*
X177959354Y-99452500D01*
X177959355Y-99452500D01*
X178148644Y-99452500D01*
X178148646Y-99452500D01*
X178333803Y-99413144D01*
X178506730Y-99336151D01*
X178659871Y-99224888D01*
X178786533Y-99084216D01*
X178881179Y-98920284D01*
X178939674Y-98740256D01*
X178959460Y-98552000D01*
X178939674Y-98363744D01*
X178881179Y-98183716D01*
X178786533Y-98019784D01*
X178659871Y-97879112D01*
X178659870Y-97879111D01*
X178506734Y-97767851D01*
X178506729Y-97767848D01*
X178333807Y-97690857D01*
X178333802Y-97690855D01*
X178188001Y-97659865D01*
X178148646Y-97651500D01*
X177959354Y-97651500D01*
X177926897Y-97658398D01*
X177774197Y-97690855D01*
X177774192Y-97690857D01*
X177601270Y-97767848D01*
X177601265Y-97767851D01*
X177448129Y-97879111D01*
X177321466Y-98019785D01*
X177226821Y-98183715D01*
X177226818Y-98183722D01*
X177180790Y-98325384D01*
X177168326Y-98363744D01*
X177148540Y-98552000D01*
X155580700Y-98552000D01*
X155580700Y-98325384D01*
X155574286Y-98254804D01*
X155523678Y-98092394D01*
X155435672Y-97946815D01*
X155435670Y-97946813D01*
X155435669Y-97946811D01*
X155315388Y-97826530D01*
X155218318Y-97767849D01*
X155169806Y-97738522D01*
X155007396Y-97687914D01*
X155007394Y-97687913D01*
X155007392Y-97687913D01*
X154957978Y-97683423D01*
X154936816Y-97681500D01*
X153923584Y-97681500D01*
X153904345Y-97683248D01*
X153853007Y-97687913D01*
X153690593Y-97738522D01*
X153545011Y-97826530D01*
X153424730Y-97946811D01*
X153336722Y-98092393D01*
X153286113Y-98254807D01*
X153279700Y-98325386D01*
X153279700Y-98838613D01*
X153286113Y-98909192D01*
X153336722Y-99071606D01*
X153422602Y-99213668D01*
X153440438Y-99281223D01*
X153418920Y-99347696D01*
X153416805Y-99350701D01*
X153396048Y-99379271D01*
X153319057Y-99552192D01*
X153319055Y-99552197D01*
X153279700Y-99737354D01*
X153279700Y-99926645D01*
X153319055Y-100111802D01*
X153319057Y-100111807D01*
X153396048Y-100284728D01*
X153468256Y-100384115D01*
X153491735Y-100449922D01*
X153475909Y-100517975D01*
X153468256Y-100529885D01*
X153396048Y-100629271D01*
X153319057Y-100802192D01*
X153319055Y-100802197D01*
X153279700Y-100987354D01*
X153279700Y-101176645D01*
X149860500Y-101176645D01*
X149860500Y-96497669D01*
X162946871Y-96497669D01*
X162966657Y-96685925D01*
X162966658Y-96685928D01*
X163025149Y-96865946D01*
X163025152Y-96865953D01*
X163119798Y-97029885D01*
X163246460Y-97170557D01*
X163399596Y-97281817D01*
X163399601Y-97281820D01*
X163572523Y-97358811D01*
X163572528Y-97358813D01*
X163757685Y-97398169D01*
X163757686Y-97398169D01*
X163946975Y-97398169D01*
X163946977Y-97398169D01*
X164132134Y-97358813D01*
X164305061Y-97281820D01*
X164458202Y-97170557D01*
X164584864Y-97029885D01*
X164679510Y-96865953D01*
X164738005Y-96685925D01*
X164757791Y-96497669D01*
X164738005Y-96309413D01*
X164679510Y-96129385D01*
X164584864Y-95965453D01*
X164458202Y-95824781D01*
X164458201Y-95824780D01*
X164305065Y-95713520D01*
X164305060Y-95713517D01*
X164132138Y-95636526D01*
X164132133Y-95636524D01*
X163986332Y-95605534D01*
X163946977Y-95597169D01*
X163757685Y-95597169D01*
X163725228Y-95604067D01*
X163572528Y-95636524D01*
X163572523Y-95636526D01*
X163399601Y-95713517D01*
X163399596Y-95713520D01*
X163246460Y-95824780D01*
X163119797Y-95965454D01*
X163025152Y-96129384D01*
X163025149Y-96129391D01*
X162977026Y-96277500D01*
X162966657Y-96309413D01*
X162946871Y-96497669D01*
X149860500Y-96497669D01*
X149860500Y-95377000D01*
X169274540Y-95377000D01*
X169294326Y-95565256D01*
X169294327Y-95565259D01*
X169352818Y-95745277D01*
X169352821Y-95745284D01*
X169447467Y-95909216D01*
X169574129Y-96049888D01*
X169727265Y-96161148D01*
X169727270Y-96161151D01*
X169900192Y-96238142D01*
X169900197Y-96238144D01*
X170085354Y-96277500D01*
X170085355Y-96277500D01*
X170274644Y-96277500D01*
X170274646Y-96277500D01*
X170459803Y-96238144D01*
X170632730Y-96161151D01*
X170785871Y-96049888D01*
X170912533Y-95909216D01*
X171007179Y-95745284D01*
X171065674Y-95565256D01*
X171085460Y-95377000D01*
X171073823Y-95266284D01*
X171086392Y-95197558D01*
X171134124Y-95146534D01*
X171171359Y-95132037D01*
X171206554Y-95124557D01*
X171206558Y-95124555D01*
X171206559Y-95124555D01*
X171236684Y-95111142D01*
X171379481Y-95047564D01*
X171380792Y-95046611D01*
X171381680Y-95046294D01*
X171385114Y-95044312D01*
X171385476Y-95044939D01*
X171446593Y-95023123D01*
X171504125Y-95033641D01*
X171505269Y-95034150D01*
X171505270Y-95034151D01*
X171678197Y-95111144D01*
X171863354Y-95150500D01*
X171863355Y-95150500D01*
X172052644Y-95150500D01*
X172052646Y-95150500D01*
X172237803Y-95111144D01*
X172410730Y-95034151D01*
X172563871Y-94922888D01*
X172690533Y-94782216D01*
X172785179Y-94618284D01*
X172843674Y-94438256D01*
X172863460Y-94250000D01*
X172843674Y-94061744D01*
X172785179Y-93881716D01*
X172690533Y-93717784D01*
X172563871Y-93577112D01*
X172563870Y-93577111D01*
X172454157Y-93497400D01*
X173414740Y-93497400D01*
X173434526Y-93685656D01*
X173434527Y-93685659D01*
X173493018Y-93865677D01*
X173493021Y-93865684D01*
X173587667Y-94029616D01*
X173714329Y-94170288D01*
X173867465Y-94281548D01*
X173867470Y-94281551D01*
X174040392Y-94358542D01*
X174040397Y-94358544D01*
X174225554Y-94397900D01*
X174225555Y-94397900D01*
X174414844Y-94397900D01*
X174414846Y-94397900D01*
X174600003Y-94358544D01*
X174772930Y-94281551D01*
X174926071Y-94170288D01*
X175052733Y-94029616D01*
X175147379Y-93865684D01*
X175205874Y-93685656D01*
X175225660Y-93497400D01*
X175205874Y-93309144D01*
X175147379Y-93129116D01*
X175052733Y-92965184D01*
X174926071Y-92824512D01*
X174873971Y-92786659D01*
X174772934Y-92713251D01*
X174772929Y-92713248D01*
X174600007Y-92636257D01*
X174600002Y-92636255D01*
X174454201Y-92605265D01*
X174414846Y-92596900D01*
X174225554Y-92596900D01*
X174193097Y-92603798D01*
X174040397Y-92636255D01*
X174040392Y-92636257D01*
X173867470Y-92713248D01*
X173867465Y-92713251D01*
X173714329Y-92824511D01*
X173587666Y-92965185D01*
X173493021Y-93129115D01*
X173493018Y-93129122D01*
X173459617Y-93231921D01*
X173434526Y-93309144D01*
X173414740Y-93497400D01*
X172454157Y-93497400D01*
X172410734Y-93465851D01*
X172410729Y-93465848D01*
X172237807Y-93388857D01*
X172237802Y-93388855D01*
X172092001Y-93357865D01*
X172052646Y-93349500D01*
X171863354Y-93349500D01*
X171830897Y-93356398D01*
X171678197Y-93388855D01*
X171678192Y-93388857D01*
X171505270Y-93465848D01*
X171505260Y-93465854D01*
X171503937Y-93466816D01*
X171503042Y-93467135D01*
X171499635Y-93469102D01*
X171499275Y-93468478D01*
X171438129Y-93490290D01*
X171380624Y-93479771D01*
X171206558Y-93402270D01*
X171206553Y-93402268D01*
X171060752Y-93371278D01*
X171021397Y-93362913D01*
X170832105Y-93362913D01*
X170799648Y-93369811D01*
X170646948Y-93402268D01*
X170646943Y-93402270D01*
X170474021Y-93479261D01*
X170474016Y-93479264D01*
X170320880Y-93590524D01*
X170194217Y-93731198D01*
X170099572Y-93895128D01*
X170099569Y-93895135D01*
X170055874Y-94029616D01*
X170041077Y-94075157D01*
X170021291Y-94263413D01*
X170031289Y-94358544D01*
X170032927Y-94374124D01*
X170020357Y-94442854D01*
X169972625Y-94493877D01*
X169935390Y-94508375D01*
X169908216Y-94514151D01*
X169900197Y-94515856D01*
X169900196Y-94515856D01*
X169900193Y-94515857D01*
X169900192Y-94515857D01*
X169727270Y-94592848D01*
X169727265Y-94592851D01*
X169574129Y-94704111D01*
X169447466Y-94844785D01*
X169352821Y-95008715D01*
X169352818Y-95008722D01*
X169294327Y-95188740D01*
X169294326Y-95188744D01*
X169274540Y-95377000D01*
X149860500Y-95377000D01*
X149860500Y-92780200D01*
X153363789Y-92780200D01*
X153398282Y-92857676D01*
X153509487Y-93010735D01*
X153650081Y-93137327D01*
X153650084Y-93137329D01*
X153813915Y-93231916D01*
X153813927Y-93231921D01*
X153993850Y-93290382D01*
X154057000Y-93297018D01*
X154057000Y-92780200D01*
X154807000Y-92780200D01*
X154807000Y-93297017D01*
X154870149Y-93290382D01*
X155050072Y-93231921D01*
X155050084Y-93231916D01*
X155213915Y-93137329D01*
X155213918Y-93137327D01*
X155354509Y-93010739D01*
X155354511Y-93010736D01*
X155465716Y-92857678D01*
X155500212Y-92780200D01*
X154807000Y-92780200D01*
X154057000Y-92780200D01*
X153363789Y-92780200D01*
X149860500Y-92780200D01*
X149860500Y-92405200D01*
X154177102Y-92405200D01*
X154196505Y-92502745D01*
X154251760Y-92585440D01*
X154334455Y-92640695D01*
X154407376Y-92655200D01*
X154456624Y-92655200D01*
X154529545Y-92640695D01*
X154612240Y-92585440D01*
X154667495Y-92502745D01*
X154686898Y-92405200D01*
X154671741Y-92329000D01*
X178926540Y-92329000D01*
X178946326Y-92517256D01*
X178946327Y-92517259D01*
X179004818Y-92697277D01*
X179004821Y-92697284D01*
X179099467Y-92861216D01*
X179194425Y-92966677D01*
X179226129Y-93001888D01*
X179379265Y-93113148D01*
X179379270Y-93113151D01*
X179552192Y-93190142D01*
X179552197Y-93190144D01*
X179737354Y-93229500D01*
X179737355Y-93229500D01*
X179926644Y-93229500D01*
X179926646Y-93229500D01*
X180111803Y-93190144D01*
X180284730Y-93113151D01*
X180437871Y-93001888D01*
X180564533Y-92861216D01*
X180659179Y-92697284D01*
X180691309Y-92598400D01*
X181339540Y-92598400D01*
X181359326Y-92786656D01*
X181359327Y-92786659D01*
X181417818Y-92966677D01*
X181417821Y-92966684D01*
X181512467Y-93130616D01*
X181601503Y-93229500D01*
X181639129Y-93271288D01*
X181792265Y-93382548D01*
X181792270Y-93382551D01*
X181965192Y-93459542D01*
X181965197Y-93459544D01*
X182150354Y-93498900D01*
X182150355Y-93498900D01*
X182339644Y-93498900D01*
X182339646Y-93498900D01*
X182524803Y-93459544D01*
X182697730Y-93382551D01*
X182850871Y-93271288D01*
X182977533Y-93130616D01*
X183072179Y-92966684D01*
X183130674Y-92786656D01*
X183150460Y-92598400D01*
X183130674Y-92410144D01*
X183072179Y-92230116D01*
X182977533Y-92066184D01*
X182850871Y-91925512D01*
X182850870Y-91925511D01*
X182697734Y-91814251D01*
X182697729Y-91814248D01*
X182524807Y-91737257D01*
X182524802Y-91737255D01*
X182379001Y-91706265D01*
X182339646Y-91697900D01*
X182150354Y-91697900D01*
X182117897Y-91704798D01*
X181965197Y-91737255D01*
X181965192Y-91737257D01*
X181792270Y-91814248D01*
X181792265Y-91814251D01*
X181639129Y-91925511D01*
X181512466Y-92066185D01*
X181417821Y-92230115D01*
X181417818Y-92230122D01*
X181385691Y-92329000D01*
X181359326Y-92410144D01*
X181339540Y-92598400D01*
X180691309Y-92598400D01*
X180717674Y-92517256D01*
X180737460Y-92329000D01*
X180717674Y-92140744D01*
X180659179Y-91960716D01*
X180564533Y-91796784D01*
X180437871Y-91656112D01*
X180437870Y-91656111D01*
X180284734Y-91544851D01*
X180284729Y-91544848D01*
X180111807Y-91467857D01*
X180111802Y-91467855D01*
X179957236Y-91435002D01*
X179926646Y-91428500D01*
X179737354Y-91428500D01*
X179706764Y-91435002D01*
X179552197Y-91467855D01*
X179552192Y-91467857D01*
X179379270Y-91544848D01*
X179379265Y-91544851D01*
X179226129Y-91656111D01*
X179099466Y-91796785D01*
X179004821Y-91960715D01*
X179004818Y-91960722D01*
X178946327Y-92140740D01*
X178946326Y-92140744D01*
X178926540Y-92329000D01*
X154671741Y-92329000D01*
X154667495Y-92307655D01*
X154612240Y-92224960D01*
X154529545Y-92169705D01*
X154456624Y-92155200D01*
X154407376Y-92155200D01*
X154334455Y-92169705D01*
X154251760Y-92224960D01*
X154196505Y-92307655D01*
X154177102Y-92405200D01*
X149860500Y-92405200D01*
X149860500Y-91249845D01*
X153281500Y-91249845D01*
X153320855Y-91435002D01*
X153320857Y-91435007D01*
X153397848Y-91607929D01*
X153397851Y-91607934D01*
X153470364Y-91707740D01*
X153493844Y-91773546D01*
X153478018Y-91841600D01*
X153470364Y-91853510D01*
X153398286Y-91952716D01*
X153398283Y-91952721D01*
X153363787Y-92030200D01*
X153941253Y-92030200D01*
X153979571Y-92036269D01*
X153993744Y-92040874D01*
X154134808Y-92055700D01*
X154134812Y-92055700D01*
X154729188Y-92055700D01*
X154729192Y-92055700D01*
X154870256Y-92040874D01*
X154884429Y-92036269D01*
X154922747Y-92030200D01*
X155500211Y-92030200D01*
X155500210Y-92030199D01*
X155465717Y-91952723D01*
X155393634Y-91853511D01*
X155370154Y-91787705D01*
X155385979Y-91719651D01*
X155393628Y-91707748D01*
X155466151Y-91607930D01*
X155543144Y-91435003D01*
X155582500Y-91249846D01*
X155582500Y-91060554D01*
X155543144Y-90875397D01*
X155466151Y-90702470D01*
X155466148Y-90702465D01*
X155393944Y-90603085D01*
X155370464Y-90537279D01*
X155386289Y-90469225D01*
X155393944Y-90457315D01*
X155466148Y-90357934D01*
X155466147Y-90357934D01*
X155466151Y-90357930D01*
X155543144Y-90185003D01*
X155582500Y-89999846D01*
X155582500Y-89810554D01*
X155543144Y-89625397D01*
X155466151Y-89452470D01*
X155466148Y-89452465D01*
X155393944Y-89353085D01*
X155370464Y-89287279D01*
X155386289Y-89219225D01*
X155393944Y-89207315D01*
X155466148Y-89107934D01*
X155466147Y-89107934D01*
X155466151Y-89107930D01*
X155543144Y-88935003D01*
X155582500Y-88749846D01*
X155582500Y-88646000D01*
X177910540Y-88646000D01*
X177930326Y-88834256D01*
X177930327Y-88834259D01*
X177988818Y-89014277D01*
X177988821Y-89014284D01*
X178083467Y-89178216D01*
X178168921Y-89273122D01*
X178210129Y-89318888D01*
X178363265Y-89430148D01*
X178363270Y-89430151D01*
X178536192Y-89507142D01*
X178536197Y-89507144D01*
X178721354Y-89546500D01*
X178721355Y-89546500D01*
X178910644Y-89546500D01*
X178910646Y-89546500D01*
X179095803Y-89507144D01*
X179268730Y-89430151D01*
X179421871Y-89318888D01*
X179548533Y-89178216D01*
X179643179Y-89014284D01*
X179701674Y-88834256D01*
X179721460Y-88646000D01*
X179701674Y-88457744D01*
X179643179Y-88277716D01*
X179548533Y-88113784D01*
X179421871Y-87973112D01*
X179416521Y-87969225D01*
X179268734Y-87861851D01*
X179268729Y-87861848D01*
X179095807Y-87784857D01*
X179095802Y-87784855D01*
X178950001Y-87753865D01*
X178910646Y-87745500D01*
X178721354Y-87745500D01*
X178688897Y-87752398D01*
X178536197Y-87784855D01*
X178536192Y-87784857D01*
X178363270Y-87861848D01*
X178363265Y-87861851D01*
X178210129Y-87973111D01*
X178083466Y-88113785D01*
X177988821Y-88277715D01*
X177988818Y-88277722D01*
X177957082Y-88375397D01*
X177930326Y-88457744D01*
X177910540Y-88646000D01*
X155582500Y-88646000D01*
X155582500Y-88560554D01*
X155543144Y-88375397D01*
X155466151Y-88202470D01*
X155466148Y-88202465D01*
X155393944Y-88103085D01*
X155370464Y-88037279D01*
X155386289Y-87969225D01*
X155393944Y-87957315D01*
X155466148Y-87857934D01*
X155466147Y-87857934D01*
X155466151Y-87857930D01*
X155543144Y-87685003D01*
X155582500Y-87499846D01*
X155582500Y-87310554D01*
X155543144Y-87125397D01*
X155514356Y-87060740D01*
X155466151Y-86952470D01*
X155445395Y-86923901D01*
X155421916Y-86858098D01*
X155437741Y-86790044D01*
X155439564Y-86786923D01*
X155525478Y-86644806D01*
X155576086Y-86482396D01*
X155582500Y-86411816D01*
X155582500Y-85898584D01*
X155578267Y-85852000D01*
X166480540Y-85852000D01*
X166500326Y-86040256D01*
X166500327Y-86040259D01*
X166558818Y-86220277D01*
X166558821Y-86220284D01*
X166653467Y-86384216D01*
X166741869Y-86482396D01*
X166780129Y-86524888D01*
X166933265Y-86636148D01*
X166933270Y-86636151D01*
X167106192Y-86713142D01*
X167106197Y-86713144D01*
X167291354Y-86752500D01*
X167291355Y-86752500D01*
X167445809Y-86752500D01*
X167512848Y-86772185D01*
X167558603Y-86824989D01*
X167568547Y-86894147D01*
X167563740Y-86914818D01*
X167551506Y-86952471D01*
X167516326Y-87060744D01*
X167496540Y-87249000D01*
X167516326Y-87437256D01*
X167516327Y-87437259D01*
X167574818Y-87617277D01*
X167574821Y-87617284D01*
X167669467Y-87781216D01*
X167796129Y-87921888D01*
X167949265Y-88033148D01*
X167949270Y-88033151D01*
X168122192Y-88110142D01*
X168122197Y-88110144D01*
X168307354Y-88149500D01*
X168307355Y-88149500D01*
X168496644Y-88149500D01*
X168496646Y-88149500D01*
X168681803Y-88110144D01*
X168854730Y-88033151D01*
X169007871Y-87921888D01*
X169134533Y-87781216D01*
X169229179Y-87617284D01*
X169287674Y-87437256D01*
X169307460Y-87249000D01*
X169287674Y-87060744D01*
X169229179Y-86880716D01*
X169134533Y-86716784D01*
X169007871Y-86576112D01*
X169007870Y-86576111D01*
X168854734Y-86464851D01*
X168854729Y-86464848D01*
X168681807Y-86387857D01*
X168681802Y-86387855D01*
X168536001Y-86356865D01*
X168496646Y-86348500D01*
X168342191Y-86348500D01*
X168275152Y-86328815D01*
X168229397Y-86276011D01*
X168219453Y-86206853D01*
X168224260Y-86186182D01*
X168240233Y-86137019D01*
X168271674Y-86040256D01*
X168291460Y-85852000D01*
X168271674Y-85663744D01*
X168213179Y-85483716D01*
X168118533Y-85319784D01*
X167991871Y-85179112D01*
X167991870Y-85179111D01*
X167838734Y-85067851D01*
X167838729Y-85067848D01*
X167665807Y-84990857D01*
X167665802Y-84990855D01*
X167520001Y-84959865D01*
X167480646Y-84951500D01*
X167291354Y-84951500D01*
X167258897Y-84958398D01*
X167106197Y-84990855D01*
X167106192Y-84990857D01*
X166933270Y-85067848D01*
X166933265Y-85067851D01*
X166780129Y-85179111D01*
X166653466Y-85319785D01*
X166558821Y-85483715D01*
X166558818Y-85483722D01*
X166500327Y-85663740D01*
X166500326Y-85663744D01*
X166480540Y-85852000D01*
X155578267Y-85852000D01*
X155576086Y-85828004D01*
X155525478Y-85665594D01*
X155437472Y-85520015D01*
X155437470Y-85520013D01*
X155437469Y-85520011D01*
X155317188Y-85399730D01*
X155171606Y-85311722D01*
X155009196Y-85261114D01*
X155009194Y-85261113D01*
X155009192Y-85261113D01*
X154959778Y-85256623D01*
X154938616Y-85254700D01*
X153925384Y-85254700D01*
X153906145Y-85256448D01*
X153854807Y-85261113D01*
X153692393Y-85311722D01*
X153546811Y-85399730D01*
X153426530Y-85520011D01*
X153338522Y-85665593D01*
X153287913Y-85828007D01*
X153281500Y-85898586D01*
X153281500Y-86411813D01*
X153287913Y-86482392D01*
X153338522Y-86644806D01*
X153424402Y-86786868D01*
X153442238Y-86854423D01*
X153420720Y-86920896D01*
X153418605Y-86923901D01*
X153397848Y-86952471D01*
X153320857Y-87125392D01*
X153320855Y-87125397D01*
X153281500Y-87310554D01*
X153281500Y-87499845D01*
X153320855Y-87685002D01*
X153320857Y-87685007D01*
X153365314Y-87784856D01*
X153397849Y-87857930D01*
X153400698Y-87861851D01*
X153470056Y-87957315D01*
X153493535Y-88023122D01*
X153477709Y-88091175D01*
X153470056Y-88103085D01*
X153397848Y-88202471D01*
X153320857Y-88375392D01*
X153320855Y-88375397D01*
X153281500Y-88560554D01*
X153281500Y-88749845D01*
X153320855Y-88935002D01*
X153320857Y-88935007D01*
X153397848Y-89107928D01*
X153470056Y-89207315D01*
X153493535Y-89273122D01*
X153477709Y-89341175D01*
X153470056Y-89353085D01*
X153397848Y-89452471D01*
X153320857Y-89625392D01*
X153320855Y-89625397D01*
X153281500Y-89810554D01*
X153281500Y-89999845D01*
X153320855Y-90185002D01*
X153320857Y-90185007D01*
X153397848Y-90357928D01*
X153470056Y-90457315D01*
X153493535Y-90523122D01*
X153477709Y-90591175D01*
X153470056Y-90603085D01*
X153397848Y-90702471D01*
X153320857Y-90875392D01*
X153320855Y-90875397D01*
X153281500Y-91060554D01*
X153281500Y-91249845D01*
X149860500Y-91249845D01*
X149860500Y-83820000D01*
X171052540Y-83820000D01*
X171072326Y-84008256D01*
X171072327Y-84008259D01*
X171130818Y-84188277D01*
X171130821Y-84188284D01*
X171225467Y-84352216D01*
X171352129Y-84492888D01*
X171505265Y-84604148D01*
X171505270Y-84604151D01*
X171678192Y-84681142D01*
X171678197Y-84681144D01*
X171863354Y-84720500D01*
X171863355Y-84720500D01*
X172052644Y-84720500D01*
X172052646Y-84720500D01*
X172237803Y-84681144D01*
X172410730Y-84604151D01*
X172563871Y-84492888D01*
X172690533Y-84352216D01*
X172785179Y-84188284D01*
X172843674Y-84008256D01*
X172863460Y-83820000D01*
X174608540Y-83820000D01*
X174628326Y-84008256D01*
X174628327Y-84008259D01*
X174686818Y-84188277D01*
X174686821Y-84188284D01*
X174781467Y-84352216D01*
X174908129Y-84492888D01*
X175061265Y-84604148D01*
X175061270Y-84604151D01*
X175234192Y-84681142D01*
X175234197Y-84681144D01*
X175419354Y-84720500D01*
X175419355Y-84720500D01*
X175608644Y-84720500D01*
X175608646Y-84720500D01*
X175793803Y-84681144D01*
X175966730Y-84604151D01*
X176119871Y-84492888D01*
X176246533Y-84352216D01*
X176341179Y-84188284D01*
X176399674Y-84008256D01*
X176419460Y-83820000D01*
X176399674Y-83631744D01*
X176341179Y-83451716D01*
X176246533Y-83287784D01*
X176119871Y-83147112D01*
X176119870Y-83147111D01*
X175966734Y-83035851D01*
X175966729Y-83035848D01*
X175793807Y-82958857D01*
X175793802Y-82958855D01*
X175648001Y-82927865D01*
X175608646Y-82919500D01*
X175419354Y-82919500D01*
X175386897Y-82926398D01*
X175234197Y-82958855D01*
X175234192Y-82958857D01*
X175061270Y-83035848D01*
X175061265Y-83035851D01*
X174908129Y-83147111D01*
X174781466Y-83287785D01*
X174686821Y-83451715D01*
X174686818Y-83451722D01*
X174628327Y-83631740D01*
X174628326Y-83631744D01*
X174608540Y-83820000D01*
X172863460Y-83820000D01*
X172843674Y-83631744D01*
X172785179Y-83451716D01*
X172690533Y-83287784D01*
X172563871Y-83147112D01*
X172563870Y-83147111D01*
X172410734Y-83035851D01*
X172410729Y-83035848D01*
X172237807Y-82958857D01*
X172237802Y-82958855D01*
X172092001Y-82927865D01*
X172052646Y-82919500D01*
X171863354Y-82919500D01*
X171830897Y-82926398D01*
X171678197Y-82958855D01*
X171678192Y-82958857D01*
X171505270Y-83035848D01*
X171505265Y-83035851D01*
X171352129Y-83147111D01*
X171225466Y-83287785D01*
X171130821Y-83451715D01*
X171130818Y-83451722D01*
X171072327Y-83631740D01*
X171072326Y-83631744D01*
X171052540Y-83820000D01*
X149860500Y-83820000D01*
X149860500Y-78742560D01*
X149860553Y-78740003D01*
X150135162Y-78740003D01*
X150154504Y-79170692D01*
X150154505Y-79170701D01*
X150212378Y-79597938D01*
X150308313Y-80018258D01*
X150441542Y-80428296D01*
X150441545Y-80428304D01*
X150610985Y-80824730D01*
X150610989Y-80824738D01*
X150815294Y-81204399D01*
X151052799Y-81564207D01*
X151052800Y-81564208D01*
X151289122Y-81860546D01*
X153174682Y-79974986D01*
X153179410Y-79982760D01*
X153365031Y-80210918D01*
X153579990Y-80411676D01*
X153708172Y-80502156D01*
X151821224Y-82389104D01*
X151821224Y-82389105D01*
X151944235Y-82496576D01*
X152293024Y-82749986D01*
X152663140Y-82971120D01*
X152663146Y-82971123D01*
X153051569Y-83158178D01*
X153051583Y-83158184D01*
X153455209Y-83309667D01*
X153455234Y-83309675D01*
X153870816Y-83424369D01*
X154295023Y-83501351D01*
X154724435Y-83539999D01*
X154724438Y-83540000D01*
X155155562Y-83540000D01*
X155155564Y-83539999D01*
X155584976Y-83501351D01*
X156009183Y-83424369D01*
X156424765Y-83309675D01*
X156424790Y-83309667D01*
X156828416Y-83158184D01*
X156828430Y-83158178D01*
X157216853Y-82971123D01*
X157216859Y-82971120D01*
X157586975Y-82749986D01*
X157932152Y-82499200D01*
X177199340Y-82499200D01*
X177219126Y-82687456D01*
X177219127Y-82687459D01*
X177277618Y-82867477D01*
X177277621Y-82867484D01*
X177372267Y-83031416D01*
X177486404Y-83158178D01*
X177498929Y-83172088D01*
X177652065Y-83283348D01*
X177652070Y-83283351D01*
X177824992Y-83360342D01*
X177824997Y-83360344D01*
X178010154Y-83399700D01*
X178010155Y-83399700D01*
X178199444Y-83399700D01*
X178199446Y-83399700D01*
X178384603Y-83360344D01*
X178557530Y-83283351D01*
X178710671Y-83172088D01*
X178837333Y-83031416D01*
X178931979Y-82867484D01*
X178990474Y-82687456D01*
X179010260Y-82499200D01*
X178990474Y-82310944D01*
X178931979Y-82130916D01*
X178837333Y-81966984D01*
X178710671Y-81826312D01*
X178710670Y-81826311D01*
X178557534Y-81715051D01*
X178557529Y-81715048D01*
X178384607Y-81638057D01*
X178384602Y-81638055D01*
X178238801Y-81607065D01*
X178199446Y-81598700D01*
X178010154Y-81598700D01*
X177977697Y-81605598D01*
X177824997Y-81638055D01*
X177824992Y-81638057D01*
X177652070Y-81715048D01*
X177652065Y-81715051D01*
X177498929Y-81826311D01*
X177372266Y-81966985D01*
X177277621Y-82130915D01*
X177277618Y-82130922D01*
X177219127Y-82310940D01*
X177219126Y-82310944D01*
X177199340Y-82499200D01*
X157932152Y-82499200D01*
X157935755Y-82496582D01*
X157935785Y-82496558D01*
X158058774Y-82389105D01*
X158058774Y-82389104D01*
X156171827Y-80502157D01*
X156300010Y-80411676D01*
X156514969Y-80210918D01*
X156700590Y-79982760D01*
X156705316Y-79974987D01*
X158590875Y-81860546D01*
X158827199Y-81564208D01*
X158827200Y-81564207D01*
X159064705Y-81204399D01*
X159269010Y-80824738D01*
X159269014Y-80824730D01*
X159438454Y-80428304D01*
X159438457Y-80428296D01*
X159571686Y-80018258D01*
X159667621Y-79597938D01*
X159715023Y-79248000D01*
X166480540Y-79248000D01*
X166500326Y-79436256D01*
X166500327Y-79436259D01*
X166558818Y-79616277D01*
X166558821Y-79616284D01*
X166653467Y-79780216D01*
X166780129Y-79920888D01*
X166933265Y-80032148D01*
X166933270Y-80032151D01*
X167106192Y-80109142D01*
X167106197Y-80109144D01*
X167291354Y-80148500D01*
X167291355Y-80148500D01*
X167480644Y-80148500D01*
X167480646Y-80148500D01*
X167665803Y-80109144D01*
X167838730Y-80032151D01*
X167991871Y-79920888D01*
X168118533Y-79780216D01*
X168213179Y-79616284D01*
X168271674Y-79436256D01*
X168291460Y-79248000D01*
X168271674Y-79059744D01*
X168213179Y-78879716D01*
X168118533Y-78715784D01*
X168018962Y-78605200D01*
X172848781Y-78605200D01*
X172855417Y-78668349D01*
X172913878Y-78848272D01*
X172913883Y-78848284D01*
X173008470Y-79012115D01*
X173008472Y-79012118D01*
X173135060Y-79152709D01*
X173135063Y-79152711D01*
X173288121Y-79263915D01*
X173365599Y-79298410D01*
X173365600Y-79298410D01*
X173365600Y-78605200D01*
X172848781Y-78605200D01*
X168018962Y-78605200D01*
X167991871Y-78575112D01*
X167991870Y-78575111D01*
X167926191Y-78527392D01*
X174090100Y-78527392D01*
X174104926Y-78668456D01*
X174109531Y-78682630D01*
X174115600Y-78720946D01*
X174115600Y-79298410D01*
X174193076Y-79263917D01*
X174292287Y-79191835D01*
X174358093Y-79168355D01*
X174426147Y-79184180D01*
X174438058Y-79191834D01*
X174438485Y-79192144D01*
X174537870Y-79264351D01*
X174710792Y-79341342D01*
X174710797Y-79341344D01*
X174895954Y-79380700D01*
X174895955Y-79380700D01*
X175085244Y-79380700D01*
X175085246Y-79380700D01*
X175270403Y-79341344D01*
X175443330Y-79264351D01*
X175542715Y-79192144D01*
X175608521Y-79168664D01*
X175676575Y-79184489D01*
X175688485Y-79192144D01*
X175787865Y-79264348D01*
X175787870Y-79264351D01*
X175960792Y-79341342D01*
X175960797Y-79341344D01*
X176145954Y-79380700D01*
X176145955Y-79380700D01*
X176335244Y-79380700D01*
X176335246Y-79380700D01*
X176520403Y-79341344D01*
X176693330Y-79264351D01*
X176721895Y-79243597D01*
X176787699Y-79220116D01*
X176855753Y-79235940D01*
X176858905Y-79237782D01*
X177000994Y-79323678D01*
X177163404Y-79374286D01*
X177233984Y-79380700D01*
X177233987Y-79380700D01*
X177747213Y-79380700D01*
X177747216Y-79380700D01*
X177817796Y-79374286D01*
X177980206Y-79323678D01*
X178125785Y-79235672D01*
X178246072Y-79115385D01*
X178334078Y-78969806D01*
X178384686Y-78807396D01*
X178390810Y-78740003D01*
X190775162Y-78740003D01*
X190794504Y-79170692D01*
X190794505Y-79170701D01*
X190852378Y-79597938D01*
X190948313Y-80018258D01*
X191081542Y-80428296D01*
X191081545Y-80428304D01*
X191250985Y-80824730D01*
X191250989Y-80824738D01*
X191455294Y-81204399D01*
X191692799Y-81564207D01*
X191692800Y-81564208D01*
X191929122Y-81860546D01*
X193814682Y-79974986D01*
X193819410Y-79982760D01*
X194005031Y-80210918D01*
X194219990Y-80411676D01*
X194348172Y-80502156D01*
X192461224Y-82389104D01*
X192461224Y-82389105D01*
X192584235Y-82496576D01*
X192933024Y-82749986D01*
X193303140Y-82971120D01*
X193303146Y-82971123D01*
X193691569Y-83158178D01*
X193691583Y-83158184D01*
X194095209Y-83309667D01*
X194095234Y-83309675D01*
X194510816Y-83424369D01*
X194935023Y-83501351D01*
X195364435Y-83539999D01*
X195364438Y-83540000D01*
X195795562Y-83540000D01*
X195795564Y-83539999D01*
X196224976Y-83501351D01*
X196649183Y-83424369D01*
X197064765Y-83309675D01*
X197064790Y-83309667D01*
X197468416Y-83158184D01*
X197468430Y-83158178D01*
X197856853Y-82971123D01*
X197856859Y-82971120D01*
X198226975Y-82749986D01*
X198575755Y-82496582D01*
X198575785Y-82496558D01*
X198698774Y-82389105D01*
X198698774Y-82389104D01*
X196811827Y-80502157D01*
X196940010Y-80411676D01*
X197154969Y-80210918D01*
X197340590Y-79982760D01*
X197345316Y-79974987D01*
X199230875Y-81860546D01*
X199467199Y-81564208D01*
X199467200Y-81564207D01*
X199704705Y-81204399D01*
X199909010Y-80824738D01*
X199909014Y-80824730D01*
X200078454Y-80428304D01*
X200078457Y-80428296D01*
X200211686Y-80018258D01*
X200307621Y-79597938D01*
X200365494Y-79170701D01*
X200365495Y-79170692D01*
X200384838Y-78740003D01*
X200384838Y-78739996D01*
X200365495Y-78309307D01*
X200365494Y-78309298D01*
X200307621Y-77882061D01*
X200211686Y-77461741D01*
X200078457Y-77051703D01*
X200078454Y-77051695D01*
X199909014Y-76655269D01*
X199909010Y-76655261D01*
X199704705Y-76275600D01*
X199467200Y-75915792D01*
X199467199Y-75915791D01*
X199230875Y-75619452D01*
X197345316Y-77505011D01*
X197340590Y-77497240D01*
X197154969Y-77269082D01*
X196940010Y-77068324D01*
X196811826Y-76977841D01*
X198698774Y-75090894D01*
X198698774Y-75090893D01*
X198575764Y-74983423D01*
X198226975Y-74730013D01*
X197856859Y-74508879D01*
X197856853Y-74508876D01*
X197468430Y-74321821D01*
X197468416Y-74321815D01*
X197064790Y-74170332D01*
X197064765Y-74170324D01*
X196649183Y-74055630D01*
X196224976Y-73978648D01*
X195795564Y-73940000D01*
X195364435Y-73940000D01*
X194935023Y-73978648D01*
X194510816Y-74055630D01*
X194095234Y-74170324D01*
X194095209Y-74170332D01*
X193691583Y-74321815D01*
X193691569Y-74321821D01*
X193303146Y-74508876D01*
X193303140Y-74508879D01*
X192933024Y-74730013D01*
X192584242Y-74983419D01*
X192461224Y-75090894D01*
X194348172Y-76977842D01*
X194219990Y-77068324D01*
X194005031Y-77269082D01*
X193819410Y-77497240D01*
X193814683Y-77505013D01*
X191929122Y-75619452D01*
X191692800Y-75915791D01*
X191692799Y-75915792D01*
X191455294Y-76275600D01*
X191250989Y-76655261D01*
X191250985Y-76655269D01*
X191081545Y-77051695D01*
X191081542Y-77051703D01*
X190948313Y-77461741D01*
X190852378Y-77882061D01*
X190794505Y-78309298D01*
X190794504Y-78309307D01*
X190775162Y-78739996D01*
X190775162Y-78740003D01*
X178390810Y-78740003D01*
X178391100Y-78736816D01*
X178391100Y-77723584D01*
X178384686Y-77653004D01*
X178334078Y-77490594D01*
X178246072Y-77345015D01*
X178246070Y-77345013D01*
X178246069Y-77345011D01*
X178125788Y-77224730D01*
X178122266Y-77222601D01*
X177980206Y-77136722D01*
X177817796Y-77086114D01*
X177817794Y-77086113D01*
X177817792Y-77086113D01*
X177768378Y-77081623D01*
X177747216Y-77079700D01*
X177233984Y-77079700D01*
X177214745Y-77081448D01*
X177163407Y-77086113D01*
X177000991Y-77136723D01*
X176858930Y-77222601D01*
X176791375Y-77240437D01*
X176724902Y-77218919D01*
X176721897Y-77216803D01*
X176693333Y-77196051D01*
X176693329Y-77196048D01*
X176520407Y-77119057D01*
X176520402Y-77119055D01*
X176365417Y-77086113D01*
X176335246Y-77079700D01*
X176145954Y-77079700D01*
X176115783Y-77086113D01*
X175960797Y-77119055D01*
X175960792Y-77119057D01*
X175787871Y-77196048D01*
X175688485Y-77268256D01*
X175622678Y-77291735D01*
X175554625Y-77275909D01*
X175542715Y-77268256D01*
X175474808Y-77218919D01*
X175443330Y-77196049D01*
X175443328Y-77196048D01*
X175443329Y-77196048D01*
X175270407Y-77119057D01*
X175270402Y-77119055D01*
X175115417Y-77086113D01*
X175085246Y-77079700D01*
X174895954Y-77079700D01*
X174865783Y-77086113D01*
X174710797Y-77119055D01*
X174710792Y-77119057D01*
X174537871Y-77196048D01*
X174438059Y-77268565D01*
X174372252Y-77292044D01*
X174304198Y-77276218D01*
X174292288Y-77268564D01*
X174193078Y-77196483D01*
X174115600Y-77161987D01*
X174115600Y-77739453D01*
X174109530Y-77777771D01*
X174104926Y-77791944D01*
X174090100Y-77933008D01*
X174090100Y-78527392D01*
X167926191Y-78527392D01*
X167838734Y-78463851D01*
X167838729Y-78463848D01*
X167665807Y-78386857D01*
X167665802Y-78386855D01*
X167520001Y-78355865D01*
X167480646Y-78347500D01*
X167291354Y-78347500D01*
X167258897Y-78354398D01*
X167106197Y-78386855D01*
X167106192Y-78386857D01*
X166933270Y-78463848D01*
X166933265Y-78463851D01*
X166780129Y-78575111D01*
X166653466Y-78715785D01*
X166558821Y-78879715D01*
X166558818Y-78879722D01*
X166500327Y-79059740D01*
X166500326Y-79059744D01*
X166480540Y-79248000D01*
X159715023Y-79248000D01*
X159725494Y-79170701D01*
X159725495Y-79170692D01*
X159744838Y-78740003D01*
X159744838Y-78739996D01*
X159725495Y-78309307D01*
X159725494Y-78309298D01*
X159714779Y-78230200D01*
X173485702Y-78230200D01*
X173505105Y-78327745D01*
X173560360Y-78410440D01*
X173643055Y-78465695D01*
X173715976Y-78480200D01*
X173765224Y-78480200D01*
X173838145Y-78465695D01*
X173920840Y-78410440D01*
X173976095Y-78327745D01*
X173995498Y-78230200D01*
X173976095Y-78132655D01*
X173920840Y-78049960D01*
X173838145Y-77994705D01*
X173765224Y-77980200D01*
X173715976Y-77980200D01*
X173643055Y-77994705D01*
X173560360Y-78049960D01*
X173505105Y-78132655D01*
X173485702Y-78230200D01*
X159714779Y-78230200D01*
X159667621Y-77882061D01*
X159661490Y-77855200D01*
X172848781Y-77855200D01*
X173365600Y-77855200D01*
X173365600Y-77161987D01*
X173288123Y-77196482D01*
X173135064Y-77307687D01*
X173008472Y-77448281D01*
X173008470Y-77448284D01*
X172913883Y-77612115D01*
X172913878Y-77612127D01*
X172855417Y-77792050D01*
X172848781Y-77855200D01*
X159661490Y-77855200D01*
X159571686Y-77461741D01*
X159438457Y-77051703D01*
X159438454Y-77051695D01*
X159269014Y-76655269D01*
X159269010Y-76655261D01*
X159064705Y-76275600D01*
X158827200Y-75915792D01*
X158827199Y-75915791D01*
X158629635Y-75668055D01*
X162899500Y-75668055D01*
X162940210Y-75833226D01*
X163019263Y-75983849D01*
X163019266Y-75983852D01*
X163132071Y-76111183D01*
X163222318Y-76173476D01*
X163272068Y-76207817D01*
X163272069Y-76207817D01*
X163272070Y-76207818D01*
X163373358Y-76246231D01*
X163421002Y-76264300D01*
X163431128Y-76268140D01*
X163507028Y-76277356D01*
X163557626Y-76283500D01*
X163557628Y-76283500D01*
X163642374Y-76283500D01*
X163684538Y-76278380D01*
X163768872Y-76268140D01*
X163927930Y-76207818D01*
X164067929Y-76111183D01*
X164180734Y-75983852D01*
X164259790Y-75833225D01*
X164300500Y-75668056D01*
X164300500Y-75668055D01*
X165899500Y-75668055D01*
X165940210Y-75833226D01*
X166019263Y-75983849D01*
X166019266Y-75983852D01*
X166132071Y-76111183D01*
X166222318Y-76173476D01*
X166272068Y-76207817D01*
X166272069Y-76207817D01*
X166272070Y-76207818D01*
X166373358Y-76246231D01*
X166421002Y-76264300D01*
X166431128Y-76268140D01*
X166507028Y-76277356D01*
X166557626Y-76283500D01*
X166557628Y-76283500D01*
X166642374Y-76283500D01*
X166684538Y-76278380D01*
X166768872Y-76268140D01*
X166927930Y-76207818D01*
X167004450Y-76155000D01*
X189086540Y-76155000D01*
X189106326Y-76343256D01*
X189106327Y-76343259D01*
X189164818Y-76523277D01*
X189164821Y-76523284D01*
X189259467Y-76687216D01*
X189328053Y-76763388D01*
X189386129Y-76827888D01*
X189539265Y-76939148D01*
X189539270Y-76939151D01*
X189712192Y-77016142D01*
X189712197Y-77016144D01*
X189897354Y-77055500D01*
X189897355Y-77055500D01*
X190086644Y-77055500D01*
X190086646Y-77055500D01*
X190271803Y-77016144D01*
X190444730Y-76939151D01*
X190597871Y-76827888D01*
X190724533Y-76687216D01*
X190819179Y-76523284D01*
X190877674Y-76343256D01*
X190897460Y-76155000D01*
X190877674Y-75966744D01*
X190819179Y-75786716D01*
X190724533Y-75622784D01*
X190597871Y-75482112D01*
X190597870Y-75482111D01*
X190444734Y-75370851D01*
X190444729Y-75370848D01*
X190271807Y-75293857D01*
X190271802Y-75293855D01*
X190126001Y-75262865D01*
X190086646Y-75254500D01*
X189897354Y-75254500D01*
X189864897Y-75261398D01*
X189712197Y-75293855D01*
X189712192Y-75293857D01*
X189539270Y-75370848D01*
X189539265Y-75370851D01*
X189386129Y-75482111D01*
X189259466Y-75622785D01*
X189164821Y-75786715D01*
X189164818Y-75786722D01*
X189122881Y-75915792D01*
X189106326Y-75966744D01*
X189086540Y-76155000D01*
X167004450Y-76155000D01*
X167067929Y-76111183D01*
X167180734Y-75983852D01*
X167259790Y-75833225D01*
X167300500Y-75668056D01*
X167300500Y-75497944D01*
X167259790Y-75332775D01*
X167218708Y-75254500D01*
X167180736Y-75182150D01*
X167099889Y-75090893D01*
X167067929Y-75054817D01*
X167018177Y-75020475D01*
X166927931Y-74958182D01*
X166768874Y-74897860D01*
X166768868Y-74897859D01*
X166642374Y-74882500D01*
X166642372Y-74882500D01*
X166557628Y-74882500D01*
X166557626Y-74882500D01*
X166431131Y-74897859D01*
X166431125Y-74897860D01*
X166272068Y-74958182D01*
X166132072Y-75054816D01*
X166019263Y-75182150D01*
X165940210Y-75332773D01*
X165899500Y-75497944D01*
X165899500Y-75668055D01*
X164300500Y-75668055D01*
X164300500Y-75497944D01*
X164259790Y-75332775D01*
X164218708Y-75254500D01*
X164180736Y-75182150D01*
X164099889Y-75090893D01*
X164067929Y-75054817D01*
X164018177Y-75020475D01*
X163927931Y-74958182D01*
X163768874Y-74897860D01*
X163768868Y-74897859D01*
X163642374Y-74882500D01*
X163642372Y-74882500D01*
X163557628Y-74882500D01*
X163557626Y-74882500D01*
X163431131Y-74897859D01*
X163431125Y-74897860D01*
X163272068Y-74958182D01*
X163132072Y-75054816D01*
X163019263Y-75182150D01*
X162940210Y-75332773D01*
X162899500Y-75497944D01*
X162899500Y-75668055D01*
X158629635Y-75668055D01*
X158590875Y-75619452D01*
X156705316Y-77505011D01*
X156700590Y-77497240D01*
X156514969Y-77269082D01*
X156300010Y-77068324D01*
X156171826Y-76977841D01*
X158058774Y-75090894D01*
X158058774Y-75090893D01*
X157935764Y-74983423D01*
X157586975Y-74730013D01*
X157216859Y-74508879D01*
X157216853Y-74508876D01*
X156828430Y-74321821D01*
X156828416Y-74321815D01*
X156424790Y-74170332D01*
X156424765Y-74170324D01*
X156009183Y-74055630D01*
X155584976Y-73978648D01*
X155155564Y-73940000D01*
X154724435Y-73940000D01*
X154295023Y-73978648D01*
X153870816Y-74055630D01*
X153455234Y-74170324D01*
X153455209Y-74170332D01*
X153051583Y-74321815D01*
X153051569Y-74321821D01*
X152663146Y-74508876D01*
X152663140Y-74508879D01*
X152293024Y-74730013D01*
X151944242Y-74983419D01*
X151821224Y-75090894D01*
X153708172Y-76977842D01*
X153579990Y-77068324D01*
X153365031Y-77269082D01*
X153179410Y-77497240D01*
X153174683Y-77505013D01*
X151289122Y-75619452D01*
X151052800Y-75915791D01*
X151052799Y-75915792D01*
X150815294Y-76275600D01*
X150610989Y-76655261D01*
X150610985Y-76655269D01*
X150441545Y-77051695D01*
X150441542Y-77051703D01*
X150308313Y-77461741D01*
X150212378Y-77882061D01*
X150154505Y-78309298D01*
X150154504Y-78309307D01*
X150135162Y-78739996D01*
X150135162Y-78740003D01*
X149860553Y-78740003D01*
X149860606Y-78737436D01*
X149861288Y-78720946D01*
X149869495Y-78522496D01*
X149878348Y-78319746D01*
X149879177Y-78309883D01*
X149906031Y-78094444D01*
X149906073Y-78094123D01*
X149932750Y-77891486D01*
X149934317Y-77882290D01*
X149978805Y-77670115D01*
X149978994Y-77669240D01*
X150023293Y-77469419D01*
X150025498Y-77460920D01*
X150087267Y-77253440D01*
X150087835Y-77251591D01*
X150096304Y-77224730D01*
X150149322Y-77056576D01*
X150152027Y-77048898D01*
X150230739Y-76847176D01*
X150231599Y-76845038D01*
X150309908Y-76655983D01*
X150313031Y-76649058D01*
X150408130Y-76454530D01*
X150409416Y-76451983D01*
X150503890Y-76270500D01*
X150507348Y-76264300D01*
X150541004Y-76207818D01*
X150618108Y-76078420D01*
X150619977Y-76075388D01*
X150729901Y-75902843D01*
X150733511Y-75897491D01*
X150859249Y-75721385D01*
X150861727Y-75718038D01*
X150986258Y-75555746D01*
X150989958Y-75551157D01*
X151129810Y-75386032D01*
X151132931Y-75382492D01*
X151271176Y-75231624D01*
X151274827Y-75227810D01*
X151427810Y-75074827D01*
X151431624Y-75071176D01*
X151582492Y-74932931D01*
X151586032Y-74929810D01*
X151751157Y-74789958D01*
X151755746Y-74786258D01*
X151918038Y-74661727D01*
X151921385Y-74659249D01*
X152097491Y-74533511D01*
X152102843Y-74529901D01*
X152275388Y-74419977D01*
X152278420Y-74418108D01*
X152464301Y-74307347D01*
X152470500Y-74303890D01*
X152651983Y-74209416D01*
X152654530Y-74208130D01*
X152849058Y-74113031D01*
X152855983Y-74109908D01*
X153045038Y-74031599D01*
X153047176Y-74030739D01*
X153248898Y-73952027D01*
X153256576Y-73949322D01*
X153451612Y-73887828D01*
X153453438Y-73887268D01*
X153660920Y-73825498D01*
X153669419Y-73823293D01*
X153869240Y-73778994D01*
X153870115Y-73778805D01*
X154082290Y-73734317D01*
X154091486Y-73732750D01*
X154294123Y-73706073D01*
X154294444Y-73706031D01*
X154509883Y-73679177D01*
X154519746Y-73678348D01*
X154722421Y-73669499D01*
X154937437Y-73660605D01*
X154942561Y-73660500D01*
X195577439Y-73660500D01*
X195582562Y-73660605D01*
G37*
%TD.AperFunction*%
%TD*%
M02*
