%TF.GenerationSoftware,KiCad,Pcbnew,7.0.10*%
%TF.CreationDate,2024-03-14T18:53:23+05:30*%
%TF.ProjectId,STM32_4LAYER,53544d33-325f-4344-9c41-5945522e6b69,rev?*%
%TF.SameCoordinates,Original*%
%TF.FileFunction,Soldermask,Top*%
%TF.FilePolarity,Negative*%
%FSLAX46Y46*%
G04 Gerber Fmt 4.6, Leading zero omitted, Abs format (unit mm)*
G04 Created by KiCad (PCBNEW 7.0.10) date 2024-03-14 18:53:23*
%MOMM*%
%LPD*%
G01*
G04 APERTURE LIST*
G04 Aperture macros list*
%AMRoundRect*
0 Rectangle with rounded corners*
0 $1 Rounding radius*
0 $2 $3 $4 $5 $6 $7 $8 $9 X,Y pos of 4 corners*
0 Add a 4 corners polygon primitive as box body*
4,1,4,$2,$3,$4,$5,$6,$7,$8,$9,$2,$3,0*
0 Add four circle primitives for the rounded corners*
1,1,$1+$1,$2,$3*
1,1,$1+$1,$4,$5*
1,1,$1+$1,$6,$7*
1,1,$1+$1,$8,$9*
0 Add four rect primitives between the rounded corners*
20,1,$1+$1,$2,$3,$4,$5,0*
20,1,$1+$1,$4,$5,$6,$7,0*
20,1,$1+$1,$6,$7,$8,$9,0*
20,1,$1+$1,$8,$9,$2,$3,0*%
G04 Aperture macros list end*
%ADD10RoundRect,0.200000X-0.450000X0.200000X-0.450000X-0.200000X0.450000X-0.200000X0.450000X0.200000X0*%
%ADD11O,1.300000X0.800000*%
%ADD12RoundRect,0.200000X0.200000X0.450000X-0.200000X0.450000X-0.200000X-0.450000X0.200000X-0.450000X0*%
%ADD13O,0.800000X1.300000*%
%ADD14RoundRect,0.140000X0.140000X0.170000X-0.140000X0.170000X-0.140000X-0.170000X0.140000X-0.170000X0*%
%ADD15R,1.380000X0.450000*%
%ADD16R,1.300000X1.650000*%
%ADD17R,1.550000X1.425000*%
%ADD18R,1.900000X1.800000*%
%ADD19R,1.900000X1.000000*%
%ADD20R,1.900000X2.500000*%
%ADD21C,0.900000*%
%ADD22C,8.600000*%
%ADD23RoundRect,0.075000X-0.662500X-0.075000X0.662500X-0.075000X0.662500X0.075000X-0.662500X0.075000X0*%
%ADD24RoundRect,0.075000X-0.075000X-0.662500X0.075000X-0.662500X0.075000X0.662500X-0.075000X0.662500X0*%
%ADD25RoundRect,0.200000X0.200000X0.275000X-0.200000X0.275000X-0.200000X-0.275000X0.200000X-0.275000X0*%
%ADD26RoundRect,0.112500X0.187500X0.112500X-0.187500X0.112500X-0.187500X-0.112500X0.187500X-0.112500X0*%
%ADD27RoundRect,0.140000X-0.140000X-0.170000X0.140000X-0.170000X0.140000X0.170000X-0.140000X0.170000X0*%
%ADD28RoundRect,0.135000X-0.135000X-0.185000X0.135000X-0.185000X0.135000X0.185000X-0.135000X0.185000X0*%
%ADD29RoundRect,0.218750X-0.218750X-0.256250X0.218750X-0.256250X0.218750X0.256250X-0.218750X0.256250X0*%
%ADD30R,0.740000X2.400000*%
%ADD31RoundRect,0.140000X0.170000X-0.140000X0.170000X0.140000X-0.170000X0.140000X-0.170000X-0.140000X0*%
%ADD32RoundRect,0.250000X0.650000X-0.325000X0.650000X0.325000X-0.650000X0.325000X-0.650000X-0.325000X0*%
%ADD33R,1.000000X0.800000*%
%ADD34R,0.700000X1.500000*%
%ADD35RoundRect,0.225000X-0.225000X-0.250000X0.225000X-0.250000X0.225000X0.250000X-0.225000X0.250000X0*%
%ADD36RoundRect,0.135000X0.135000X0.185000X-0.135000X0.185000X-0.135000X-0.185000X0.135000X-0.185000X0*%
%ADD37RoundRect,0.112500X0.112500X-0.187500X0.112500X0.187500X-0.112500X0.187500X-0.112500X-0.187500X0*%
%ADD38R,2.400000X2.400000*%
%ADD39C,2.400000*%
%ADD40RoundRect,0.218750X-0.218750X-0.381250X0.218750X-0.381250X0.218750X0.381250X-0.218750X0.381250X0*%
%ADD41RoundRect,0.140000X-0.170000X0.140000X-0.170000X-0.140000X0.170000X-0.140000X0.170000X0.140000X0*%
%ADD42RoundRect,0.200000X-0.200000X-0.275000X0.200000X-0.275000X0.200000X0.275000X-0.200000X0.275000X0*%
%ADD43RoundRect,0.225000X0.250000X-0.225000X0.250000X0.225000X-0.250000X0.225000X-0.250000X-0.225000X0*%
%ADD44R,1.200000X1.400000*%
%ADD45RoundRect,0.150000X0.512500X0.150000X-0.512500X0.150000X-0.512500X-0.150000X0.512500X-0.150000X0*%
%ADD46RoundRect,0.218750X0.218750X0.256250X-0.218750X0.256250X-0.218750X-0.256250X0.218750X-0.256250X0*%
%ADD47RoundRect,0.135000X0.185000X-0.135000X0.185000X0.135000X-0.185000X0.135000X-0.185000X-0.135000X0*%
G04 APERTURE END LIST*
D10*
%TO.C,J5*%
X154430200Y-98582000D03*
D11*
X154430200Y-99832000D03*
X154430200Y-101082000D03*
X154430200Y-102332000D03*
%TD*%
D12*
%TO.C,J4*%
X177490600Y-78230200D03*
D13*
X176240600Y-78230200D03*
X174990600Y-78230200D03*
X173740600Y-78230200D03*
%TD*%
D14*
%TO.C,C12*%
X185480000Y-109050000D03*
X184520000Y-109050000D03*
%TD*%
D15*
%TO.C,J1*%
X195460000Y-93050000D03*
X195460000Y-92400000D03*
X195460000Y-91750000D03*
X195460000Y-91100000D03*
X195460000Y-90450000D03*
D16*
X198120000Y-95125000D03*
D17*
X195545000Y-94237500D03*
D18*
X198120000Y-92900000D03*
D19*
X198120000Y-90200000D03*
D17*
X195545000Y-89262500D03*
D16*
X198120000Y-88375000D03*
%TD*%
D20*
%TO.C,L1*%
X182950000Y-112800000D03*
X187050000Y-112800000D03*
%TD*%
D21*
%TO.C,H2*%
X192355000Y-78740000D03*
X193299581Y-76459581D03*
X193299581Y-81020419D03*
X195580000Y-75515000D03*
D22*
X195580000Y-78740000D03*
D21*
X195580000Y-81965000D03*
X197860419Y-76459581D03*
X197860419Y-81020419D03*
X198805000Y-78740000D03*
%TD*%
%TO.C,H4*%
X192355000Y-111760000D03*
X193299581Y-109479581D03*
X193299581Y-114040419D03*
X195580000Y-108535000D03*
D22*
X195580000Y-111760000D03*
D21*
X195580000Y-114985000D03*
X197860419Y-109479581D03*
X197860419Y-114040419D03*
X198805000Y-111760000D03*
%TD*%
D23*
%TO.C,U1*%
X168557500Y-90500000D03*
X168557500Y-91000000D03*
X168557500Y-91500000D03*
X168557500Y-92000000D03*
X168557500Y-92500000D03*
X168557500Y-93000000D03*
X168557500Y-93500000D03*
X168557500Y-94000000D03*
X168557500Y-94500000D03*
X168557500Y-95000000D03*
X168557500Y-95500000D03*
X168557500Y-96000000D03*
D24*
X169970000Y-97412500D03*
X170470000Y-97412500D03*
X170970000Y-97412500D03*
X171470000Y-97412500D03*
X171970000Y-97412500D03*
X172470000Y-97412500D03*
X172970000Y-97412500D03*
X173470000Y-97412500D03*
X173970000Y-97412500D03*
X174470000Y-97412500D03*
X174970000Y-97412500D03*
X175470000Y-97412500D03*
D23*
X176882500Y-96000000D03*
X176882500Y-95500000D03*
X176882500Y-95000000D03*
X176882500Y-94500000D03*
X176882500Y-94000000D03*
X176882500Y-93500000D03*
X176882500Y-93000000D03*
X176882500Y-92500000D03*
X176882500Y-92000000D03*
X176882500Y-91500000D03*
X176882500Y-91000000D03*
X176882500Y-90500000D03*
D24*
X175470000Y-89087500D03*
X174970000Y-89087500D03*
X174470000Y-89087500D03*
X173970000Y-89087500D03*
X173470000Y-89087500D03*
X172970000Y-89087500D03*
X172470000Y-89087500D03*
X171970000Y-89087500D03*
X171470000Y-89087500D03*
X170970000Y-89087500D03*
X170470000Y-89087500D03*
X169970000Y-89087500D03*
%TD*%
D14*
%TO.C,C2*%
X176756000Y-99060000D03*
X175796000Y-99060000D03*
%TD*%
D25*
%TO.C,R9*%
X188825000Y-100500000D03*
X187175000Y-100500000D03*
%TD*%
D10*
%TO.C,J6*%
X154432000Y-86155200D03*
D11*
X154432000Y-87405200D03*
X154432000Y-88655200D03*
X154432000Y-89905200D03*
X154432000Y-91155200D03*
X154432000Y-92405200D03*
%TD*%
D26*
%TO.C,D2*%
X174550000Y-106000000D03*
X172450000Y-106000000D03*
%TD*%
D27*
%TO.C,C6*%
X162680000Y-89282000D03*
X163640000Y-89282000D03*
%TD*%
D21*
%TO.C,H3*%
X151715000Y-111760000D03*
X152659581Y-109479581D03*
X152659581Y-114040419D03*
X154940000Y-108535000D03*
D22*
X154940000Y-111760000D03*
D21*
X154940000Y-114985000D03*
X157220419Y-109479581D03*
X157220419Y-114040419D03*
X158165000Y-111760000D03*
%TD*%
D28*
%TO.C,R2*%
X174496000Y-84836000D03*
X175516000Y-84836000D03*
%TD*%
D29*
%TO.C,D1*%
X163423500Y-87122000D03*
X164998500Y-87122000D03*
%TD*%
D30*
%TO.C,J3*%
X188341000Y-76155000D03*
X188341000Y-80055000D03*
X187071000Y-76155000D03*
X187071000Y-80055000D03*
X185801000Y-76155000D03*
X185801000Y-80055000D03*
X184531000Y-76155000D03*
X184531000Y-80055000D03*
X183261000Y-76155000D03*
X183261000Y-80055000D03*
%TD*%
D31*
%TO.C,C8*%
X166632500Y-95730000D03*
X166632500Y-94770000D03*
%TD*%
D32*
%TO.C,C11*%
X190000000Y-108155000D03*
X190000000Y-105205000D03*
%TD*%
D33*
%TO.C,SW1*%
X168750000Y-76693000D03*
X168750000Y-74483000D03*
D21*
X166600000Y-75583000D03*
X163600000Y-75583000D03*
D33*
X161450000Y-76693000D03*
X161450000Y-74483000D03*
D34*
X167350000Y-77343000D03*
X164350000Y-77343000D03*
X162850000Y-77343000D03*
%TD*%
D28*
%TO.C,R3*%
X165733000Y-92964000D03*
X166753000Y-92964000D03*
%TD*%
D35*
%TO.C,C1*%
X168770000Y-85852000D03*
X170320000Y-85852000D03*
%TD*%
D36*
%TO.C,R5*%
X172976000Y-84836000D03*
X171956000Y-84836000D03*
%TD*%
D25*
%TO.C,R4*%
X165036000Y-85344000D03*
X163386000Y-85344000D03*
%TD*%
D32*
%TO.C,C10*%
X181000000Y-105975000D03*
X181000000Y-103025000D03*
%TD*%
D37*
%TO.C,D4*%
X180000000Y-111550000D03*
X180000000Y-109450000D03*
%TD*%
D38*
%TO.C,J2*%
X168684000Y-111314000D03*
D39*
X172184000Y-111314000D03*
%TD*%
D27*
%TO.C,C4*%
X169652500Y-87250000D03*
X170612500Y-87250000D03*
%TD*%
D14*
%TO.C,C9*%
X163640000Y-94782000D03*
X162680000Y-94782000D03*
%TD*%
D40*
%TO.C,FB1*%
X176437500Y-106000000D03*
X178562500Y-106000000D03*
%TD*%
D41*
%TO.C,C3*%
X178816000Y-89817000D03*
X178816000Y-90777000D03*
%TD*%
D42*
%TO.C,R11*%
X192215000Y-101346000D03*
X193865000Y-101346000D03*
%TD*%
D25*
%TO.C,R6*%
X184825000Y-103500000D03*
X183175000Y-103500000D03*
%TD*%
D43*
%TO.C,C7*%
X165100000Y-96533000D03*
X165100000Y-94983000D03*
%TD*%
D42*
%TO.C,R7*%
X183175000Y-101500000D03*
X184825000Y-101500000D03*
%TD*%
D44*
%TO.C,Y1*%
X162560000Y-90932000D03*
X162560000Y-93132000D03*
X164260000Y-93132000D03*
X164260000Y-90932000D03*
%TD*%
D21*
%TO.C,H1*%
X151715000Y-78740000D03*
X152659581Y-76459581D03*
X152659581Y-81020419D03*
X154940000Y-75515000D03*
D22*
X154940000Y-78740000D03*
D21*
X154940000Y-81965000D03*
X157220419Y-76459581D03*
X157220419Y-81020419D03*
X158165000Y-78740000D03*
%TD*%
D42*
%TO.C,R10*%
X183175000Y-99500000D03*
X184825000Y-99500000D03*
%TD*%
D31*
%TO.C,C5*%
X168132500Y-89210000D03*
X168132500Y-88250000D03*
%TD*%
D45*
%TO.C,U2*%
X190367500Y-93050000D03*
X190367500Y-92100000D03*
X190367500Y-91150000D03*
X188092500Y-91150000D03*
X188092500Y-92100000D03*
X188092500Y-93050000D03*
%TD*%
D42*
%TO.C,R8*%
X187175000Y-103500000D03*
X188825000Y-103500000D03*
%TD*%
D37*
%TO.C,D3*%
X176500000Y-103850000D03*
X176500000Y-101750000D03*
%TD*%
D45*
%TO.C,U3*%
X186137500Y-107450000D03*
X186137500Y-106500000D03*
X186137500Y-105550000D03*
X183862500Y-105550000D03*
X183862500Y-106500000D03*
X183862500Y-107450000D03*
%TD*%
D46*
%TO.C,D5*%
X193827500Y-103124000D03*
X192252500Y-103124000D03*
%TD*%
D47*
%TO.C,R1*%
X171958000Y-87260000D03*
X171958000Y-86240000D03*
%TD*%
M02*
