%TF.GenerationSoftware,KiCad,Pcbnew,7.0.10*%
%TF.CreationDate,2024-03-14T18:53:14+05:30*%
%TF.ProjectId,STM32_4LAYER,53544d33-325f-4344-9c41-5945522e6b69,rev?*%
%TF.SameCoordinates,Original*%
%TF.FileFunction,Drillmap*%
%TF.FilePolarity,Positive*%
%FSLAX45Y45*%
G04 Gerber Fmt 4.5, Leading zero omitted, Abs format (unit mm)*
G04 Created by KiCad (PCBNEW 7.0.10) date 2024-03-14 18:53:14*
%MOMM*%
%LPD*%
G01*
G04 APERTURE LIST*
%ADD10C,0.100000*%
%ADD11C,0.200000*%
G04 APERTURE END LIST*
D10*
X20066000Y-7874000D02*
X20066000Y-11176000D01*
X14986000Y-11176000D02*
G75*
G03*
X15494000Y-11684000I508000J0D01*
G01*
X15494000Y-11684000D02*
X19558000Y-11684000D01*
X15494000Y-7366000D02*
X19558000Y-7366000D01*
X19558000Y-11684000D02*
G75*
G03*
X20066000Y-11176000I0J508000D01*
G01*
X15494000Y-7366000D02*
G75*
G03*
X14986000Y-7874000I0J-508000D01*
G01*
X20066000Y-7874000D02*
G75*
G03*
X19558000Y-7366000I-508000J0D01*
G01*
X14986000Y-7874000D02*
X14986000Y-11176000D01*
D11*
D10*
X16315000Y-7513300D02*
X16405000Y-7603300D01*
X16405000Y-7513300D02*
X16315000Y-7603300D01*
X16615000Y-7513300D02*
X16705000Y-7603300D01*
X16705000Y-7513300D02*
X16615000Y-7603300D01*
D11*
X15241777Y-12000484D02*
X15241777Y-11800484D01*
X15241777Y-11800484D02*
X15289396Y-11800484D01*
X15289396Y-11800484D02*
X15317967Y-11810008D01*
X15317967Y-11810008D02*
X15337015Y-11829055D01*
X15337015Y-11829055D02*
X15346539Y-11848103D01*
X15346539Y-11848103D02*
X15356062Y-11886198D01*
X15356062Y-11886198D02*
X15356062Y-11914769D01*
X15356062Y-11914769D02*
X15346539Y-11952865D01*
X15346539Y-11952865D02*
X15337015Y-11971912D01*
X15337015Y-11971912D02*
X15317967Y-11990960D01*
X15317967Y-11990960D02*
X15289396Y-12000484D01*
X15289396Y-12000484D02*
X15241777Y-12000484D01*
X15441777Y-12000484D02*
X15441777Y-11867150D01*
X15441777Y-11905246D02*
X15451301Y-11886198D01*
X15451301Y-11886198D02*
X15460824Y-11876674D01*
X15460824Y-11876674D02*
X15479872Y-11867150D01*
X15479872Y-11867150D02*
X15498920Y-11867150D01*
X15565586Y-12000484D02*
X15565586Y-11867150D01*
X15565586Y-11800484D02*
X15556062Y-11810008D01*
X15556062Y-11810008D02*
X15565586Y-11819531D01*
X15565586Y-11819531D02*
X15575110Y-11810008D01*
X15575110Y-11810008D02*
X15565586Y-11800484D01*
X15565586Y-11800484D02*
X15565586Y-11819531D01*
X15689396Y-12000484D02*
X15670348Y-11990960D01*
X15670348Y-11990960D02*
X15660824Y-11971912D01*
X15660824Y-11971912D02*
X15660824Y-11800484D01*
X15794158Y-12000484D02*
X15775110Y-11990960D01*
X15775110Y-11990960D02*
X15765586Y-11971912D01*
X15765586Y-11971912D02*
X15765586Y-11800484D01*
X16022729Y-12000484D02*
X16022729Y-11800484D01*
X16022729Y-11800484D02*
X16089396Y-11943341D01*
X16089396Y-11943341D02*
X16156062Y-11800484D01*
X16156062Y-11800484D02*
X16156062Y-12000484D01*
X16337015Y-12000484D02*
X16337015Y-11895722D01*
X16337015Y-11895722D02*
X16327491Y-11876674D01*
X16327491Y-11876674D02*
X16308443Y-11867150D01*
X16308443Y-11867150D02*
X16270348Y-11867150D01*
X16270348Y-11867150D02*
X16251301Y-11876674D01*
X16337015Y-11990960D02*
X16317967Y-12000484D01*
X16317967Y-12000484D02*
X16270348Y-12000484D01*
X16270348Y-12000484D02*
X16251301Y-11990960D01*
X16251301Y-11990960D02*
X16241777Y-11971912D01*
X16241777Y-11971912D02*
X16241777Y-11952865D01*
X16241777Y-11952865D02*
X16251301Y-11933817D01*
X16251301Y-11933817D02*
X16270348Y-11924293D01*
X16270348Y-11924293D02*
X16317967Y-11924293D01*
X16317967Y-11924293D02*
X16337015Y-11914769D01*
X16432253Y-11867150D02*
X16432253Y-12067150D01*
X16432253Y-11876674D02*
X16451301Y-11867150D01*
X16451301Y-11867150D02*
X16489396Y-11867150D01*
X16489396Y-11867150D02*
X16508443Y-11876674D01*
X16508443Y-11876674D02*
X16517967Y-11886198D01*
X16517967Y-11886198D02*
X16527491Y-11905246D01*
X16527491Y-11905246D02*
X16527491Y-11962388D01*
X16527491Y-11962388D02*
X16517967Y-11981436D01*
X16517967Y-11981436D02*
X16508443Y-11990960D01*
X16508443Y-11990960D02*
X16489396Y-12000484D01*
X16489396Y-12000484D02*
X16451301Y-12000484D01*
X16451301Y-12000484D02*
X16432253Y-11990960D01*
X16613205Y-11981436D02*
X16622729Y-11990960D01*
X16622729Y-11990960D02*
X16613205Y-12000484D01*
X16613205Y-12000484D02*
X16603682Y-11990960D01*
X16603682Y-11990960D02*
X16613205Y-11981436D01*
X16613205Y-11981436D02*
X16613205Y-12000484D01*
X16613205Y-11876674D02*
X16622729Y-11886198D01*
X16622729Y-11886198D02*
X16613205Y-11895722D01*
X16613205Y-11895722D02*
X16603682Y-11886198D01*
X16603682Y-11886198D02*
X16613205Y-11876674D01*
X16613205Y-11876674D02*
X16613205Y-11895722D01*
D10*
X14891000Y-12284000D02*
X14981000Y-12374000D01*
X14981000Y-12284000D02*
X14891000Y-12374000D01*
D11*
X15279872Y-12220484D02*
X15298920Y-12220484D01*
X15298920Y-12220484D02*
X15317967Y-12230008D01*
X15317967Y-12230008D02*
X15327491Y-12239531D01*
X15327491Y-12239531D02*
X15337015Y-12258579D01*
X15337015Y-12258579D02*
X15346539Y-12296674D01*
X15346539Y-12296674D02*
X15346539Y-12344293D01*
X15346539Y-12344293D02*
X15337015Y-12382388D01*
X15337015Y-12382388D02*
X15327491Y-12401436D01*
X15327491Y-12401436D02*
X15317967Y-12410960D01*
X15317967Y-12410960D02*
X15298920Y-12420484D01*
X15298920Y-12420484D02*
X15279872Y-12420484D01*
X15279872Y-12420484D02*
X15260824Y-12410960D01*
X15260824Y-12410960D02*
X15251301Y-12401436D01*
X15251301Y-12401436D02*
X15241777Y-12382388D01*
X15241777Y-12382388D02*
X15232253Y-12344293D01*
X15232253Y-12344293D02*
X15232253Y-12296674D01*
X15232253Y-12296674D02*
X15241777Y-12258579D01*
X15241777Y-12258579D02*
X15251301Y-12239531D01*
X15251301Y-12239531D02*
X15260824Y-12230008D01*
X15260824Y-12230008D02*
X15279872Y-12220484D01*
X15432253Y-12401436D02*
X15441777Y-12410960D01*
X15441777Y-12410960D02*
X15432253Y-12420484D01*
X15432253Y-12420484D02*
X15422729Y-12410960D01*
X15422729Y-12410960D02*
X15432253Y-12401436D01*
X15432253Y-12401436D02*
X15432253Y-12420484D01*
X15537015Y-12420484D02*
X15575110Y-12420484D01*
X15575110Y-12420484D02*
X15594158Y-12410960D01*
X15594158Y-12410960D02*
X15603682Y-12401436D01*
X15603682Y-12401436D02*
X15622729Y-12372865D01*
X15622729Y-12372865D02*
X15632253Y-12334769D01*
X15632253Y-12334769D02*
X15632253Y-12258579D01*
X15632253Y-12258579D02*
X15622729Y-12239531D01*
X15622729Y-12239531D02*
X15613205Y-12230008D01*
X15613205Y-12230008D02*
X15594158Y-12220484D01*
X15594158Y-12220484D02*
X15556062Y-12220484D01*
X15556062Y-12220484D02*
X15537015Y-12230008D01*
X15537015Y-12230008D02*
X15527491Y-12239531D01*
X15527491Y-12239531D02*
X15517967Y-12258579D01*
X15517967Y-12258579D02*
X15517967Y-12306198D01*
X15517967Y-12306198D02*
X15527491Y-12325246D01*
X15527491Y-12325246D02*
X15537015Y-12334769D01*
X15537015Y-12334769D02*
X15556062Y-12344293D01*
X15556062Y-12344293D02*
X15594158Y-12344293D01*
X15594158Y-12344293D02*
X15613205Y-12334769D01*
X15613205Y-12334769D02*
X15622729Y-12325246D01*
X15622729Y-12325246D02*
X15632253Y-12306198D01*
X15756062Y-12220484D02*
X15775110Y-12220484D01*
X15775110Y-12220484D02*
X15794158Y-12230008D01*
X15794158Y-12230008D02*
X15803682Y-12239531D01*
X15803682Y-12239531D02*
X15813205Y-12258579D01*
X15813205Y-12258579D02*
X15822729Y-12296674D01*
X15822729Y-12296674D02*
X15822729Y-12344293D01*
X15822729Y-12344293D02*
X15813205Y-12382388D01*
X15813205Y-12382388D02*
X15803682Y-12401436D01*
X15803682Y-12401436D02*
X15794158Y-12410960D01*
X15794158Y-12410960D02*
X15775110Y-12420484D01*
X15775110Y-12420484D02*
X15756062Y-12420484D01*
X15756062Y-12420484D02*
X15737015Y-12410960D01*
X15737015Y-12410960D02*
X15727491Y-12401436D01*
X15727491Y-12401436D02*
X15717967Y-12382388D01*
X15717967Y-12382388D02*
X15708443Y-12344293D01*
X15708443Y-12344293D02*
X15708443Y-12296674D01*
X15708443Y-12296674D02*
X15717967Y-12258579D01*
X15717967Y-12258579D02*
X15727491Y-12239531D01*
X15727491Y-12239531D02*
X15737015Y-12230008D01*
X15737015Y-12230008D02*
X15756062Y-12220484D01*
X15946539Y-12220484D02*
X15965586Y-12220484D01*
X15965586Y-12220484D02*
X15984634Y-12230008D01*
X15984634Y-12230008D02*
X15994158Y-12239531D01*
X15994158Y-12239531D02*
X16003682Y-12258579D01*
X16003682Y-12258579D02*
X16013205Y-12296674D01*
X16013205Y-12296674D02*
X16013205Y-12344293D01*
X16013205Y-12344293D02*
X16003682Y-12382388D01*
X16003682Y-12382388D02*
X15994158Y-12401436D01*
X15994158Y-12401436D02*
X15984634Y-12410960D01*
X15984634Y-12410960D02*
X15965586Y-12420484D01*
X15965586Y-12420484D02*
X15946539Y-12420484D01*
X15946539Y-12420484D02*
X15927491Y-12410960D01*
X15927491Y-12410960D02*
X15917967Y-12401436D01*
X15917967Y-12401436D02*
X15908443Y-12382388D01*
X15908443Y-12382388D02*
X15898920Y-12344293D01*
X15898920Y-12344293D02*
X15898920Y-12296674D01*
X15898920Y-12296674D02*
X15908443Y-12258579D01*
X15908443Y-12258579D02*
X15917967Y-12239531D01*
X15917967Y-12239531D02*
X15927491Y-12230008D01*
X15927491Y-12230008D02*
X15946539Y-12220484D01*
X16098920Y-12420484D02*
X16098920Y-12287150D01*
X16098920Y-12306198D02*
X16108443Y-12296674D01*
X16108443Y-12296674D02*
X16127491Y-12287150D01*
X16127491Y-12287150D02*
X16156063Y-12287150D01*
X16156063Y-12287150D02*
X16175110Y-12296674D01*
X16175110Y-12296674D02*
X16184634Y-12315722D01*
X16184634Y-12315722D02*
X16184634Y-12420484D01*
X16184634Y-12315722D02*
X16194158Y-12296674D01*
X16194158Y-12296674D02*
X16213205Y-12287150D01*
X16213205Y-12287150D02*
X16241777Y-12287150D01*
X16241777Y-12287150D02*
X16260824Y-12296674D01*
X16260824Y-12296674D02*
X16270348Y-12315722D01*
X16270348Y-12315722D02*
X16270348Y-12420484D01*
X16365586Y-12420484D02*
X16365586Y-12287150D01*
X16365586Y-12306198D02*
X16375110Y-12296674D01*
X16375110Y-12296674D02*
X16394158Y-12287150D01*
X16394158Y-12287150D02*
X16422729Y-12287150D01*
X16422729Y-12287150D02*
X16441777Y-12296674D01*
X16441777Y-12296674D02*
X16451301Y-12315722D01*
X16451301Y-12315722D02*
X16451301Y-12420484D01*
X16451301Y-12315722D02*
X16460824Y-12296674D01*
X16460824Y-12296674D02*
X16479872Y-12287150D01*
X16479872Y-12287150D02*
X16508443Y-12287150D01*
X16508443Y-12287150D02*
X16527491Y-12296674D01*
X16527491Y-12296674D02*
X16537015Y-12315722D01*
X16537015Y-12315722D02*
X16537015Y-12420484D01*
X16927491Y-12210960D02*
X16756063Y-12468103D01*
X17184634Y-12220484D02*
X17203682Y-12220484D01*
X17203682Y-12220484D02*
X17222729Y-12230008D01*
X17222729Y-12230008D02*
X17232253Y-12239531D01*
X17232253Y-12239531D02*
X17241777Y-12258579D01*
X17241777Y-12258579D02*
X17251301Y-12296674D01*
X17251301Y-12296674D02*
X17251301Y-12344293D01*
X17251301Y-12344293D02*
X17241777Y-12382388D01*
X17241777Y-12382388D02*
X17232253Y-12401436D01*
X17232253Y-12401436D02*
X17222729Y-12410960D01*
X17222729Y-12410960D02*
X17203682Y-12420484D01*
X17203682Y-12420484D02*
X17184634Y-12420484D01*
X17184634Y-12420484D02*
X17165587Y-12410960D01*
X17165587Y-12410960D02*
X17156063Y-12401436D01*
X17156063Y-12401436D02*
X17146539Y-12382388D01*
X17146539Y-12382388D02*
X17137015Y-12344293D01*
X17137015Y-12344293D02*
X17137015Y-12296674D01*
X17137015Y-12296674D02*
X17146539Y-12258579D01*
X17146539Y-12258579D02*
X17156063Y-12239531D01*
X17156063Y-12239531D02*
X17165587Y-12230008D01*
X17165587Y-12230008D02*
X17184634Y-12220484D01*
X17337015Y-12401436D02*
X17346539Y-12410960D01*
X17346539Y-12410960D02*
X17337015Y-12420484D01*
X17337015Y-12420484D02*
X17327491Y-12410960D01*
X17327491Y-12410960D02*
X17337015Y-12401436D01*
X17337015Y-12401436D02*
X17337015Y-12420484D01*
X17470348Y-12220484D02*
X17489396Y-12220484D01*
X17489396Y-12220484D02*
X17508444Y-12230008D01*
X17508444Y-12230008D02*
X17517968Y-12239531D01*
X17517968Y-12239531D02*
X17527491Y-12258579D01*
X17527491Y-12258579D02*
X17537015Y-12296674D01*
X17537015Y-12296674D02*
X17537015Y-12344293D01*
X17537015Y-12344293D02*
X17527491Y-12382388D01*
X17527491Y-12382388D02*
X17517968Y-12401436D01*
X17517968Y-12401436D02*
X17508444Y-12410960D01*
X17508444Y-12410960D02*
X17489396Y-12420484D01*
X17489396Y-12420484D02*
X17470348Y-12420484D01*
X17470348Y-12420484D02*
X17451301Y-12410960D01*
X17451301Y-12410960D02*
X17441777Y-12401436D01*
X17441777Y-12401436D02*
X17432253Y-12382388D01*
X17432253Y-12382388D02*
X17422729Y-12344293D01*
X17422729Y-12344293D02*
X17422729Y-12296674D01*
X17422729Y-12296674D02*
X17432253Y-12258579D01*
X17432253Y-12258579D02*
X17441777Y-12239531D01*
X17441777Y-12239531D02*
X17451301Y-12230008D01*
X17451301Y-12230008D02*
X17470348Y-12220484D01*
X17603682Y-12220484D02*
X17727491Y-12220484D01*
X17727491Y-12220484D02*
X17660825Y-12296674D01*
X17660825Y-12296674D02*
X17689396Y-12296674D01*
X17689396Y-12296674D02*
X17708444Y-12306198D01*
X17708444Y-12306198D02*
X17717968Y-12315722D01*
X17717968Y-12315722D02*
X17727491Y-12334769D01*
X17727491Y-12334769D02*
X17727491Y-12382388D01*
X17727491Y-12382388D02*
X17717968Y-12401436D01*
X17717968Y-12401436D02*
X17708444Y-12410960D01*
X17708444Y-12410960D02*
X17689396Y-12420484D01*
X17689396Y-12420484D02*
X17632253Y-12420484D01*
X17632253Y-12420484D02*
X17613206Y-12410960D01*
X17613206Y-12410960D02*
X17603682Y-12401436D01*
X17908444Y-12220484D02*
X17813206Y-12220484D01*
X17813206Y-12220484D02*
X17803682Y-12315722D01*
X17803682Y-12315722D02*
X17813206Y-12306198D01*
X17813206Y-12306198D02*
X17832253Y-12296674D01*
X17832253Y-12296674D02*
X17879872Y-12296674D01*
X17879872Y-12296674D02*
X17898920Y-12306198D01*
X17898920Y-12306198D02*
X17908444Y-12315722D01*
X17908444Y-12315722D02*
X17917968Y-12334769D01*
X17917968Y-12334769D02*
X17917968Y-12382388D01*
X17917968Y-12382388D02*
X17908444Y-12401436D01*
X17908444Y-12401436D02*
X17898920Y-12410960D01*
X17898920Y-12410960D02*
X17879872Y-12420484D01*
X17879872Y-12420484D02*
X17832253Y-12420484D01*
X17832253Y-12420484D02*
X17813206Y-12410960D01*
X17813206Y-12410960D02*
X17803682Y-12401436D01*
X18089396Y-12287150D02*
X18089396Y-12420484D01*
X18041777Y-12210960D02*
X17994158Y-12353817D01*
X17994158Y-12353817D02*
X18117968Y-12353817D01*
X18184634Y-12220484D02*
X18184634Y-12258579D01*
X18260825Y-12220484D02*
X18260825Y-12258579D01*
X18556063Y-12496674D02*
X18546539Y-12487150D01*
X18546539Y-12487150D02*
X18527491Y-12458579D01*
X18527491Y-12458579D02*
X18517968Y-12439531D01*
X18517968Y-12439531D02*
X18508444Y-12410960D01*
X18508444Y-12410960D02*
X18498920Y-12363341D01*
X18498920Y-12363341D02*
X18498920Y-12325246D01*
X18498920Y-12325246D02*
X18508444Y-12277627D01*
X18508444Y-12277627D02*
X18517968Y-12249055D01*
X18517968Y-12249055D02*
X18527491Y-12230008D01*
X18527491Y-12230008D02*
X18546539Y-12201436D01*
X18546539Y-12201436D02*
X18556063Y-12191912D01*
X18622730Y-12239531D02*
X18632253Y-12230008D01*
X18632253Y-12230008D02*
X18651301Y-12220484D01*
X18651301Y-12220484D02*
X18698920Y-12220484D01*
X18698920Y-12220484D02*
X18717968Y-12230008D01*
X18717968Y-12230008D02*
X18727491Y-12239531D01*
X18727491Y-12239531D02*
X18737015Y-12258579D01*
X18737015Y-12258579D02*
X18737015Y-12277627D01*
X18737015Y-12277627D02*
X18727491Y-12306198D01*
X18727491Y-12306198D02*
X18613206Y-12420484D01*
X18613206Y-12420484D02*
X18737015Y-12420484D01*
X18975111Y-12420484D02*
X18975111Y-12220484D01*
X19060825Y-12420484D02*
X19060825Y-12315722D01*
X19060825Y-12315722D02*
X19051301Y-12296674D01*
X19051301Y-12296674D02*
X19032253Y-12287150D01*
X19032253Y-12287150D02*
X19003682Y-12287150D01*
X19003682Y-12287150D02*
X18984634Y-12296674D01*
X18984634Y-12296674D02*
X18975111Y-12306198D01*
X19184634Y-12420484D02*
X19165587Y-12410960D01*
X19165587Y-12410960D02*
X19156063Y-12401436D01*
X19156063Y-12401436D02*
X19146539Y-12382388D01*
X19146539Y-12382388D02*
X19146539Y-12325246D01*
X19146539Y-12325246D02*
X19156063Y-12306198D01*
X19156063Y-12306198D02*
X19165587Y-12296674D01*
X19165587Y-12296674D02*
X19184634Y-12287150D01*
X19184634Y-12287150D02*
X19213206Y-12287150D01*
X19213206Y-12287150D02*
X19232253Y-12296674D01*
X19232253Y-12296674D02*
X19241777Y-12306198D01*
X19241777Y-12306198D02*
X19251301Y-12325246D01*
X19251301Y-12325246D02*
X19251301Y-12382388D01*
X19251301Y-12382388D02*
X19241777Y-12401436D01*
X19241777Y-12401436D02*
X19232253Y-12410960D01*
X19232253Y-12410960D02*
X19213206Y-12420484D01*
X19213206Y-12420484D02*
X19184634Y-12420484D01*
X19365587Y-12420484D02*
X19346539Y-12410960D01*
X19346539Y-12410960D02*
X19337015Y-12391912D01*
X19337015Y-12391912D02*
X19337015Y-12220484D01*
X19517968Y-12410960D02*
X19498920Y-12420484D01*
X19498920Y-12420484D02*
X19460825Y-12420484D01*
X19460825Y-12420484D02*
X19441777Y-12410960D01*
X19441777Y-12410960D02*
X19432253Y-12391912D01*
X19432253Y-12391912D02*
X19432253Y-12315722D01*
X19432253Y-12315722D02*
X19441777Y-12296674D01*
X19441777Y-12296674D02*
X19460825Y-12287150D01*
X19460825Y-12287150D02*
X19498920Y-12287150D01*
X19498920Y-12287150D02*
X19517968Y-12296674D01*
X19517968Y-12296674D02*
X19527492Y-12315722D01*
X19527492Y-12315722D02*
X19527492Y-12334769D01*
X19527492Y-12334769D02*
X19432253Y-12353817D01*
X19603682Y-12410960D02*
X19622730Y-12420484D01*
X19622730Y-12420484D02*
X19660825Y-12420484D01*
X19660825Y-12420484D02*
X19679873Y-12410960D01*
X19679873Y-12410960D02*
X19689396Y-12391912D01*
X19689396Y-12391912D02*
X19689396Y-12382388D01*
X19689396Y-12382388D02*
X19679873Y-12363341D01*
X19679873Y-12363341D02*
X19660825Y-12353817D01*
X19660825Y-12353817D02*
X19632253Y-12353817D01*
X19632253Y-12353817D02*
X19613206Y-12344293D01*
X19613206Y-12344293D02*
X19603682Y-12325246D01*
X19603682Y-12325246D02*
X19603682Y-12315722D01*
X19603682Y-12315722D02*
X19613206Y-12296674D01*
X19613206Y-12296674D02*
X19632253Y-12287150D01*
X19632253Y-12287150D02*
X19660825Y-12287150D01*
X19660825Y-12287150D02*
X19679873Y-12296674D01*
X19756063Y-12496674D02*
X19765587Y-12487150D01*
X19765587Y-12487150D02*
X19784634Y-12458579D01*
X19784634Y-12458579D02*
X19794158Y-12439531D01*
X19794158Y-12439531D02*
X19803682Y-12410960D01*
X19803682Y-12410960D02*
X19813206Y-12363341D01*
X19813206Y-12363341D02*
X19813206Y-12325246D01*
X19813206Y-12325246D02*
X19803682Y-12277627D01*
X19803682Y-12277627D02*
X19794158Y-12249055D01*
X19794158Y-12249055D02*
X19784634Y-12230008D01*
X19784634Y-12230008D02*
X19765587Y-12201436D01*
X19765587Y-12201436D02*
X19756063Y-12191912D01*
X20117968Y-12496674D02*
X20108444Y-12487150D01*
X20108444Y-12487150D02*
X20089396Y-12458579D01*
X20089396Y-12458579D02*
X20079873Y-12439531D01*
X20079873Y-12439531D02*
X20070349Y-12410960D01*
X20070349Y-12410960D02*
X20060825Y-12363341D01*
X20060825Y-12363341D02*
X20060825Y-12325246D01*
X20060825Y-12325246D02*
X20070349Y-12277627D01*
X20070349Y-12277627D02*
X20079873Y-12249055D01*
X20079873Y-12249055D02*
X20089396Y-12230008D01*
X20089396Y-12230008D02*
X20108444Y-12201436D01*
X20108444Y-12201436D02*
X20117968Y-12191912D01*
X20194158Y-12287150D02*
X20194158Y-12420484D01*
X20194158Y-12306198D02*
X20203682Y-12296674D01*
X20203682Y-12296674D02*
X20222730Y-12287150D01*
X20222730Y-12287150D02*
X20251301Y-12287150D01*
X20251301Y-12287150D02*
X20270349Y-12296674D01*
X20270349Y-12296674D02*
X20279873Y-12315722D01*
X20279873Y-12315722D02*
X20279873Y-12420484D01*
X20403682Y-12420484D02*
X20384634Y-12410960D01*
X20384634Y-12410960D02*
X20375111Y-12401436D01*
X20375111Y-12401436D02*
X20365587Y-12382388D01*
X20365587Y-12382388D02*
X20365587Y-12325246D01*
X20365587Y-12325246D02*
X20375111Y-12306198D01*
X20375111Y-12306198D02*
X20384634Y-12296674D01*
X20384634Y-12296674D02*
X20403682Y-12287150D01*
X20403682Y-12287150D02*
X20432254Y-12287150D01*
X20432254Y-12287150D02*
X20451301Y-12296674D01*
X20451301Y-12296674D02*
X20460825Y-12306198D01*
X20460825Y-12306198D02*
X20470349Y-12325246D01*
X20470349Y-12325246D02*
X20470349Y-12382388D01*
X20470349Y-12382388D02*
X20460825Y-12401436D01*
X20460825Y-12401436D02*
X20451301Y-12410960D01*
X20451301Y-12410960D02*
X20432254Y-12420484D01*
X20432254Y-12420484D02*
X20403682Y-12420484D01*
X20527492Y-12287150D02*
X20603682Y-12287150D01*
X20556063Y-12220484D02*
X20556063Y-12391912D01*
X20556063Y-12391912D02*
X20565587Y-12410960D01*
X20565587Y-12410960D02*
X20584634Y-12420484D01*
X20584634Y-12420484D02*
X20603682Y-12420484D01*
X20822730Y-12287150D02*
X20822730Y-12487150D01*
X20822730Y-12296674D02*
X20841777Y-12287150D01*
X20841777Y-12287150D02*
X20879873Y-12287150D01*
X20879873Y-12287150D02*
X20898920Y-12296674D01*
X20898920Y-12296674D02*
X20908444Y-12306198D01*
X20908444Y-12306198D02*
X20917968Y-12325246D01*
X20917968Y-12325246D02*
X20917968Y-12382388D01*
X20917968Y-12382388D02*
X20908444Y-12401436D01*
X20908444Y-12401436D02*
X20898920Y-12410960D01*
X20898920Y-12410960D02*
X20879873Y-12420484D01*
X20879873Y-12420484D02*
X20841777Y-12420484D01*
X20841777Y-12420484D02*
X20822730Y-12410960D01*
X21032254Y-12420484D02*
X21013206Y-12410960D01*
X21013206Y-12410960D02*
X21003682Y-12391912D01*
X21003682Y-12391912D02*
X21003682Y-12220484D01*
X21194158Y-12420484D02*
X21194158Y-12315722D01*
X21194158Y-12315722D02*
X21184635Y-12296674D01*
X21184635Y-12296674D02*
X21165587Y-12287150D01*
X21165587Y-12287150D02*
X21127492Y-12287150D01*
X21127492Y-12287150D02*
X21108444Y-12296674D01*
X21194158Y-12410960D02*
X21175111Y-12420484D01*
X21175111Y-12420484D02*
X21127492Y-12420484D01*
X21127492Y-12420484D02*
X21108444Y-12410960D01*
X21108444Y-12410960D02*
X21098920Y-12391912D01*
X21098920Y-12391912D02*
X21098920Y-12372865D01*
X21098920Y-12372865D02*
X21108444Y-12353817D01*
X21108444Y-12353817D02*
X21127492Y-12344293D01*
X21127492Y-12344293D02*
X21175111Y-12344293D01*
X21175111Y-12344293D02*
X21194158Y-12334769D01*
X21260825Y-12287150D02*
X21337015Y-12287150D01*
X21289396Y-12220484D02*
X21289396Y-12391912D01*
X21289396Y-12391912D02*
X21298920Y-12410960D01*
X21298920Y-12410960D02*
X21317968Y-12420484D01*
X21317968Y-12420484D02*
X21337015Y-12420484D01*
X21479873Y-12410960D02*
X21460825Y-12420484D01*
X21460825Y-12420484D02*
X21422730Y-12420484D01*
X21422730Y-12420484D02*
X21403682Y-12410960D01*
X21403682Y-12410960D02*
X21394158Y-12391912D01*
X21394158Y-12391912D02*
X21394158Y-12315722D01*
X21394158Y-12315722D02*
X21403682Y-12296674D01*
X21403682Y-12296674D02*
X21422730Y-12287150D01*
X21422730Y-12287150D02*
X21460825Y-12287150D01*
X21460825Y-12287150D02*
X21479873Y-12296674D01*
X21479873Y-12296674D02*
X21489396Y-12315722D01*
X21489396Y-12315722D02*
X21489396Y-12334769D01*
X21489396Y-12334769D02*
X21394158Y-12353817D01*
X21660825Y-12420484D02*
X21660825Y-12220484D01*
X21660825Y-12410960D02*
X21641777Y-12420484D01*
X21641777Y-12420484D02*
X21603682Y-12420484D01*
X21603682Y-12420484D02*
X21584635Y-12410960D01*
X21584635Y-12410960D02*
X21575111Y-12401436D01*
X21575111Y-12401436D02*
X21565587Y-12382388D01*
X21565587Y-12382388D02*
X21565587Y-12325246D01*
X21565587Y-12325246D02*
X21575111Y-12306198D01*
X21575111Y-12306198D02*
X21584635Y-12296674D01*
X21584635Y-12296674D02*
X21603682Y-12287150D01*
X21603682Y-12287150D02*
X21641777Y-12287150D01*
X21641777Y-12287150D02*
X21660825Y-12296674D01*
X21737016Y-12496674D02*
X21746539Y-12487150D01*
X21746539Y-12487150D02*
X21765587Y-12458579D01*
X21765587Y-12458579D02*
X21775111Y-12439531D01*
X21775111Y-12439531D02*
X21784635Y-12410960D01*
X21784635Y-12410960D02*
X21794158Y-12363341D01*
X21794158Y-12363341D02*
X21794158Y-12325246D01*
X21794158Y-12325246D02*
X21784635Y-12277627D01*
X21784635Y-12277627D02*
X21775111Y-12249055D01*
X21775111Y-12249055D02*
X21765587Y-12230008D01*
X21765587Y-12230008D02*
X21746539Y-12201436D01*
X21746539Y-12201436D02*
X21737016Y-12191912D01*
M02*
