M48
; DRILL file {KiCad 7.0.10} date Thu Mar 14 18:53:13 2024
; FORMAT={-:-/ absolute / inch / decimal}
; #@! TF.CreationDate,2024-03-14T18:53:13+05:30
; #@! TF.GenerationSoftware,Kicad,Pcbnew,7.0.10
; #@! TF.FileFunction,Plated,1,4,PTH
FMAT,2
INCH
; #@! TA.AperFunction,Plated,PTH,ViaDrill
T1C0.0157
; #@! TA.AperFunction,Plated,PTH,ComponentDrill
T2C0.0197
; #@! TA.AperFunction,Plated,PTH,ComponentDrill
T3C0.0236
; #@! TA.AperFunction,Plated,PTH,ComponentDrill
T4C0.0472
; #@! TA.AperFunction,Plated,PTH,ComponentDrill
T5C0.1693
%
G90
G05
T1
X6.345Y-3.665
X6.41Y-3.12
X6.4509Y-3.7991
X6.5Y-3.315
X6.515Y-3.7
X6.525Y-3.58
X6.59Y-3.12
X6.59Y-3.38
X6.63Y-3.435
X6.7Y-3.755
X6.705Y-3.33
X6.7294Y-3.7112
X6.77Y-3.3
X6.77Y-3.7106
X6.863Y-3.681
X6.91Y-3.3
X6.92Y-3.94
X6.925Y-4.255
X6.925Y-4.31
X6.975Y-4.255
X6.975Y-4.31
X7.01Y-3.88
X7.012Y-3.248
X7.025Y-4.31
X7.03Y-4.255
X7.04Y-3.49
X7.08Y-3.5728
X7.08Y-3.635
X7.08Y-4.255
X7.11Y-4.005
X7.15Y-2.995
X7.16Y-3.91
X7.16Y-3.96
X7.16Y-4.005
X7.175Y-3.6456
X7.4Y-4.14
X7.4Y-4.185
X7.435Y-4.015
X7.445Y-4.35
X7.445Y-4.415
X7.445Y-4.47
X7.445Y-4.525
X7.48Y-2.9982
X7.4807Y-3.0593
X7.545Y-3.56
X7.55Y-4.135
X7.585Y-3.56
X7.595Y-4.135
X7.625Y-3.56
X7.64Y-4.135
T2
X6.0799Y-3.8812
X6.0799Y-3.9304
X6.0799Y-3.9796
X6.0799Y-4.0288
X6.08Y-3.3919
X6.08Y-3.4411
X6.08Y-3.4904
X6.08Y-3.5396
X6.08Y-3.5888
X6.08Y-3.638
X6.8402Y-3.0799
X6.8894Y-3.0799
X6.9386Y-3.0799
X6.9878Y-3.0799
T3
X5.973Y-3.1
X5.973Y-4.4
X6.0102Y-3.0102
X6.0102Y-3.1898
X6.0102Y-4.3102
X6.0102Y-4.4898
X6.1Y-2.973
X6.1Y-3.227
X6.1Y-4.273
X6.1Y-4.527
X6.1898Y-3.0102
X6.1898Y-3.1898
X6.1898Y-4.3102
X6.1898Y-4.4898
X6.227Y-3.1
X6.227Y-4.4
X7.573Y-3.1
X7.573Y-4.4
X7.6102Y-3.0102
X7.6102Y-3.1898
X7.6102Y-4.3102
X7.6102Y-4.4898
X7.7Y-2.973
X7.7Y-3.227
X7.7Y-4.273
X7.7Y-4.527
X7.7898Y-3.0102
X7.7898Y-3.1898
X7.7898Y-4.3102
X7.7898Y-4.4898
X7.827Y-3.1
X7.827Y-4.4
T4
X6.6411Y-4.3824
X6.7789Y-4.3824
T5
X6.1Y-3.1
X6.1Y-4.4
X7.7Y-3.1
X7.7Y-4.4
M30
