%TF.GenerationSoftware,KiCad,Pcbnew,7.0.10*%
%TF.CreationDate,2024-03-14T18:53:23+05:30*%
%TF.ProjectId,STM32_4LAYER,53544d33-325f-4344-9c41-5945522e6b69,rev?*%
%TF.SameCoordinates,Original*%
%TF.FileFunction,Legend,Bot*%
%TF.FilePolarity,Positive*%
%FSLAX46Y46*%
G04 Gerber Fmt 4.6, Leading zero omitted, Abs format (unit mm)*
G04 Created by KiCad (PCBNEW 7.0.10) date 2024-03-14 18:53:23*
%MOMM*%
%LPD*%
G01*
G04 APERTURE LIST*
%ADD10C,0.150000*%
G04 APERTURE END LIST*
D10*
X185718220Y-115693819D02*
X185718220Y-114693819D01*
X185718220Y-114693819D02*
X185480125Y-114693819D01*
X185480125Y-114693819D02*
X185337268Y-114741438D01*
X185337268Y-114741438D02*
X185242030Y-114836676D01*
X185242030Y-114836676D02*
X185194411Y-114931914D01*
X185194411Y-114931914D02*
X185146792Y-115122390D01*
X185146792Y-115122390D02*
X185146792Y-115265247D01*
X185146792Y-115265247D02*
X185194411Y-115455723D01*
X185194411Y-115455723D02*
X185242030Y-115550961D01*
X185242030Y-115550961D02*
X185337268Y-115646200D01*
X185337268Y-115646200D02*
X185480125Y-115693819D01*
X185480125Y-115693819D02*
X185718220Y-115693819D01*
X184337268Y-115646200D02*
X184432506Y-115693819D01*
X184432506Y-115693819D02*
X184622982Y-115693819D01*
X184622982Y-115693819D02*
X184718220Y-115646200D01*
X184718220Y-115646200D02*
X184765839Y-115550961D01*
X184765839Y-115550961D02*
X184765839Y-115170009D01*
X184765839Y-115170009D02*
X184718220Y-115074771D01*
X184718220Y-115074771D02*
X184622982Y-115027152D01*
X184622982Y-115027152D02*
X184432506Y-115027152D01*
X184432506Y-115027152D02*
X184337268Y-115074771D01*
X184337268Y-115074771D02*
X184289649Y-115170009D01*
X184289649Y-115170009D02*
X184289649Y-115265247D01*
X184289649Y-115265247D02*
X184765839Y-115360485D01*
X183908696Y-115646200D02*
X183813458Y-115693819D01*
X183813458Y-115693819D02*
X183622982Y-115693819D01*
X183622982Y-115693819D02*
X183527744Y-115646200D01*
X183527744Y-115646200D02*
X183480125Y-115550961D01*
X183480125Y-115550961D02*
X183480125Y-115503342D01*
X183480125Y-115503342D02*
X183527744Y-115408104D01*
X183527744Y-115408104D02*
X183622982Y-115360485D01*
X183622982Y-115360485D02*
X183765839Y-115360485D01*
X183765839Y-115360485D02*
X183861077Y-115312866D01*
X183861077Y-115312866D02*
X183908696Y-115217628D01*
X183908696Y-115217628D02*
X183908696Y-115170009D01*
X183908696Y-115170009D02*
X183861077Y-115074771D01*
X183861077Y-115074771D02*
X183765839Y-115027152D01*
X183765839Y-115027152D02*
X183622982Y-115027152D01*
X183622982Y-115027152D02*
X183527744Y-115074771D01*
X183051553Y-115693819D02*
X183051553Y-115027152D01*
X183051553Y-114693819D02*
X183099172Y-114741438D01*
X183099172Y-114741438D02*
X183051553Y-114789057D01*
X183051553Y-114789057D02*
X183003934Y-114741438D01*
X183003934Y-114741438D02*
X183051553Y-114693819D01*
X183051553Y-114693819D02*
X183051553Y-114789057D01*
X182146792Y-115027152D02*
X182146792Y-115836676D01*
X182146792Y-115836676D02*
X182194411Y-115931914D01*
X182194411Y-115931914D02*
X182242030Y-115979533D01*
X182242030Y-115979533D02*
X182337268Y-116027152D01*
X182337268Y-116027152D02*
X182480125Y-116027152D01*
X182480125Y-116027152D02*
X182575363Y-115979533D01*
X182146792Y-115646200D02*
X182242030Y-115693819D01*
X182242030Y-115693819D02*
X182432506Y-115693819D01*
X182432506Y-115693819D02*
X182527744Y-115646200D01*
X182527744Y-115646200D02*
X182575363Y-115598580D01*
X182575363Y-115598580D02*
X182622982Y-115503342D01*
X182622982Y-115503342D02*
X182622982Y-115217628D01*
X182622982Y-115217628D02*
X182575363Y-115122390D01*
X182575363Y-115122390D02*
X182527744Y-115074771D01*
X182527744Y-115074771D02*
X182432506Y-115027152D01*
X182432506Y-115027152D02*
X182242030Y-115027152D01*
X182242030Y-115027152D02*
X182146792Y-115074771D01*
X181670601Y-115027152D02*
X181670601Y-115693819D01*
X181670601Y-115122390D02*
X181622982Y-115074771D01*
X181622982Y-115074771D02*
X181527744Y-115027152D01*
X181527744Y-115027152D02*
X181384887Y-115027152D01*
X181384887Y-115027152D02*
X181289649Y-115074771D01*
X181289649Y-115074771D02*
X181242030Y-115170009D01*
X181242030Y-115170009D02*
X181242030Y-115693819D01*
X180384887Y-115646200D02*
X180480125Y-115693819D01*
X180480125Y-115693819D02*
X180670601Y-115693819D01*
X180670601Y-115693819D02*
X180765839Y-115646200D01*
X180765839Y-115646200D02*
X180813458Y-115550961D01*
X180813458Y-115550961D02*
X180813458Y-115170009D01*
X180813458Y-115170009D02*
X180765839Y-115074771D01*
X180765839Y-115074771D02*
X180670601Y-115027152D01*
X180670601Y-115027152D02*
X180480125Y-115027152D01*
X180480125Y-115027152D02*
X180384887Y-115074771D01*
X180384887Y-115074771D02*
X180337268Y-115170009D01*
X180337268Y-115170009D02*
X180337268Y-115265247D01*
X180337268Y-115265247D02*
X180813458Y-115360485D01*
X179480125Y-115693819D02*
X179480125Y-114693819D01*
X179480125Y-115646200D02*
X179575363Y-115693819D01*
X179575363Y-115693819D02*
X179765839Y-115693819D01*
X179765839Y-115693819D02*
X179861077Y-115646200D01*
X179861077Y-115646200D02*
X179908696Y-115598580D01*
X179908696Y-115598580D02*
X179956315Y-115503342D01*
X179956315Y-115503342D02*
X179956315Y-115217628D01*
X179956315Y-115217628D02*
X179908696Y-115122390D01*
X179908696Y-115122390D02*
X179861077Y-115074771D01*
X179861077Y-115074771D02*
X179765839Y-115027152D01*
X179765839Y-115027152D02*
X179575363Y-115027152D01*
X179575363Y-115027152D02*
X179480125Y-115074771D01*
X178242029Y-115693819D02*
X178242029Y-114693819D01*
X178242029Y-115074771D02*
X178146791Y-115027152D01*
X178146791Y-115027152D02*
X177956315Y-115027152D01*
X177956315Y-115027152D02*
X177861077Y-115074771D01*
X177861077Y-115074771D02*
X177813458Y-115122390D01*
X177813458Y-115122390D02*
X177765839Y-115217628D01*
X177765839Y-115217628D02*
X177765839Y-115503342D01*
X177765839Y-115503342D02*
X177813458Y-115598580D01*
X177813458Y-115598580D02*
X177861077Y-115646200D01*
X177861077Y-115646200D02*
X177956315Y-115693819D01*
X177956315Y-115693819D02*
X178146791Y-115693819D01*
X178146791Y-115693819D02*
X178242029Y-115646200D01*
X177432505Y-115027152D02*
X177194410Y-115693819D01*
X176956315Y-115027152D02*
X177194410Y-115693819D01*
X177194410Y-115693819D02*
X177289648Y-115931914D01*
X177289648Y-115931914D02*
X177337267Y-115979533D01*
X177337267Y-115979533D02*
X177432505Y-116027152D01*
X175527743Y-114693819D02*
X175527743Y-115408104D01*
X175527743Y-115408104D02*
X175575362Y-115550961D01*
X175575362Y-115550961D02*
X175670600Y-115646200D01*
X175670600Y-115646200D02*
X175813457Y-115693819D01*
X175813457Y-115693819D02*
X175908695Y-115693819D01*
X174622981Y-115693819D02*
X174622981Y-115170009D01*
X174622981Y-115170009D02*
X174670600Y-115074771D01*
X174670600Y-115074771D02*
X174765838Y-115027152D01*
X174765838Y-115027152D02*
X174956314Y-115027152D01*
X174956314Y-115027152D02*
X175051552Y-115074771D01*
X174622981Y-115646200D02*
X174718219Y-115693819D01*
X174718219Y-115693819D02*
X174956314Y-115693819D01*
X174956314Y-115693819D02*
X175051552Y-115646200D01*
X175051552Y-115646200D02*
X175099171Y-115550961D01*
X175099171Y-115550961D02*
X175099171Y-115455723D01*
X175099171Y-115455723D02*
X175051552Y-115360485D01*
X175051552Y-115360485D02*
X174956314Y-115312866D01*
X174956314Y-115312866D02*
X174718219Y-115312866D01*
X174718219Y-115312866D02*
X174622981Y-115265247D01*
X174146790Y-115027152D02*
X174146790Y-115693819D01*
X174146790Y-115122390D02*
X174099171Y-115074771D01*
X174099171Y-115074771D02*
X174003933Y-115027152D01*
X174003933Y-115027152D02*
X173861076Y-115027152D01*
X173861076Y-115027152D02*
X173765838Y-115074771D01*
X173765838Y-115074771D02*
X173718219Y-115170009D01*
X173718219Y-115170009D02*
X173718219Y-115693819D01*
X173242028Y-115693819D02*
X173242028Y-115027152D01*
X173242028Y-114693819D02*
X173289647Y-114741438D01*
X173289647Y-114741438D02*
X173242028Y-114789057D01*
X173242028Y-114789057D02*
X173194409Y-114741438D01*
X173194409Y-114741438D02*
X173242028Y-114693819D01*
X173242028Y-114693819D02*
X173242028Y-114789057D01*
X172908695Y-115027152D02*
X172527743Y-115027152D01*
X172765838Y-114693819D02*
X172765838Y-115550961D01*
X172765838Y-115550961D02*
X172718219Y-115646200D01*
X172718219Y-115646200D02*
X172622981Y-115693819D01*
X172622981Y-115693819D02*
X172527743Y-115693819D01*
X172194409Y-115693819D02*
X172194409Y-114693819D01*
X171765838Y-115693819D02*
X171765838Y-115170009D01*
X171765838Y-115170009D02*
X171813457Y-115074771D01*
X171813457Y-115074771D02*
X171908695Y-115027152D01*
X171908695Y-115027152D02*
X172051552Y-115027152D01*
X172051552Y-115027152D02*
X172146790Y-115074771D01*
X172146790Y-115074771D02*
X172194409Y-115122390D01*
X170575361Y-115646200D02*
X170432504Y-115693819D01*
X170432504Y-115693819D02*
X170194409Y-115693819D01*
X170194409Y-115693819D02*
X170099171Y-115646200D01*
X170099171Y-115646200D02*
X170051552Y-115598580D01*
X170051552Y-115598580D02*
X170003933Y-115503342D01*
X170003933Y-115503342D02*
X170003933Y-115408104D01*
X170003933Y-115408104D02*
X170051552Y-115312866D01*
X170051552Y-115312866D02*
X170099171Y-115265247D01*
X170099171Y-115265247D02*
X170194409Y-115217628D01*
X170194409Y-115217628D02*
X170384885Y-115170009D01*
X170384885Y-115170009D02*
X170480123Y-115122390D01*
X170480123Y-115122390D02*
X170527742Y-115074771D01*
X170527742Y-115074771D02*
X170575361Y-114979533D01*
X170575361Y-114979533D02*
X170575361Y-114884295D01*
X170575361Y-114884295D02*
X170527742Y-114789057D01*
X170527742Y-114789057D02*
X170480123Y-114741438D01*
X170480123Y-114741438D02*
X170384885Y-114693819D01*
X170384885Y-114693819D02*
X170146790Y-114693819D01*
X170146790Y-114693819D02*
X170003933Y-114741438D01*
X169575361Y-115693819D02*
X169575361Y-115027152D01*
X169575361Y-114693819D02*
X169622980Y-114741438D01*
X169622980Y-114741438D02*
X169575361Y-114789057D01*
X169575361Y-114789057D02*
X169527742Y-114741438D01*
X169527742Y-114741438D02*
X169575361Y-114693819D01*
X169575361Y-114693819D02*
X169575361Y-114789057D01*
X169099171Y-115027152D02*
X169099171Y-115693819D01*
X169099171Y-115122390D02*
X169051552Y-115074771D01*
X169051552Y-115074771D02*
X168956314Y-115027152D01*
X168956314Y-115027152D02*
X168813457Y-115027152D01*
X168813457Y-115027152D02*
X168718219Y-115074771D01*
X168718219Y-115074771D02*
X168670600Y-115170009D01*
X168670600Y-115170009D02*
X168670600Y-115693819D01*
X168194409Y-115693819D02*
X168194409Y-114693819D01*
X167765838Y-115693819D02*
X167765838Y-115170009D01*
X167765838Y-115170009D02*
X167813457Y-115074771D01*
X167813457Y-115074771D02*
X167908695Y-115027152D01*
X167908695Y-115027152D02*
X168051552Y-115027152D01*
X168051552Y-115027152D02*
X168146790Y-115074771D01*
X168146790Y-115074771D02*
X168194409Y-115122390D01*
X166861076Y-115693819D02*
X166861076Y-115170009D01*
X166861076Y-115170009D02*
X166908695Y-115074771D01*
X166908695Y-115074771D02*
X167003933Y-115027152D01*
X167003933Y-115027152D02*
X167194409Y-115027152D01*
X167194409Y-115027152D02*
X167289647Y-115074771D01*
X166861076Y-115646200D02*
X166956314Y-115693819D01*
X166956314Y-115693819D02*
X167194409Y-115693819D01*
X167194409Y-115693819D02*
X167289647Y-115646200D01*
X167289647Y-115646200D02*
X167337266Y-115550961D01*
X167337266Y-115550961D02*
X167337266Y-115455723D01*
X167337266Y-115455723D02*
X167289647Y-115360485D01*
X167289647Y-115360485D02*
X167194409Y-115312866D01*
X167194409Y-115312866D02*
X166956314Y-115312866D01*
X166956314Y-115312866D02*
X166861076Y-115265247D01*
X166384885Y-115027152D02*
X166384885Y-116027152D01*
X166384885Y-115074771D02*
X166289647Y-115027152D01*
X166289647Y-115027152D02*
X166099171Y-115027152D01*
X166099171Y-115027152D02*
X166003933Y-115074771D01*
X166003933Y-115074771D02*
X165956314Y-115122390D01*
X165956314Y-115122390D02*
X165908695Y-115217628D01*
X165908695Y-115217628D02*
X165908695Y-115503342D01*
X165908695Y-115503342D02*
X165956314Y-115598580D01*
X165956314Y-115598580D02*
X166003933Y-115646200D01*
X166003933Y-115646200D02*
X166099171Y-115693819D01*
X166099171Y-115693819D02*
X166289647Y-115693819D01*
X166289647Y-115693819D02*
X166384885Y-115646200D01*
X165051552Y-115027152D02*
X165051552Y-115693819D01*
X165480123Y-115027152D02*
X165480123Y-115550961D01*
X165480123Y-115550961D02*
X165432504Y-115646200D01*
X165432504Y-115646200D02*
X165337266Y-115693819D01*
X165337266Y-115693819D02*
X165194409Y-115693819D01*
X165194409Y-115693819D02*
X165099171Y-115646200D01*
X165099171Y-115646200D02*
X165051552Y-115598580D01*
X164575361Y-115693819D02*
X164575361Y-115027152D01*
X164575361Y-115217628D02*
X164527742Y-115122390D01*
X164527742Y-115122390D02*
X164480123Y-115074771D01*
X164480123Y-115074771D02*
X164384885Y-115027152D01*
X164384885Y-115027152D02*
X164289647Y-115027152D01*
X163527742Y-115693819D02*
X163527742Y-115170009D01*
X163527742Y-115170009D02*
X163575361Y-115074771D01*
X163575361Y-115074771D02*
X163670599Y-115027152D01*
X163670599Y-115027152D02*
X163861075Y-115027152D01*
X163861075Y-115027152D02*
X163956313Y-115074771D01*
X163527742Y-115646200D02*
X163622980Y-115693819D01*
X163622980Y-115693819D02*
X163861075Y-115693819D01*
X163861075Y-115693819D02*
X163956313Y-115646200D01*
X163956313Y-115646200D02*
X164003932Y-115550961D01*
X164003932Y-115550961D02*
X164003932Y-115455723D01*
X164003932Y-115455723D02*
X163956313Y-115360485D01*
X163956313Y-115360485D02*
X163861075Y-115312866D01*
X163861075Y-115312866D02*
X163622980Y-115312866D01*
X163622980Y-115312866D02*
X163527742Y-115265247D01*
M02*
